<svg id="svg" version="1.1" xmlns="http://www.w3.org/2000/svg" xmlns:xlink="http://www.w3.org/1999/xlink" width="400" height="400" viewBox="0, 0, 400,400"><g id="svgg"><path id="path0" d="M195.957 84.180 C 191.660 85.365,191.170 85.818,154.920 122.126 C 114.998 162.114,117.513 159.188,117.260 165.938 C 117.053 171.466,118.434 174.960,122.278 178.634 C 123.827 180.115,124.880 180.749,128.600 182.446 C 129.568 182.888,135.002 183.018,156.700 183.122 L 183.600 183.251 183.605 242.525 C 183.609 290.695,183.710 302.175,184.144 303.800 C 188.493 320.082,210.568 320.500,215.860 304.400 C 216.041 303.850,216.281 276.400,216.395 243.400 L 216.600 183.400 243.400 183.195 C 264.847 183.031,270.440 182.882,271.400 182.445 C 275.248 180.694,276.343 180.004,278.173 178.173 C 280.072 176.275,281.261 174.347,282.397 171.325 C 283.953 167.187,282.184 159.524,278.822 155.841 C 271.593 147.920,209.743 86.788,207.997 85.837 C 204.049 83.688,199.840 83.109,195.957 84.180 " stroke="none" fill="#fcfafa" fill-rule="evenodd"></path><path id="path1" d="M178.500 0.275 C 176.465 0.360,174.800 0.603,174.800 0.815 C 174.800 1.027,173.551 1.200,172.024 1.200 C 170.497 1.200,169.136 1.380,169.000 1.600 C 168.864 1.820,167.773 2.000,166.576 2.000 C 165.379 2.000,164.400 2.180,164.400 2.400 C 164.400 2.620,163.511 2.800,162.424 2.800 C 161.337 2.800,160.336 2.980,160.200 3.200 C 160.064 3.420,159.254 3.600,158.400 3.600 C 157.546 3.600,156.736 3.780,156.600 4.000 C 156.464 4.220,155.553 4.400,154.576 4.400 C 153.599 4.400,152.800 4.580,152.800 4.800 C 152.800 5.020,152.181 5.200,151.424 5.200 C 150.667 5.200,149.936 5.380,149.800 5.600 C 149.664 5.820,148.944 6.000,148.200 6.000 C 147.456 6.000,146.736 6.180,146.600 6.400 C 146.464 6.620,145.823 6.800,145.176 6.800 C 144.529 6.800,144.000 6.980,144.000 7.200 C 144.000 7.420,143.370 7.600,142.600 7.600 C 141.830 7.600,141.200 7.780,141.200 8.000 C 141.200 8.220,140.660 8.400,140.000 8.400 C 139.340 8.400,138.800 8.580,138.800 8.800 C 138.800 9.020,138.260 9.200,137.600 9.200 C 136.940 9.200,136.400 9.356,136.400 9.546 C 136.400 9.736,135.563 10.006,134.540 10.146 C 133.518 10.286,132.483 10.543,132.240 10.717 C 131.998 10.891,131.080 11.263,130.200 11.543 C 128.523 12.077,127.074 12.652,125.905 13.247 C 125.523 13.441,124.938 13.600,124.605 13.600 C 124.272 13.600,124.000 13.747,124.000 13.928 C 124.000 14.108,123.100 14.500,122.000 14.800 C 120.900 15.100,120.000 15.492,120.000 15.672 C 120.000 15.853,119.640 16.000,119.200 16.000 C 118.760 16.000,118.400 16.180,118.400 16.400 C 118.400 16.620,118.051 16.800,117.624 16.800 C 117.197 16.800,116.736 16.980,116.600 17.200 C 116.464 17.420,116.003 17.600,115.576 17.600 C 115.149 17.600,114.800 17.780,114.800 18.000 C 114.800 18.220,114.566 18.400,114.280 18.400 C 113.544 18.400,111.607 19.341,111.603 19.700 C 111.601 19.865,111.240 20.000,110.800 20.000 C 110.360 20.000,110.000 20.180,110.000 20.400 C 110.000 20.620,109.640 20.800,109.200 20.800 C 108.760 20.800,108.400 20.980,108.400 21.200 C 108.400 21.420,108.055 21.600,107.633 21.600 C 107.212 21.600,106.807 21.735,106.733 21.900 C 106.660 22.065,105.745 22.633,104.700 23.163 C 103.655 23.692,102.800 24.277,102.800 24.463 C 102.800 24.648,102.440 24.800,102.000 24.800 C 101.560 24.800,101.200 24.980,101.200 25.200 C 101.200 25.420,100.840 25.600,100.400 25.600 C 99.960 25.600,99.600 25.780,99.600 26.000 C 99.600 26.220,99.330 26.400,99.000 26.400 C 98.670 26.400,98.400 26.560,98.400 26.757 C 98.400 26.953,97.932 27.231,97.360 27.374 C 96.487 27.593,94.324 28.874,93.600 29.601 C 93.490 29.711,92.905 30.056,92.300 30.368 C 91.695 30.680,91.200 31.085,91.200 31.268 C 91.200 31.450,90.880 31.600,90.488 31.600 C 90.097 31.600,89.517 31.960,89.200 32.400 C 88.883 32.840,88.343 33.200,88.000 33.200 C 87.657 33.200,87.117 33.560,86.800 34.000 C 86.483 34.440,86.020 34.800,85.771 34.800 C 85.522 34.800,84.754 35.340,84.063 36.000 C 83.372 36.660,82.575 37.200,82.292 37.200 C 82.009 37.200,81.517 37.560,81.200 38.000 C 80.883 38.440,80.428 38.800,80.190 38.800 C 79.951 38.800,79.046 39.434,78.178 40.208 C 77.310 40.983,76.109 42.056,75.509 42.593 C 74.909 43.130,73.903 43.836,73.273 44.162 C 72.643 44.488,71.231 45.620,70.136 46.677 C 69.041 47.735,67.527 49.043,66.772 49.584 C 66.017 50.125,64.230 51.793,62.800 53.291 C 60.199 56.016,58.934 57.286,52.590 63.544 C 50.726 65.384,49.200 67.028,49.200 67.199 C 49.200 67.369,48.199 68.564,46.975 69.854 C 45.751 71.144,44.485 72.699,44.160 73.309 C 43.835 73.919,43.130 74.909,42.593 75.509 C 42.056 76.109,40.983 77.310,40.208 78.178 C 39.434 79.046,38.800 79.951,38.800 80.190 C 38.800 80.428,38.440 80.883,38.000 81.200 C 37.560 81.517,37.200 81.962,37.199 82.188 C 37.199 82.415,36.659 83.230,36.000 84.000 C 35.341 84.770,34.801 85.585,34.801 85.812 C 34.800 86.038,34.440 86.483,34.000 86.800 C 33.560 87.117,33.200 87.657,33.200 88.000 C 33.200 88.343,32.840 88.883,32.400 89.200 C 31.960 89.517,31.600 90.097,31.600 90.488 C 31.600 90.880,31.450 91.200,31.268 91.200 C 31.085 91.200,30.680 91.695,30.368 92.300 C 30.056 92.905,29.711 93.490,29.601 93.600 C 29.058 94.141,27.695 96.383,26.990 97.895 C 26.556 98.828,26.065 99.593,25.900 99.595 C 25.735 99.598,25.600 99.960,25.600 100.400 C 25.600 100.840,25.420 101.200,25.200 101.200 C 24.980 101.200,24.800 101.478,24.800 101.817 C 24.800 102.156,24.440 102.820,24.000 103.292 C 23.560 103.764,23.200 104.387,23.200 104.675 C 23.200 104.964,23.020 105.200,22.800 105.200 C 22.580 105.200,22.400 105.560,22.400 106.000 C 22.400 106.440,22.220 106.800,22.000 106.800 C 21.780 106.800,21.600 107.160,21.600 107.600 C 21.600 108.040,21.420 108.400,21.200 108.400 C 20.980 108.400,20.800 108.760,20.800 109.200 C 20.800 109.640,20.620 110.000,20.400 110.000 C 20.180 110.000,20.000 110.360,20.000 110.800 C 20.000 111.240,19.865 111.601,19.700 111.603 C 19.341 111.607,18.400 113.544,18.400 114.280 C 18.400 114.566,18.220 114.800,18.000 114.800 C 17.780 114.800,17.600 115.149,17.600 115.576 C 17.600 116.003,17.420 116.464,17.200 116.600 C 16.980 116.736,16.800 117.197,16.800 117.624 C 16.800 118.051,16.620 118.400,16.400 118.400 C 16.180 118.400,16.000 118.760,16.000 119.200 C 16.000 119.640,15.820 120.000,15.600 120.000 C 15.380 120.000,15.200 120.349,15.200 120.776 C 15.200 121.203,15.020 121.664,14.800 121.800 C 14.580 121.936,14.400 122.487,14.400 123.024 C 14.400 123.561,14.220 124.000,14.000 124.000 C 13.780 124.000,13.600 124.272,13.600 124.605 C 13.600 124.938,13.441 125.523,13.247 125.905 C 12.044 128.270,10.355 133.027,10.125 134.700 C 9.997 135.635,9.736 136.400,9.546 136.400 C 9.356 136.400,9.200 136.940,9.200 137.600 C 9.200 138.260,9.020 138.800,8.800 138.800 C 8.580 138.800,8.400 139.340,8.400 140.000 C 8.400 140.660,8.220 141.200,8.000 141.200 C 7.780 141.200,7.600 141.830,7.600 142.600 C 7.600 143.370,7.420 144.000,7.200 144.000 C 6.980 144.000,6.800 144.630,6.800 145.400 C 6.800 146.170,6.620 146.800,6.400 146.800 C 6.180 146.800,6.000 147.430,6.000 148.200 C 6.000 148.970,5.820 149.600,5.600 149.600 C 5.380 149.600,5.200 150.320,5.200 151.200 C 5.200 152.080,5.020 152.800,4.800 152.800 C 4.580 152.800,4.400 153.599,4.400 154.576 C 4.400 155.553,4.220 156.464,4.000 156.600 C 3.780 156.736,3.600 157.557,3.600 158.424 C 3.600 159.291,3.420 160.000,3.200 160.000 C 2.980 160.000,2.800 160.889,2.800 161.976 C 2.800 163.063,2.620 164.064,2.400 164.200 C 2.180 164.336,2.000 165.416,2.000 166.600 C 2.000 167.784,1.820 168.864,1.600 169.000 C 1.380 169.136,1.200 170.482,1.200 171.990 C 1.200 173.829,1.035 174.788,0.700 174.900 C -0.032 175.144,-0.032 224.856,0.700 225.100 C 1.035 225.212,1.200 226.171,1.200 228.010 C 1.200 229.518,1.380 230.864,1.600 231.000 C 1.820 231.136,2.000 232.216,2.000 233.400 C 2.000 234.584,2.180 235.664,2.400 235.800 C 2.620 235.936,2.800 236.937,2.800 238.024 C 2.800 239.111,2.980 240.000,3.200 240.000 C 3.420 240.000,3.600 240.709,3.600 241.576 C 3.600 242.443,3.780 243.264,4.000 243.400 C 4.220 243.536,4.400 244.447,4.400 245.424 C 4.400 246.401,4.580 247.200,4.800 247.200 C 5.020 247.200,5.200 247.920,5.200 248.800 C 5.200 249.680,5.380 250.400,5.600 250.400 C 5.820 250.400,6.000 251.019,6.000 251.776 C 6.000 252.533,6.180 253.264,6.400 253.400 C 6.620 253.536,6.800 254.177,6.800 254.824 C 6.800 255.471,6.980 256.000,7.200 256.000 C 7.420 256.000,7.600 256.630,7.600 257.400 C 7.600 258.170,7.780 258.800,8.000 258.800 C 8.220 258.800,8.400 259.340,8.400 260.000 C 8.400 260.660,8.580 261.200,8.800 261.200 C 9.020 261.200,9.200 261.740,9.200 262.400 C 9.200 263.060,9.380 263.600,9.600 263.600 C 9.820 263.600,10.000 264.044,10.000 264.586 C 10.000 265.490,10.768 268.242,11.567 270.200 C 12.422 272.297,12.923 273.458,13.247 274.095 C 13.441 274.477,13.600 275.062,13.600 275.395 C 13.600 275.728,13.780 276.000,14.000 276.000 C 14.220 276.000,14.400 276.439,14.400 276.976 C 14.400 277.513,14.580 278.064,14.800 278.200 C 15.020 278.336,15.200 278.797,15.200 279.224 C 15.200 279.651,15.380 280.000,15.600 280.000 C 15.820 280.000,16.000 280.360,16.000 280.800 C 16.000 281.240,16.180 281.600,16.400 281.600 C 16.620 281.600,16.800 281.853,16.800 282.162 C 16.800 282.471,17.139 283.416,17.553 284.262 C 17.967 285.108,18.732 286.700,19.253 287.800 C 19.774 288.900,20.335 289.860,20.500 289.933 C 20.665 290.007,20.800 290.412,20.800 290.833 C 20.800 291.255,20.980 291.600,21.200 291.600 C 21.420 291.600,21.600 291.945,21.600 292.367 C 21.600 292.788,21.735 293.193,21.900 293.267 C 22.065 293.340,22.633 294.255,23.163 295.300 C 23.692 296.345,24.277 297.200,24.463 297.200 C 24.648 297.200,24.800 297.560,24.800 298.000 C 24.800 298.440,24.980 298.800,25.200 298.800 C 25.420 298.800,25.600 299.078,25.600 299.417 C 25.600 299.756,25.945 300.404,26.367 300.856 C 26.788 301.309,27.248 302.135,27.387 302.692 C 27.654 303.755,30.708 308.504,31.272 308.733 C 31.453 308.807,31.600 309.172,31.600 309.545 C 31.600 309.918,31.960 310.483,32.400 310.800 C 32.840 311.117,33.200 311.657,33.200 312.000 C 33.200 312.343,33.560 312.883,34.000 313.200 C 34.440 313.517,34.800 313.962,34.801 314.188 C 34.801 314.415,35.341 315.230,36.000 316.000 C 36.659 316.770,37.199 317.585,37.199 317.812 C 37.200 318.038,37.560 318.483,38.000 318.800 C 38.440 319.117,38.800 319.572,38.800 319.810 C 38.800 320.049,39.385 320.902,40.100 321.706 C 42.213 324.081,43.513 325.706,44.572 327.295 C 45.121 328.118,46.386 329.607,47.385 330.606 C 48.383 331.604,49.200 332.580,49.200 332.773 C 49.200 332.967,51.085 334.988,53.388 337.263 C 58.024 341.843,58.637 342.454,63.758 347.615 C 65.715 349.587,67.482 351.200,67.684 351.200 C 67.886 351.200,68.929 352.100,70.000 353.200 C 71.071 354.300,72.102 355.200,72.290 355.200 C 72.478 355.200,73.428 355.920,74.400 356.800 C 75.372 357.680,76.328 358.400,76.524 358.400 C 76.720 358.400,77.510 359.030,78.280 359.800 C 79.050 360.570,79.892 361.200,80.152 361.200 C 80.411 361.200,80.883 361.560,81.200 362.000 C 81.517 362.440,82.009 362.800,82.292 362.800 C 82.575 362.800,83.372 363.340,84.063 364.000 C 84.754 364.660,85.522 365.200,85.771 365.200 C 86.020 365.200,86.483 365.560,86.800 366.000 C 87.117 366.440,87.657 366.800,88.000 366.800 C 88.343 366.800,88.883 367.160,89.200 367.600 C 89.517 368.040,90.057 368.400,90.400 368.400 C 90.743 368.400,91.283 368.760,91.600 369.200 C 91.917 369.640,92.414 370.000,92.705 370.000 C 92.996 370.000,93.589 370.331,94.023 370.736 C 94.458 371.141,95.305 371.720,95.907 372.024 C 96.508 372.327,97.757 373.079,98.681 373.694 C 99.606 374.309,100.911 374.922,101.581 375.056 C 102.252 375.190,102.800 375.457,102.800 375.650 C 102.800 375.843,103.070 376.000,103.400 376.000 C 103.730 376.000,104.000 376.146,104.000 376.325 C 104.000 376.504,104.630 376.898,105.400 377.200 C 106.170 377.502,106.800 377.896,106.800 378.075 C 106.800 378.254,107.160 378.400,107.600 378.400 C 108.040 378.400,108.400 378.580,108.400 378.800 C 108.400 379.020,108.760 379.200,109.200 379.200 C 109.640 379.200,110.000 379.380,110.000 379.600 C 110.000 379.820,110.360 380.000,110.800 380.000 C 111.240 380.000,111.600 380.180,111.600 380.400 C 111.600 380.620,111.960 380.800,112.400 380.800 C 112.840 380.800,113.200 380.980,113.200 381.200 C 113.200 381.420,113.549 381.600,113.976 381.600 C 114.403 381.600,114.864 381.780,115.000 382.000 C 115.136 382.220,115.597 382.400,116.024 382.400 C 116.451 382.400,116.800 382.580,116.800 382.800 C 116.800 383.020,117.160 383.200,117.600 383.200 C 118.040 383.200,118.400 383.380,118.400 383.600 C 118.400 383.820,118.760 384.000,119.200 384.000 C 119.640 384.000,120.000 384.180,120.000 384.400 C 120.000 384.620,120.349 384.800,120.776 384.800 C 121.203 384.800,121.664 384.980,121.800 385.200 C 121.936 385.420,122.487 385.600,123.024 385.600 C 123.561 385.600,124.000 385.780,124.000 386.000 C 124.000 386.220,124.360 386.400,124.800 386.400 C 125.240 386.400,125.600 386.580,125.600 386.800 C 125.600 387.020,126.039 387.200,126.576 387.200 C 127.113 387.200,127.664 387.380,127.800 387.600 C 127.936 387.820,128.487 388.000,129.024 388.000 C 129.561 388.000,130.000 388.180,130.000 388.400 C 130.000 388.620,130.362 388.800,130.805 388.800 C 131.248 388.800,131.923 388.976,132.305 389.191 C 133.508 389.868,139.174 391.600,140.185 391.600 C 140.717 391.600,141.264 391.780,141.400 392.000 C 141.536 392.220,142.177 392.400,142.824 392.400 C 143.471 392.400,144.000 392.580,144.000 392.800 C 144.000 393.020,144.630 393.200,145.400 393.200 C 146.170 393.200,146.800 393.380,146.800 393.600 C 146.800 393.820,147.419 394.000,148.176 394.000 C 148.933 394.000,149.664 394.180,149.800 394.400 C 149.936 394.620,150.667 394.800,151.424 394.800 C 152.181 394.800,152.800 394.980,152.800 395.200 C 152.800 395.420,153.599 395.600,154.576 395.600 C 155.553 395.600,156.464 395.780,156.600 396.000 C 156.736 396.220,157.546 396.400,158.400 396.400 C 159.254 396.400,160.064 396.580,160.200 396.800 C 160.336 397.020,161.337 397.200,162.424 397.200 C 163.511 397.200,164.400 397.380,164.400 397.600 C 164.400 397.822,165.467 398.000,166.800 398.000 C 168.133 398.000,169.200 398.178,169.200 398.400 C 169.200 398.628,170.389 398.800,171.967 398.800 C 173.824 398.800,174.788 398.964,174.900 399.300 C 175.144 400.032,224.856 400.032,225.100 399.300 C 225.212 398.964,226.176 398.800,228.033 398.800 C 229.611 398.800,230.800 398.628,230.800 398.400 C 230.800 398.178,231.859 398.000,233.176 398.000 C 234.483 398.000,235.664 397.820,235.800 397.600 C 235.936 397.380,236.937 397.200,238.024 397.200 C 239.111 397.200,240.000 397.020,240.000 396.800 C 240.000 396.580,240.720 396.400,241.600 396.400 C 242.480 396.400,243.200 396.220,243.200 396.000 C 243.200 395.780,244.100 395.600,245.200 395.600 C 246.300 395.600,247.200 395.420,247.200 395.200 C 247.200 394.980,247.920 394.800,248.800 394.800 C 249.680 394.800,250.400 394.620,250.400 394.400 C 250.400 394.180,251.019 394.000,251.776 394.000 C 252.533 394.000,253.264 393.820,253.400 393.600 C 253.536 393.380,254.177 393.200,254.824 393.200 C 255.471 393.200,256.000 393.020,256.000 392.800 C 256.000 392.580,256.630 392.400,257.400 392.400 C 258.170 392.400,258.800 392.243,258.800 392.052 C 258.800 391.860,259.741 391.578,260.890 391.426 C 262.040 391.273,263.165 391.013,263.390 390.846 C 263.616 390.680,264.610 390.314,265.600 390.033 C 266.590 389.752,267.713 389.360,268.095 389.161 C 268.477 388.962,269.062 388.800,269.395 388.800 C 269.728 388.800,270.000 388.620,270.000 388.400 C 270.000 388.180,270.439 388.000,270.976 388.000 C 271.513 388.000,272.064 387.820,272.200 387.600 C 272.336 387.380,272.887 387.200,273.424 387.200 C 273.961 387.200,274.400 387.020,274.400 386.800 C 274.400 386.580,274.760 386.400,275.200 386.400 C 275.640 386.400,276.000 386.220,276.000 386.000 C 276.000 385.780,276.439 385.600,276.976 385.600 C 277.513 385.600,278.064 385.420,278.200 385.200 C 278.336 384.980,278.797 384.800,279.224 384.800 C 279.651 384.800,280.000 384.620,280.000 384.400 C 280.000 384.180,280.360 384.000,280.800 384.000 C 281.240 384.000,281.600 383.820,281.600 383.600 C 281.600 383.380,281.960 383.200,282.400 383.200 C 282.840 383.200,283.200 383.020,283.200 382.800 C 283.200 382.580,283.535 382.400,283.944 382.400 C 284.746 382.400,289.713 379.995,289.933 379.500 C 290.007 379.335,290.412 379.200,290.833 379.200 C 291.255 379.200,291.600 379.020,291.600 378.800 C 291.600 378.580,291.960 378.400,292.400 378.400 C 292.840 378.400,293.200 378.220,293.200 378.000 C 293.200 377.780,293.478 377.600,293.817 377.600 C 294.156 377.600,294.820 377.240,295.292 376.800 C 295.764 376.360,296.387 376.000,296.675 376.000 C 296.964 376.000,297.200 375.820,297.200 375.600 C 297.200 375.380,297.479 375.200,297.820 375.200 C 298.442 375.200,300.825 374.102,301.200 373.644 C 301.310 373.509,301.940 373.134,302.600 372.810 C 304.261 371.995,308.571 369.127,308.733 368.728 C 308.807 368.547,309.172 368.400,309.545 368.400 C 309.918 368.400,310.483 368.040,310.800 367.600 C 311.117 367.160,311.657 366.800,312.000 366.800 C 312.343 366.800,312.883 366.440,313.200 366.000 C 313.517 365.560,314.009 365.200,314.292 365.200 C 314.575 365.200,315.372 364.660,316.063 364.000 C 316.754 363.340,317.522 362.800,317.771 362.800 C 318.020 362.800,318.483 362.440,318.800 362.000 C 319.117 361.560,319.572 361.200,319.810 361.200 C 320.049 361.200,320.931 360.570,321.772 359.800 C 322.613 359.030,323.423 358.400,323.572 358.400 C 323.721 358.400,324.531 357.770,325.372 357.000 C 326.213 356.230,327.054 355.600,327.242 355.600 C 327.429 355.600,328.573 354.610,329.783 353.400 C 330.993 352.190,332.157 351.200,332.371 351.200 C 332.584 351.200,334.703 349.230,337.079 346.821 C 342.316 341.514,341.514 342.316,346.821 337.079 C 349.230 334.703,351.200 332.584,351.200 332.371 C 351.200 332.157,352.190 330.993,353.400 329.783 C 354.610 328.573,355.600 327.429,355.600 327.242 C 355.600 327.054,356.230 326.213,357.000 325.372 C 357.770 324.531,358.400 323.721,358.400 323.572 C 358.400 323.423,359.030 322.613,359.800 321.772 C 360.570 320.931,361.200 320.049,361.200 319.810 C 361.200 319.572,361.560 319.117,362.000 318.800 C 362.440 318.483,362.800 318.038,362.801 317.812 C 362.801 317.585,363.341 316.770,364.000 316.000 C 364.659 315.230,365.199 314.415,365.199 314.188 C 365.200 313.962,365.560 313.517,366.000 313.200 C 366.440 312.883,366.800 312.343,366.800 312.000 C 366.800 311.657,367.160 311.117,367.600 310.800 C 368.040 310.483,368.400 309.918,368.400 309.545 C 368.400 309.172,368.547 308.807,368.728 308.733 C 369.127 308.571,371.995 304.261,372.810 302.600 C 373.134 301.940,373.509 301.310,373.644 301.200 C 374.032 300.882,375.200 298.484,375.200 298.003 C 375.200 297.763,375.560 297.180,376.000 296.708 C 376.440 296.236,376.800 295.613,376.800 295.325 C 376.800 295.036,376.980 294.800,377.200 294.800 C 377.420 294.800,377.600 294.440,377.600 294.000 C 377.600 293.560,377.780 293.200,378.000 293.200 C 378.220 293.200,378.400 292.840,378.400 292.400 C 378.400 291.960,378.580 291.600,378.800 291.600 C 379.020 291.600,379.200 291.255,379.200 290.833 C 379.200 290.412,379.336 290.007,379.502 289.933 C 379.668 289.860,380.407 288.540,381.144 287.000 C 381.881 285.460,382.645 283.887,382.842 283.505 C 383.039 283.123,383.200 282.538,383.200 282.205 C 383.200 281.872,383.380 281.600,383.600 281.600 C 383.820 281.600,384.000 281.240,384.000 280.800 C 384.000 280.360,384.180 280.000,384.400 280.000 C 384.620 280.000,384.800 279.651,384.800 279.224 C 384.800 278.797,384.980 278.336,385.200 278.200 C 385.420 278.064,385.600 277.513,385.600 276.976 C 385.600 276.439,385.780 276.000,386.000 276.000 C 386.220 276.000,386.400 275.640,386.400 275.200 C 386.400 274.760,386.580 274.400,386.800 274.400 C 387.020 274.400,387.200 274.038,387.200 273.595 C 387.200 273.152,387.359 272.477,387.553 272.095 C 388.426 270.380,389.350 267.953,390.026 265.600 C 390.311 264.610,390.680 263.616,390.846 263.390 C 391.013 263.165,391.273 262.040,391.426 260.890 C 391.578 259.741,391.860 258.800,392.052 258.800 C 392.243 258.800,392.400 258.170,392.400 257.400 C 392.400 256.630,392.580 256.000,392.800 256.000 C 393.020 256.000,393.200 255.471,393.200 254.824 C 393.200 254.177,393.380 253.536,393.600 253.400 C 393.820 253.264,394.000 252.533,394.000 251.776 C 394.000 251.019,394.180 250.400,394.400 250.400 C 394.620 250.400,394.800 249.680,394.800 248.800 C 394.800 247.920,394.980 247.200,395.200 247.200 C 395.420 247.200,395.600 246.401,395.600 245.424 C 395.600 244.447,395.780 243.536,396.000 243.400 C 396.220 243.264,396.400 242.443,396.400 241.576 C 396.400 240.709,396.580 240.000,396.800 240.000 C 397.020 240.000,397.200 239.111,397.200 238.024 C 397.200 236.937,397.380 235.936,397.600 235.800 C 397.820 235.664,398.000 234.483,398.000 233.176 C 398.000 231.859,398.178 230.800,398.400 230.800 C 398.628 230.800,398.800 229.611,398.800 228.033 C 398.800 226.176,398.964 225.212,399.300 225.100 C 399.693 224.969,399.800 219.591,399.800 200.000 C 399.800 180.409,399.693 175.031,399.300 174.900 C 398.964 174.788,398.800 173.824,398.800 171.967 C 398.800 170.389,398.628 169.200,398.400 169.200 C 398.178 169.200,398.000 168.141,398.000 166.824 C 398.000 165.517,397.820 164.336,397.600 164.200 C 397.380 164.064,397.200 163.063,397.200 161.976 C 397.200 160.889,397.020 160.000,396.800 160.000 C 396.580 160.000,396.400 159.291,396.400 158.424 C 396.400 157.557,396.220 156.736,396.000 156.600 C 395.780 156.464,395.600 155.553,395.600 154.576 C 395.600 153.599,395.420 152.800,395.200 152.800 C 394.980 152.800,394.800 152.080,394.800 151.200 C 394.800 150.320,394.620 149.600,394.400 149.600 C 394.180 149.600,394.000 148.970,394.000 148.200 C 394.000 147.430,393.820 146.800,393.600 146.800 C 393.380 146.800,393.200 146.170,393.200 145.400 C 393.200 144.630,393.020 144.000,392.800 144.000 C 392.580 144.000,392.400 143.370,392.400 142.600 C 392.400 141.830,392.243 141.200,392.052 141.200 C 391.860 141.200,391.578 140.259,391.426 139.110 C 391.273 137.960,391.013 136.835,390.846 136.610 C 390.680 136.384,390.311 135.390,390.026 134.400 C 389.350 132.047,388.426 129.620,387.553 127.905 C 387.359 127.523,387.200 126.848,387.200 126.405 C 387.200 125.962,387.020 125.600,386.800 125.600 C 386.580 125.600,386.400 125.240,386.400 124.800 C 386.400 124.360,386.220 124.000,386.000 124.000 C 385.780 124.000,385.600 123.561,385.600 123.024 C 385.600 122.487,385.420 121.936,385.200 121.800 C 384.980 121.664,384.800 121.203,384.800 120.776 C 384.800 120.349,384.620 120.000,384.400 120.000 C 384.180 120.000,384.000 119.640,384.000 119.200 C 384.000 118.760,383.820 118.400,383.600 118.400 C 383.380 118.400,383.200 118.040,383.200 117.600 C 383.200 117.160,383.020 116.800,382.800 116.800 C 382.580 116.800,382.400 116.528,382.400 116.195 C 382.400 115.862,382.232 115.277,382.026 114.895 C 381.821 114.513,381.417 113.615,381.129 112.900 C 380.840 112.185,380.469 111.600,380.302 111.600 C 380.136 111.600,380.000 111.240,380.000 110.800 C 380.000 110.360,379.820 110.000,379.600 110.000 C 379.380 110.000,379.200 109.640,379.200 109.200 C 379.200 108.760,379.020 108.400,378.800 108.400 C 378.580 108.400,378.400 108.040,378.400 107.600 C 378.400 107.160,378.220 106.800,378.000 106.800 C 377.780 106.800,377.600 106.440,377.600 106.000 C 377.600 105.560,377.420 105.200,377.200 105.200 C 376.980 105.200,376.800 104.930,376.800 104.600 C 376.800 104.270,376.620 104.000,376.400 104.000 C 376.180 104.000,376.000 103.730,376.000 103.400 C 376.000 103.070,375.843 102.800,375.650 102.800 C 375.457 102.800,375.190 102.252,375.056 101.581 C 374.922 100.911,374.309 99.606,373.694 98.681 C 373.079 97.757,372.327 96.508,372.024 95.907 C 371.720 95.305,371.141 94.458,370.736 94.023 C 370.331 93.589,370.000 92.996,370.000 92.705 C 370.000 92.414,369.640 91.917,369.200 91.600 C 368.760 91.283,368.400 90.743,368.400 90.400 C 368.400 90.057,368.040 89.517,367.600 89.200 C 367.160 88.883,366.800 88.343,366.800 88.000 C 366.800 87.657,366.440 87.117,366.000 86.800 C 365.560 86.483,365.200 86.038,365.199 85.812 C 365.199 85.585,364.659 84.770,364.000 84.000 C 363.341 83.230,362.801 82.415,362.801 82.188 C 362.800 81.962,362.440 81.517,362.000 81.200 C 361.560 80.883,361.200 80.428,361.200 80.190 C 361.200 79.951,360.570 79.069,359.800 78.228 C 359.030 77.387,358.400 76.577,358.400 76.428 C 358.400 76.279,357.770 75.469,357.000 74.628 C 356.230 73.787,355.600 72.946,355.600 72.758 C 355.600 72.571,354.610 71.427,353.400 70.217 C 352.190 69.007,351.200 67.860,351.200 67.667 C 351.200 67.474,349.587 65.715,347.615 63.758 C 342.956 59.134,342.222 58.400,337.050 53.186 C 334.658 50.774,332.529 48.800,332.319 48.800 C 332.109 48.800,331.257 48.092,330.425 47.227 C 329.594 46.361,328.213 45.186,327.357 44.614 C 325.709 43.515,324.100 42.230,321.706 40.100 C 320.902 39.385,320.049 38.800,319.810 38.800 C 319.572 38.800,319.117 38.440,318.800 38.000 C 318.483 37.560,318.038 37.200,317.812 37.199 C 317.585 37.199,316.770 36.659,316.000 36.000 C 315.230 35.341,314.415 34.801,314.188 34.801 C 313.962 34.800,313.517 34.440,313.200 34.000 C 312.883 33.560,312.343 33.200,312.000 33.200 C 311.657 33.200,311.117 32.840,310.800 32.400 C 310.483 31.960,309.918 31.600,309.545 31.600 C 309.172 31.600,308.807 31.453,308.733 31.272 C 308.499 30.697,303.745 27.652,302.653 27.377 C 302.074 27.232,301.600 26.953,301.600 26.757 C 301.600 26.560,301.330 26.400,301.000 26.400 C 300.670 26.400,300.400 26.220,300.400 26.000 C 300.400 25.780,300.040 25.600,299.600 25.600 C 299.160 25.600,298.800 25.420,298.800 25.200 C 298.800 24.980,298.522 24.800,298.183 24.800 C 297.844 24.800,297.180 24.440,296.708 24.000 C 296.236 23.560,295.613 23.200,295.325 23.200 C 295.036 23.200,294.800 23.020,294.800 22.800 C 294.800 22.580,294.440 22.400,294.000 22.400 C 293.560 22.400,293.200 22.220,293.200 22.000 C 293.200 21.780,292.840 21.600,292.400 21.600 C 291.960 21.600,291.600 21.420,291.600 21.200 C 291.600 20.980,291.255 20.800,290.833 20.800 C 290.412 20.800,290.007 20.664,289.933 20.498 C 289.860 20.332,288.540 19.593,287.000 18.856 C 285.460 18.119,283.887 17.355,283.505 17.158 C 283.123 16.961,282.538 16.800,282.205 16.800 C 281.872 16.800,281.600 16.620,281.600 16.400 C 281.600 16.180,281.240 16.000,280.800 16.000 C 280.360 16.000,280.000 15.820,280.000 15.600 C 280.000 15.380,279.651 15.200,279.224 15.200 C 278.797 15.200,278.336 15.020,278.200 14.800 C 278.064 14.580,277.513 14.400,276.976 14.400 C 276.439 14.400,276.000 14.220,276.000 14.000 C 276.000 13.780,275.728 13.600,275.395 13.600 C 275.062 13.600,274.477 13.441,274.095 13.247 C 273.713 13.052,272.950 12.716,272.400 12.500 C 271.850 12.284,270.950 11.912,270.400 11.674 C 268.469 10.837,265.562 10.000,264.586 10.000 C 264.044 10.000,263.600 9.820,263.600 9.600 C 263.600 9.380,263.060 9.200,262.400 9.200 C 261.740 9.200,261.200 9.020,261.200 8.800 C 261.200 8.580,260.660 8.400,260.000 8.400 C 259.340 8.400,258.800 8.220,258.800 8.000 C 258.800 7.780,258.170 7.600,257.400 7.600 C 256.630 7.600,256.000 7.420,256.000 7.200 C 256.000 6.980,255.471 6.800,254.824 6.800 C 254.177 6.800,253.536 6.620,253.400 6.400 C 253.264 6.180,252.533 6.000,251.776 6.000 C 251.019 6.000,250.400 5.820,250.400 5.600 C 250.400 5.380,249.680 5.200,248.800 5.200 C 247.920 5.200,247.200 5.020,247.200 4.800 C 247.200 4.580,246.401 4.400,245.424 4.400 C 244.447 4.400,243.536 4.220,243.400 4.000 C 243.264 3.780,242.443 3.600,241.576 3.600 C 240.709 3.600,240.000 3.420,240.000 3.200 C 240.000 2.980,239.111 2.800,238.024 2.800 C 236.937 2.800,235.936 2.620,235.800 2.400 C 235.664 2.180,234.584 2.000,233.400 2.000 C 232.216 2.000,231.136 1.820,231.000 1.600 C 230.864 1.380,229.518 1.200,228.010 1.200 C 226.196 1.200,225.211 1.033,225.103 0.708 C 224.941 0.223,187.959 -0.121,178.500 0.275 M205.498 83.569 C 205.884 83.777,206.785 84.183,207.500 84.471 C 208.215 84.760,208.800 85.131,208.800 85.298 C 208.800 85.464,209.066 85.600,209.392 85.600 C 210.045 85.600,280.800 156.177,280.800 156.828 C 280.800 157.051,281.160 157.620,281.600 158.092 C 282.040 158.564,282.400 159.266,282.400 159.652 C 282.400 160.037,282.580 160.464,282.800 160.600 C 283.020 160.736,283.200 161.341,283.200 161.944 C 283.200 162.547,283.395 163.235,283.633 163.473 C 284.356 164.196,283.547 172.800,282.756 172.800 C 282.560 172.800,282.400 173.072,282.400 173.405 C 282.400 175.331,276.735 181.600,274.995 181.600 C 274.668 181.600,274.400 181.780,274.400 182.000 C 274.400 182.220,274.040 182.400,273.600 182.400 C 273.160 182.400,272.800 182.560,272.800 182.756 C 272.800 183.567,268.579 183.728,243.700 183.866 L 217.600 184.011 217.600 241.882 C 217.600 298.455,217.522 302.530,216.384 305.400 C 215.295 308.147,214.972 308.800,214.702 308.800 C 214.536 308.800,214.400 309.058,214.400 309.374 C 214.400 310.121,210.121 314.400,209.374 314.400 C 209.058 314.400,208.800 314.536,208.800 314.702 C 208.800 314.972,208.106 315.315,205.400 316.383 C 202.357 317.583,197.079 317.570,194.705 316.355 C 194.323 316.160,193.738 316.000,193.405 316.000 C 193.072 316.000,192.800 315.820,192.800 315.600 C 192.800 315.380,192.440 315.200,192.000 315.200 C 191.560 315.200,191.200 315.020,191.200 314.800 C 191.200 314.580,190.942 314.400,190.626 314.400 C 189.879 314.400,185.600 310.121,185.600 309.374 C 185.600 309.058,185.464 308.800,185.298 308.800 C 185.131 308.800,184.760 308.215,184.471 307.500 C 184.183 306.785,183.734 305.840,183.474 305.400 C 183.116 304.795,182.973 289.878,182.891 244.300 L 182.782 184.000 156.920 184.000 C 131.639 184.000,129.825 183.923,127.505 182.751 C 127.123 182.558,126.538 182.400,126.205 182.400 C 125.872 182.400,125.600 182.220,125.600 182.000 C 125.600 181.780,125.364 181.600,125.075 181.600 C 124.787 181.600,124.164 181.240,123.692 180.800 C 123.220 180.360,122.660 180.000,122.448 180.000 C 121.909 180.000,119.310 176.898,118.706 175.532 C 118.430 174.909,118.069 174.400,117.902 174.400 C 117.736 174.400,117.600 174.076,117.600 173.680 C 117.600 173.284,117.449 172.789,117.264 172.580 C 116.133 171.299,115.789 166.098,116.603 162.600 C 117.008 160.860,118.487 157.600,118.871 157.600 C 119.052 157.600,119.200 157.352,119.200 157.048 C 119.200 156.342,189.304 86.209,190.731 85.487 C 191.319 85.190,192.160 84.755,192.600 84.520 C 194.159 83.688,195.415 83.226,196.600 83.048 C 198.426 82.773,204.704 83.141,205.498 83.569 " stroke="none" fill="#fc0404" fill-rule="evenodd"></path><path id="path2" d="" stroke="none" fill="#fc5353" fill-rule="evenodd"></path><path id="path3" d="M195.600 84.018 C 195.162 84.315,195.324 84.352,196.200 84.156 C 197.671 83.827,197.990 83.598,196.967 83.606 C 196.545 83.609,195.930 83.795,195.600 84.018 M202.433 83.744 C 202.525 83.823,203.140 84.008,203.800 84.156 C 204.676 84.352,204.838 84.315,204.400 84.018 C 203.860 83.653,202.032 83.398,202.433 83.744 M154.293 122.314 C 134.772 141.847,118.809 158.092,118.821 158.414 C 118.834 158.773,119.093 158.613,119.490 158.000 C 119.847 157.450,135.901 141.205,155.166 121.900 C 174.431 102.595,190.102 86.800,189.990 86.800 C 189.877 86.800,173.814 102.781,154.293 122.314 M212.177 89.099 C 213.485 90.463,214.628 91.506,214.717 91.416 C 214.888 91.245,212.967 89.291,210.974 87.609 C 210.328 87.064,210.870 87.734,212.177 89.099 M229.390 106.390 C 230.690 107.704,231.827 108.707,231.915 108.619 C 232.117 108.417,227.724 104.000,227.321 104.000 C 227.158 104.000,228.089 105.075,229.390 106.390 M245.790 122.790 C 247.090 124.104,248.227 125.107,248.315 125.019 C 248.517 124.817,244.124 120.400,243.721 120.400 C 243.558 120.400,244.489 121.475,245.790 122.790 M262.190 139.190 C 263.490 140.504,264.627 141.507,264.715 141.419 C 264.917 141.217,260.524 136.800,260.121 136.800 C 259.958 136.800,260.889 137.875,262.190 139.190 M278.422 155.496 C 279.180 156.318,279.845 157.068,279.900 157.162 C 279.955 157.256,280.077 157.257,280.171 157.163 C 280.392 156.942,277.778 154.000,277.361 154.000 C 277.186 154.000,277.663 154.673,278.422 155.496 M282.937 166.600 C 282.939 168.360,283.009 169.030,283.093 168.089 C 283.178 167.149,283.177 165.709,283.091 164.889 C 283.005 164.070,282.936 164.840,282.937 166.600 M116.931 166.600 C 116.933 168.140,117.005 168.721,117.092 167.891 C 117.179 167.061,117.177 165.801,117.089 165.091 C 117.000 164.381,116.929 165.060,116.931 166.600 M278.086 178.254 C 277.583 178.774,277.330 179.200,277.524 179.200 C 277.948 179.200,279.397 177.655,279.164 177.451 C 279.074 177.372,278.589 177.733,278.086 178.254 M131.105 183.083 C 131.602 183.179,132.322 183.175,132.705 183.075 C 133.087 182.975,132.680 182.896,131.800 182.901 C 130.920 182.905,130.607 182.987,131.105 183.083 M267.505 183.083 C 268.002 183.179,268.722 183.175,269.105 183.075 C 269.487 182.975,269.080 182.896,268.200 182.901 C 267.320 182.905,267.007 182.987,267.505 183.083 M216.585 183.700 C 216.480 183.975,216.441 210.390,216.499 242.400 L 216.603 300.600 216.701 242.133 C 216.780 195.808,216.904 183.625,217.300 183.465 C 217.692 183.307,217.689 183.256,217.287 183.232 C 217.006 183.214,216.689 183.425,216.585 183.700 M183.606 303.033 C 183.609 303.455,183.795 304.070,184.018 304.400 C 184.315 304.838,184.352 304.676,184.156 303.800 C 183.827 302.329,183.598 302.010,183.606 303.033 M211.355 311.458 C 210.231 312.636,209.442 313.600,209.603 313.600 C 210.017 313.600,213.600 309.967,213.600 309.547 C 213.600 309.088,213.691 309.010,211.355 311.458 M188.200 311.600 C 189.059 312.480,189.852 313.200,189.962 313.200 C 190.072 313.200,189.459 312.480,188.600 311.600 C 187.741 310.720,186.948 310.000,186.838 310.000 C 186.728 310.000,187.341 310.720,188.200 311.600 M195.400 316.000 C 195.840 316.189,196.470 316.344,196.800 316.344 C 197.178 316.344,197.104 316.217,196.600 316.000 C 196.160 315.811,195.530 315.656,195.200 315.656 C 194.822 315.656,194.896 315.783,195.400 316.000 " stroke="none" fill="#fc8484" fill-rule="evenodd"></path><path id="path4" d="M199.100 83.482 C 199.595 83.578,200.405 83.578,200.900 83.482 C 201.395 83.387,200.990 83.309,200.000 83.309 C 199.010 83.309,198.605 83.387,199.100 83.482 M180.592 95.700 L 176.600 99.800 180.700 95.808 C 184.508 92.099,184.982 91.600,184.692 91.600 C 184.633 91.600,182.788 93.445,180.592 95.700 M174.400 101.800 C 173.428 102.790,172.723 103.600,172.833 103.600 C 172.943 103.600,173.828 102.790,174.800 101.800 C 175.772 100.810,176.477 100.000,176.367 100.000 C 176.257 100.000,175.372 100.810,174.400 101.800 M162.989 113.300 L 160.200 116.200 163.100 113.411 C 164.695 111.877,166.000 110.572,166.000 110.511 C 166.000 110.217,165.580 110.606,162.989 113.300 M151.600 124.600 C 150.628 125.590,149.923 126.400,150.033 126.400 C 150.143 126.400,151.028 125.590,152.000 124.600 C 152.972 123.610,153.677 122.800,153.567 122.800 C 153.457 122.800,152.572 123.610,151.600 124.600 M145.392 130.900 L 141.400 135.000 145.500 131.008 C 149.308 127.299,149.782 126.800,149.492 126.800 C 149.433 126.800,147.588 128.645,145.392 130.900 M130.592 145.700 L 126.600 149.800 130.700 145.808 C 132.955 143.612,134.800 141.767,134.800 141.708 C 134.800 141.418,134.301 141.892,130.592 145.700 M124.400 151.800 C 123.428 152.790,122.723 153.600,122.833 153.600 C 122.943 153.600,123.828 152.790,124.800 151.800 C 125.772 150.810,126.477 150.000,126.367 150.000 C 126.257 150.000,125.372 150.810,124.400 151.800 M283.301 166.600 C 283.305 167.480,283.387 167.793,283.483 167.295 C 283.579 166.798,283.575 166.078,283.475 165.695 C 283.375 165.313,283.296 165.720,283.301 166.600 M144.500 183.500 C 151.485 183.561,162.915 183.561,169.900 183.500 C 176.885 183.439,171.170 183.388,157.200 183.388 C 143.230 183.388,137.515 183.439,144.500 183.500 M230.100 183.500 C 237.085 183.561,248.515 183.561,255.500 183.500 C 262.485 183.439,256.770 183.388,242.800 183.388 C 228.830 183.388,223.115 183.439,230.100 183.500 M183.395 242.800 C 183.395 275.250,183.442 288.525,183.500 272.300 C 183.558 256.075,183.558 229.525,183.500 213.300 C 183.442 197.075,183.395 210.350,183.395 242.800 " stroke="none" fill="#fc7c7c" fill-rule="evenodd"></path><path id="path5" d="M199.300 83.076 C 199.685 83.176,200.315 83.176,200.700 83.076 C 201.085 82.975,200.770 82.893,200.000 82.893 C 199.230 82.893,198.915 82.975,199.300 83.076 M213.800 90.000 C 215.550 91.760,217.071 93.200,217.181 93.200 C 217.291 93.200,215.950 91.760,214.200 90.000 C 212.450 88.240,210.929 86.800,210.819 86.800 C 210.709 86.800,212.050 88.240,213.800 90.000 M186.581 89.300 L 185.000 91.000 186.700 89.419 C 188.281 87.948,188.584 87.600,188.281 87.600 C 188.216 87.600,187.451 88.365,186.581 89.300 M171.389 104.500 L 168.600 107.400 171.500 104.611 C 174.194 102.020,174.583 101.600,174.289 101.600 C 174.228 101.600,172.923 102.905,171.389 104.500 M229.400 105.600 C 231.592 107.800,233.475 109.600,233.585 109.600 C 233.695 109.600,231.992 107.800,229.800 105.600 C 227.608 103.400,225.725 101.600,225.615 101.600 C 225.505 101.600,227.208 103.400,229.400 105.600 M154.189 121.700 L 151.400 124.600 154.300 121.811 C 156.994 119.220,157.383 118.800,157.089 118.800 C 157.028 118.800,155.723 120.105,154.189 121.700 M246.200 122.400 C 248.171 124.380,249.873 126.000,249.983 126.000 C 250.093 126.000,248.571 124.380,246.600 122.400 C 244.629 120.420,242.927 118.800,242.817 118.800 C 242.707 118.800,244.229 120.420,246.200 122.400 M137.789 138.100 L 135.000 141.000 137.900 138.211 C 140.594 135.620,140.983 135.200,140.689 135.200 C 140.628 135.200,139.323 136.505,137.789 138.100 M263.000 139.200 C 265.192 141.400,267.075 143.200,267.185 143.200 C 267.295 143.200,265.592 141.400,263.400 139.200 C 261.208 137.000,259.325 135.200,259.215 135.200 C 259.105 135.200,260.808 137.000,263.000 139.200 M122.400 153.400 C 121.428 154.390,120.723 155.200,120.833 155.200 C 120.943 155.200,121.828 154.390,122.800 153.400 C 123.772 152.410,124.477 151.600,124.367 151.600 C 124.257 151.600,123.372 152.410,122.400 153.400 M277.183 153.300 C 278.164 154.345,279.019 155.200,279.083 155.200 C 279.384 155.200,279.066 154.841,277.300 153.183 L 275.400 151.400 277.183 153.300 M182.800 242.520 L 183.000 301.400 183.101 242.821 C 183.157 210.603,183.067 184.107,182.901 183.941 C 182.736 183.776,182.690 210.136,182.800 242.520 M216.985 184.100 C 216.880 184.375,216.841 210.880,216.897 243.000 L 217.000 301.400 217.200 242.500 C 217.310 210.105,217.349 183.600,217.287 183.600 C 217.226 183.600,217.089 183.825,216.985 184.100 M211.775 312.100 L 210.600 313.400 211.900 312.225 C 212.615 311.579,213.200 310.994,213.200 310.925 C 213.200 310.616,212.870 310.888,211.775 312.100 M199.300 317.076 C 199.685 317.176,200.315 317.176,200.700 317.076 C 201.085 316.975,200.770 316.893,200.000 316.893 C 199.230 316.893,198.915 316.975,199.300 317.076 " stroke="none" fill="#fc3c3c" fill-rule="evenodd"></path><path id="path6" d="M189.078 86.613 C 188.460 87.156,188.114 87.600,188.308 87.600 C 188.502 87.600,189.083 87.150,189.600 86.600 C 190.795 85.328,190.531 85.334,189.078 86.613 M283.400 166.802 C 283.400 168.740,283.532 170.118,283.694 169.863 C 284.081 169.253,284.086 163.700,283.700 163.463 C 283.535 163.361,283.400 164.864,283.400 166.802 M116.131 166.600 C 116.133 168.140,116.205 168.721,116.292 167.891 C 116.379 167.061,116.377 165.801,116.289 165.091 C 116.200 164.381,116.129 165.060,116.131 166.600 M120.000 177.725 C 120.000 177.794,120.585 178.379,121.300 179.025 L 122.600 180.200 121.425 178.900 C 120.330 177.688,120.000 177.416,120.000 177.725 M278.575 178.900 L 277.400 180.200 278.700 179.025 C 279.415 178.379,280.000 177.794,280.000 177.725 C 280.000 177.416,279.670 177.688,278.575 178.900 M130.138 183.694 C 130.392 183.856,142.300 183.950,156.600 183.903 C 170.900 183.857,179.360 183.770,175.400 183.711 C 157.297 183.439,129.720 183.428,130.138 183.694 M243.600 183.596 L 217.400 183.800 217.398 242.200 L 217.396 300.600 217.499 242.300 L 217.603 184.000 243.501 183.994 C 259.531 183.990,269.629 183.840,270.000 183.600 C 270.330 183.387,270.420 183.253,270.200 183.302 C 269.980 183.351,258.010 183.483,243.600 183.596 " stroke="none" fill="#fc1c1c" fill-rule="evenodd"></path></g></svg>