<svg id="svg" version="1.1" xmlns="http://www.w3.org/2000/svg" xmlns:xlink="http://www.w3.org/1999/xlink" width="400" height="400" viewBox="0, 0, 400,400"><g id="svgg"><path id="path0" d="M195.288 84.433 C 190.396 85.909,186.191 90.183,184.302 95.600 C 183.930 96.667,183.765 111.259,183.607 157.000 L 183.400 217.000 156.400 217.200 C 126.172 217.424,127.852 217.259,123.695 220.401 C 117.028 225.440,115.174 235.526,119.690 242.184 C 121.435 244.756,190.151 313.155,191.983 314.144 C 197.488 317.114,203.192 317.021,208.486 313.874 C 211.278 312.213,280.080 242.968,281.092 240.800 C 285.183 232.035,282.120 223.005,273.600 218.711 L 271.000 217.400 243.800 217.200 L 216.600 217.000 216.395 157.000 C 216.179 93.478,216.260 96.058,214.373 92.350 C 211.168 86.052,202.223 82.341,195.288 84.433 " stroke="none" fill="#fcfbfb" fill-rule="evenodd"></path><path id="path1" d="M178.500 0.275 C 176.465 0.360,174.800 0.603,174.800 0.815 C 174.800 1.027,173.551 1.200,172.024 1.200 C 170.497 1.200,169.136 1.380,169.000 1.600 C 168.864 1.820,167.773 2.000,166.576 2.000 C 165.379 2.000,164.400 2.180,164.400 2.400 C 164.400 2.620,163.511 2.800,162.424 2.800 C 161.337 2.800,160.336 2.980,160.200 3.200 C 160.064 3.420,159.254 3.600,158.400 3.600 C 157.546 3.600,156.736 3.780,156.600 4.000 C 156.464 4.220,155.553 4.400,154.576 4.400 C 153.599 4.400,152.800 4.580,152.800 4.800 C 152.800 5.020,152.181 5.200,151.424 5.200 C 150.667 5.200,149.936 5.380,149.800 5.600 C 149.664 5.820,148.944 6.000,148.200 6.000 C 147.456 6.000,146.736 6.180,146.600 6.400 C 146.464 6.620,145.823 6.800,145.176 6.800 C 144.529 6.800,144.000 6.980,144.000 7.200 C 144.000 7.420,143.370 7.600,142.600 7.600 C 141.830 7.600,141.200 7.780,141.200 8.000 C 141.200 8.220,140.660 8.400,140.000 8.400 C 139.340 8.400,138.800 8.580,138.800 8.800 C 138.800 9.020,138.260 9.200,137.600 9.200 C 136.940 9.200,136.400 9.356,136.400 9.546 C 136.400 9.736,135.563 10.006,134.540 10.146 C 133.518 10.286,132.483 10.543,132.240 10.717 C 131.998 10.891,131.080 11.263,130.200 11.543 C 128.523 12.077,127.074 12.652,125.905 13.247 C 125.523 13.441,124.938 13.600,124.605 13.600 C 124.272 13.600,124.000 13.747,124.000 13.928 C 124.000 14.108,123.100 14.500,122.000 14.800 C 120.900 15.100,120.000 15.492,120.000 15.672 C 120.000 15.853,119.640 16.000,119.200 16.000 C 118.760 16.000,118.400 16.180,118.400 16.400 C 118.400 16.620,118.051 16.800,117.624 16.800 C 117.197 16.800,116.736 16.980,116.600 17.200 C 116.464 17.420,116.003 17.600,115.576 17.600 C 115.149 17.600,114.800 17.780,114.800 18.000 C 114.800 18.220,114.566 18.400,114.280 18.400 C 113.544 18.400,111.607 19.341,111.603 19.700 C 111.601 19.865,111.240 20.000,110.800 20.000 C 110.360 20.000,110.000 20.180,110.000 20.400 C 110.000 20.620,109.640 20.800,109.200 20.800 C 108.760 20.800,108.400 20.980,108.400 21.200 C 108.400 21.420,108.055 21.600,107.633 21.600 C 107.212 21.600,106.807 21.735,106.733 21.900 C 106.660 22.065,105.745 22.633,104.700 23.163 C 103.655 23.692,102.800 24.277,102.800 24.463 C 102.800 24.648,102.440 24.800,102.000 24.800 C 101.560 24.800,101.200 24.980,101.200 25.200 C 101.200 25.420,100.840 25.600,100.400 25.600 C 99.960 25.600,99.600 25.780,99.600 26.000 C 99.600 26.220,99.330 26.400,99.000 26.400 C 98.670 26.400,98.400 26.560,98.400 26.757 C 98.400 26.953,97.932 27.231,97.360 27.374 C 96.487 27.593,94.324 28.874,93.600 29.601 C 93.490 29.711,92.905 30.056,92.300 30.368 C 91.695 30.680,91.200 31.085,91.200 31.268 C 91.200 31.450,90.880 31.600,90.488 31.600 C 90.097 31.600,89.517 31.960,89.200 32.400 C 88.883 32.840,88.343 33.200,88.000 33.200 C 87.657 33.200,87.117 33.560,86.800 34.000 C 86.483 34.440,86.020 34.800,85.771 34.800 C 85.522 34.800,84.754 35.340,84.063 36.000 C 83.372 36.660,82.575 37.200,82.292 37.200 C 82.009 37.200,81.517 37.560,81.200 38.000 C 80.883 38.440,80.428 38.800,80.190 38.800 C 79.951 38.800,79.046 39.434,78.178 40.208 C 77.310 40.983,76.109 42.056,75.509 42.593 C 74.909 43.130,73.903 43.836,73.273 44.162 C 72.643 44.488,71.231 45.620,70.136 46.677 C 69.041 47.735,67.527 49.043,66.772 49.584 C 66.017 50.125,64.230 51.793,62.800 53.291 C 60.199 56.016,58.934 57.286,52.590 63.544 C 50.726 65.384,49.200 67.028,49.200 67.199 C 49.200 67.369,48.199 68.564,46.975 69.854 C 45.751 71.144,44.485 72.699,44.160 73.309 C 43.835 73.919,43.130 74.909,42.593 75.509 C 42.056 76.109,40.983 77.310,40.208 78.178 C 39.434 79.046,38.800 79.951,38.800 80.190 C 38.800 80.428,38.440 80.883,38.000 81.200 C 37.560 81.517,37.200 81.962,37.199 82.188 C 37.199 82.415,36.659 83.230,36.000 84.000 C 35.341 84.770,34.801 85.585,34.801 85.812 C 34.800 86.038,34.440 86.483,34.000 86.800 C 33.560 87.117,33.200 87.657,33.200 88.000 C 33.200 88.343,32.840 88.883,32.400 89.200 C 31.960 89.517,31.600 90.097,31.600 90.488 C 31.600 90.880,31.450 91.200,31.268 91.200 C 31.085 91.200,30.680 91.695,30.368 92.300 C 30.056 92.905,29.711 93.490,29.601 93.600 C 29.058 94.141,27.695 96.383,26.990 97.895 C 26.556 98.828,26.065 99.593,25.900 99.595 C 25.735 99.598,25.600 99.960,25.600 100.400 C 25.600 100.840,25.420 101.200,25.200 101.200 C 24.980 101.200,24.800 101.478,24.800 101.817 C 24.800 102.156,24.440 102.820,24.000 103.292 C 23.560 103.764,23.200 104.387,23.200 104.675 C 23.200 104.964,23.020 105.200,22.800 105.200 C 22.580 105.200,22.400 105.560,22.400 106.000 C 22.400 106.440,22.220 106.800,22.000 106.800 C 21.780 106.800,21.600 107.160,21.600 107.600 C 21.600 108.040,21.420 108.400,21.200 108.400 C 20.980 108.400,20.800 108.760,20.800 109.200 C 20.800 109.640,20.620 110.000,20.400 110.000 C 20.180 110.000,20.000 110.360,20.000 110.800 C 20.000 111.240,19.865 111.601,19.700 111.603 C 19.341 111.607,18.400 113.544,18.400 114.280 C 18.400 114.566,18.220 114.800,18.000 114.800 C 17.780 114.800,17.600 115.149,17.600 115.576 C 17.600 116.003,17.420 116.464,17.200 116.600 C 16.980 116.736,16.800 117.197,16.800 117.624 C 16.800 118.051,16.620 118.400,16.400 118.400 C 16.180 118.400,16.000 118.760,16.000 119.200 C 16.000 119.640,15.820 120.000,15.600 120.000 C 15.380 120.000,15.200 120.349,15.200 120.776 C 15.200 121.203,15.020 121.664,14.800 121.800 C 14.580 121.936,14.400 122.487,14.400 123.024 C 14.400 123.561,14.220 124.000,14.000 124.000 C 13.780 124.000,13.600 124.272,13.600 124.605 C 13.600 124.938,13.441 125.523,13.247 125.905 C 12.044 128.270,10.355 133.027,10.125 134.700 C 9.997 135.635,9.736 136.400,9.546 136.400 C 9.356 136.400,9.200 136.940,9.200 137.600 C 9.200 138.260,9.020 138.800,8.800 138.800 C 8.580 138.800,8.400 139.340,8.400 140.000 C 8.400 140.660,8.220 141.200,8.000 141.200 C 7.780 141.200,7.600 141.830,7.600 142.600 C 7.600 143.370,7.420 144.000,7.200 144.000 C 6.980 144.000,6.800 144.630,6.800 145.400 C 6.800 146.170,6.620 146.800,6.400 146.800 C 6.180 146.800,6.000 147.430,6.000 148.200 C 6.000 148.970,5.820 149.600,5.600 149.600 C 5.380 149.600,5.200 150.320,5.200 151.200 C 5.200 152.080,5.020 152.800,4.800 152.800 C 4.580 152.800,4.400 153.599,4.400 154.576 C 4.400 155.553,4.220 156.464,4.000 156.600 C 3.780 156.736,3.600 157.557,3.600 158.424 C 3.600 159.291,3.420 160.000,3.200 160.000 C 2.980 160.000,2.800 160.889,2.800 161.976 C 2.800 163.063,2.620 164.064,2.400 164.200 C 2.180 164.336,2.000 165.416,2.000 166.600 C 2.000 167.784,1.820 168.864,1.600 169.000 C 1.380 169.136,1.200 170.482,1.200 171.990 C 1.200 173.829,1.035 174.788,0.700 174.900 C -0.032 175.144,-0.032 224.856,0.700 225.100 C 1.035 225.212,1.200 226.171,1.200 228.010 C 1.200 229.518,1.380 230.864,1.600 231.000 C 1.820 231.136,2.000 232.216,2.000 233.400 C 2.000 234.584,2.180 235.664,2.400 235.800 C 2.620 235.936,2.800 236.937,2.800 238.024 C 2.800 239.111,2.980 240.000,3.200 240.000 C 3.420 240.000,3.600 240.709,3.600 241.576 C 3.600 242.443,3.780 243.264,4.000 243.400 C 4.220 243.536,4.400 244.447,4.400 245.424 C 4.400 246.401,4.580 247.200,4.800 247.200 C 5.020 247.200,5.200 247.920,5.200 248.800 C 5.200 249.680,5.380 250.400,5.600 250.400 C 5.820 250.400,6.000 251.019,6.000 251.776 C 6.000 252.533,6.180 253.264,6.400 253.400 C 6.620 253.536,6.800 254.177,6.800 254.824 C 6.800 255.471,6.980 256.000,7.200 256.000 C 7.420 256.000,7.600 256.630,7.600 257.400 C 7.600 258.170,7.780 258.800,8.000 258.800 C 8.220 258.800,8.400 259.340,8.400 260.000 C 8.400 260.660,8.580 261.200,8.800 261.200 C 9.020 261.200,9.200 261.740,9.200 262.400 C 9.200 263.060,9.380 263.600,9.600 263.600 C 9.820 263.600,10.000 264.044,10.000 264.586 C 10.000 265.490,10.768 268.242,11.567 270.200 C 12.422 272.297,12.923 273.458,13.247 274.095 C 13.441 274.477,13.600 275.062,13.600 275.395 C 13.600 275.728,13.780 276.000,14.000 276.000 C 14.220 276.000,14.400 276.439,14.400 276.976 C 14.400 277.513,14.580 278.064,14.800 278.200 C 15.020 278.336,15.200 278.797,15.200 279.224 C 15.200 279.651,15.380 280.000,15.600 280.000 C 15.820 280.000,16.000 280.360,16.000 280.800 C 16.000 281.240,16.180 281.600,16.400 281.600 C 16.620 281.600,16.800 281.853,16.800 282.162 C 16.800 282.471,17.139 283.416,17.553 284.262 C 17.967 285.108,18.732 286.700,19.253 287.800 C 19.774 288.900,20.335 289.860,20.500 289.933 C 20.665 290.007,20.800 290.412,20.800 290.833 C 20.800 291.255,20.980 291.600,21.200 291.600 C 21.420 291.600,21.600 291.945,21.600 292.367 C 21.600 292.788,21.735 293.193,21.900 293.267 C 22.065 293.340,22.633 294.255,23.163 295.300 C 23.692 296.345,24.277 297.200,24.463 297.200 C 24.648 297.200,24.800 297.560,24.800 298.000 C 24.800 298.440,24.980 298.800,25.200 298.800 C 25.420 298.800,25.600 299.078,25.600 299.417 C 25.600 299.756,25.945 300.404,26.367 300.856 C 26.788 301.309,27.248 302.135,27.387 302.692 C 27.654 303.755,30.708 308.504,31.272 308.733 C 31.453 308.807,31.600 309.172,31.600 309.545 C 31.600 309.918,31.960 310.483,32.400 310.800 C 32.840 311.117,33.200 311.657,33.200 312.000 C 33.200 312.343,33.560 312.883,34.000 313.200 C 34.440 313.517,34.800 313.962,34.801 314.188 C 34.801 314.415,35.341 315.230,36.000 316.000 C 36.659 316.770,37.199 317.585,37.199 317.812 C 37.200 318.038,37.560 318.483,38.000 318.800 C 38.440 319.117,38.800 319.572,38.800 319.810 C 38.800 320.049,39.385 320.902,40.100 321.706 C 42.213 324.081,43.513 325.706,44.572 327.295 C 45.121 328.118,46.386 329.607,47.385 330.606 C 48.383 331.604,49.200 332.580,49.200 332.773 C 49.200 332.967,51.085 334.988,53.388 337.263 C 58.024 341.843,58.637 342.454,63.758 347.615 C 65.715 349.587,67.482 351.200,67.684 351.200 C 67.886 351.200,68.929 352.100,70.000 353.200 C 71.071 354.300,72.102 355.200,72.290 355.200 C 72.478 355.200,73.428 355.920,74.400 356.800 C 75.372 357.680,76.328 358.400,76.524 358.400 C 76.720 358.400,77.510 359.030,78.280 359.800 C 79.050 360.570,79.892 361.200,80.152 361.200 C 80.411 361.200,80.883 361.560,81.200 362.000 C 81.517 362.440,82.009 362.800,82.292 362.800 C 82.575 362.800,83.372 363.340,84.063 364.000 C 84.754 364.660,85.522 365.200,85.771 365.200 C 86.020 365.200,86.483 365.560,86.800 366.000 C 87.117 366.440,87.657 366.800,88.000 366.800 C 88.343 366.800,88.883 367.160,89.200 367.600 C 89.517 368.040,90.057 368.400,90.400 368.400 C 90.743 368.400,91.283 368.760,91.600 369.200 C 91.917 369.640,92.414 370.000,92.705 370.000 C 92.996 370.000,93.589 370.331,94.023 370.736 C 94.458 371.141,95.305 371.720,95.907 372.024 C 96.508 372.327,97.757 373.079,98.681 373.694 C 99.606 374.309,100.911 374.922,101.581 375.056 C 102.252 375.190,102.800 375.457,102.800 375.650 C 102.800 375.843,103.070 376.000,103.400 376.000 C 103.730 376.000,104.000 376.146,104.000 376.325 C 104.000 376.504,104.630 376.898,105.400 377.200 C 106.170 377.502,106.800 377.896,106.800 378.075 C 106.800 378.254,107.160 378.400,107.600 378.400 C 108.040 378.400,108.400 378.580,108.400 378.800 C 108.400 379.020,108.760 379.200,109.200 379.200 C 109.640 379.200,110.000 379.380,110.000 379.600 C 110.000 379.820,110.360 380.000,110.800 380.000 C 111.240 380.000,111.600 380.180,111.600 380.400 C 111.600 380.620,111.960 380.800,112.400 380.800 C 112.840 380.800,113.200 380.980,113.200 381.200 C 113.200 381.420,113.549 381.600,113.976 381.600 C 114.403 381.600,114.864 381.780,115.000 382.000 C 115.136 382.220,115.597 382.400,116.024 382.400 C 116.451 382.400,116.800 382.580,116.800 382.800 C 116.800 383.020,117.160 383.200,117.600 383.200 C 118.040 383.200,118.400 383.380,118.400 383.600 C 118.400 383.820,118.760 384.000,119.200 384.000 C 119.640 384.000,120.000 384.180,120.000 384.400 C 120.000 384.620,120.349 384.800,120.776 384.800 C 121.203 384.800,121.664 384.980,121.800 385.200 C 121.936 385.420,122.487 385.600,123.024 385.600 C 123.561 385.600,124.000 385.780,124.000 386.000 C 124.000 386.220,124.360 386.400,124.800 386.400 C 125.240 386.400,125.600 386.580,125.600 386.800 C 125.600 387.020,126.039 387.200,126.576 387.200 C 127.113 387.200,127.664 387.380,127.800 387.600 C 127.936 387.820,128.487 388.000,129.024 388.000 C 129.561 388.000,130.000 388.180,130.000 388.400 C 130.000 388.620,130.362 388.800,130.805 388.800 C 131.248 388.800,131.923 388.976,132.305 389.191 C 133.508 389.868,139.174 391.600,140.185 391.600 C 140.717 391.600,141.264 391.780,141.400 392.000 C 141.536 392.220,142.177 392.400,142.824 392.400 C 143.471 392.400,144.000 392.580,144.000 392.800 C 144.000 393.020,144.630 393.200,145.400 393.200 C 146.170 393.200,146.800 393.380,146.800 393.600 C 146.800 393.820,147.419 394.000,148.176 394.000 C 148.933 394.000,149.664 394.180,149.800 394.400 C 149.936 394.620,150.667 394.800,151.424 394.800 C 152.181 394.800,152.800 394.980,152.800 395.200 C 152.800 395.420,153.599 395.600,154.576 395.600 C 155.553 395.600,156.464 395.780,156.600 396.000 C 156.736 396.220,157.546 396.400,158.400 396.400 C 159.254 396.400,160.064 396.580,160.200 396.800 C 160.336 397.020,161.337 397.200,162.424 397.200 C 163.511 397.200,164.400 397.380,164.400 397.600 C 164.400 397.822,165.467 398.000,166.800 398.000 C 168.133 398.000,169.200 398.178,169.200 398.400 C 169.200 398.628,170.389 398.800,171.967 398.800 C 173.824 398.800,174.788 398.964,174.900 399.300 C 175.144 400.032,224.856 400.032,225.100 399.300 C 225.212 398.964,226.176 398.800,228.033 398.800 C 229.611 398.800,230.800 398.628,230.800 398.400 C 230.800 398.178,231.859 398.000,233.176 398.000 C 234.483 398.000,235.664 397.820,235.800 397.600 C 235.936 397.380,236.937 397.200,238.024 397.200 C 239.111 397.200,240.000 397.020,240.000 396.800 C 240.000 396.580,240.720 396.400,241.600 396.400 C 242.480 396.400,243.200 396.220,243.200 396.000 C 243.200 395.780,244.100 395.600,245.200 395.600 C 246.300 395.600,247.200 395.420,247.200 395.200 C 247.200 394.980,247.920 394.800,248.800 394.800 C 249.680 394.800,250.400 394.620,250.400 394.400 C 250.400 394.180,251.019 394.000,251.776 394.000 C 252.533 394.000,253.264 393.820,253.400 393.600 C 253.536 393.380,254.177 393.200,254.824 393.200 C 255.471 393.200,256.000 393.020,256.000 392.800 C 256.000 392.580,256.630 392.400,257.400 392.400 C 258.170 392.400,258.800 392.243,258.800 392.052 C 258.800 391.860,259.741 391.578,260.890 391.426 C 262.040 391.273,263.165 391.013,263.390 390.846 C 263.616 390.680,264.610 390.314,265.600 390.033 C 266.590 389.752,267.713 389.360,268.095 389.161 C 268.477 388.962,269.062 388.800,269.395 388.800 C 269.728 388.800,270.000 388.620,270.000 388.400 C 270.000 388.180,270.439 388.000,270.976 388.000 C 271.513 388.000,272.064 387.820,272.200 387.600 C 272.336 387.380,272.887 387.200,273.424 387.200 C 273.961 387.200,274.400 387.020,274.400 386.800 C 274.400 386.580,274.760 386.400,275.200 386.400 C 275.640 386.400,276.000 386.220,276.000 386.000 C 276.000 385.780,276.439 385.600,276.976 385.600 C 277.513 385.600,278.064 385.420,278.200 385.200 C 278.336 384.980,278.797 384.800,279.224 384.800 C 279.651 384.800,280.000 384.620,280.000 384.400 C 280.000 384.180,280.360 384.000,280.800 384.000 C 281.240 384.000,281.600 383.820,281.600 383.600 C 281.600 383.380,281.960 383.200,282.400 383.200 C 282.840 383.200,283.200 383.020,283.200 382.800 C 283.200 382.580,283.535 382.400,283.944 382.400 C 284.746 382.400,289.713 379.995,289.933 379.500 C 290.007 379.335,290.412 379.200,290.833 379.200 C 291.255 379.200,291.600 379.020,291.600 378.800 C 291.600 378.580,291.960 378.400,292.400 378.400 C 292.840 378.400,293.200 378.220,293.200 378.000 C 293.200 377.780,293.478 377.600,293.817 377.600 C 294.156 377.600,294.820 377.240,295.292 376.800 C 295.764 376.360,296.387 376.000,296.675 376.000 C 296.964 376.000,297.200 375.820,297.200 375.600 C 297.200 375.380,297.479 375.200,297.820 375.200 C 298.442 375.200,300.825 374.102,301.200 373.644 C 301.310 373.509,301.940 373.134,302.600 372.810 C 304.261 371.995,308.571 369.127,308.733 368.728 C 308.807 368.547,309.172 368.400,309.545 368.400 C 309.918 368.400,310.483 368.040,310.800 367.600 C 311.117 367.160,311.657 366.800,312.000 366.800 C 312.343 366.800,312.883 366.440,313.200 366.000 C 313.517 365.560,314.009 365.200,314.292 365.200 C 314.575 365.200,315.372 364.660,316.063 364.000 C 316.754 363.340,317.522 362.800,317.771 362.800 C 318.020 362.800,318.483 362.440,318.800 362.000 C 319.117 361.560,319.572 361.200,319.810 361.200 C 320.049 361.200,320.931 360.570,321.772 359.800 C 322.613 359.030,323.423 358.400,323.572 358.400 C 323.721 358.400,324.531 357.770,325.372 357.000 C 326.213 356.230,327.054 355.600,327.242 355.600 C 327.429 355.600,328.573 354.610,329.783 353.400 C 330.993 352.190,332.157 351.200,332.371 351.200 C 332.584 351.200,334.703 349.230,337.079 346.821 C 342.316 341.514,341.514 342.316,346.821 337.079 C 349.230 334.703,351.200 332.584,351.200 332.371 C 351.200 332.157,352.190 330.993,353.400 329.783 C 354.610 328.573,355.600 327.429,355.600 327.242 C 355.600 327.054,356.230 326.213,357.000 325.372 C 357.770 324.531,358.400 323.721,358.400 323.572 C 358.400 323.423,359.030 322.613,359.800 321.772 C 360.570 320.931,361.200 320.049,361.200 319.810 C 361.200 319.572,361.560 319.117,362.000 318.800 C 362.440 318.483,362.800 318.038,362.801 317.812 C 362.801 317.585,363.341 316.770,364.000 316.000 C 364.659 315.230,365.199 314.415,365.199 314.188 C 365.200 313.962,365.560 313.517,366.000 313.200 C 366.440 312.883,366.800 312.343,366.800 312.000 C 366.800 311.657,367.160 311.117,367.600 310.800 C 368.040 310.483,368.400 309.918,368.400 309.545 C 368.400 309.172,368.547 308.807,368.728 308.733 C 369.127 308.571,371.995 304.261,372.810 302.600 C 373.134 301.940,373.509 301.310,373.644 301.200 C 374.032 300.882,375.200 298.484,375.200 298.003 C 375.200 297.763,375.560 297.180,376.000 296.708 C 376.440 296.236,376.800 295.613,376.800 295.325 C 376.800 295.036,376.980 294.800,377.200 294.800 C 377.420 294.800,377.600 294.440,377.600 294.000 C 377.600 293.560,377.780 293.200,378.000 293.200 C 378.220 293.200,378.400 292.840,378.400 292.400 C 378.400 291.960,378.580 291.600,378.800 291.600 C 379.020 291.600,379.200 291.255,379.200 290.833 C 379.200 290.412,379.336 290.007,379.502 289.933 C 379.668 289.860,380.407 288.540,381.144 287.000 C 381.881 285.460,382.645 283.887,382.842 283.505 C 383.039 283.123,383.200 282.538,383.200 282.205 C 383.200 281.872,383.380 281.600,383.600 281.600 C 383.820 281.600,384.000 281.240,384.000 280.800 C 384.000 280.360,384.180 280.000,384.400 280.000 C 384.620 280.000,384.800 279.651,384.800 279.224 C 384.800 278.797,384.980 278.336,385.200 278.200 C 385.420 278.064,385.600 277.513,385.600 276.976 C 385.600 276.439,385.780 276.000,386.000 276.000 C 386.220 276.000,386.400 275.640,386.400 275.200 C 386.400 274.760,386.580 274.400,386.800 274.400 C 387.020 274.400,387.200 274.038,387.200 273.595 C 387.200 273.152,387.359 272.477,387.553 272.095 C 388.426 270.380,389.350 267.953,390.026 265.600 C 390.311 264.610,390.680 263.616,390.846 263.390 C 391.013 263.165,391.273 262.040,391.426 260.890 C 391.578 259.741,391.860 258.800,392.052 258.800 C 392.243 258.800,392.400 258.170,392.400 257.400 C 392.400 256.630,392.580 256.000,392.800 256.000 C 393.020 256.000,393.200 255.471,393.200 254.824 C 393.200 254.177,393.380 253.536,393.600 253.400 C 393.820 253.264,394.000 252.533,394.000 251.776 C 394.000 251.019,394.180 250.400,394.400 250.400 C 394.620 250.400,394.800 249.680,394.800 248.800 C 394.800 247.920,394.980 247.200,395.200 247.200 C 395.420 247.200,395.600 246.401,395.600 245.424 C 395.600 244.447,395.780 243.536,396.000 243.400 C 396.220 243.264,396.400 242.443,396.400 241.576 C 396.400 240.709,396.580 240.000,396.800 240.000 C 397.020 240.000,397.200 239.111,397.200 238.024 C 397.200 236.937,397.380 235.936,397.600 235.800 C 397.820 235.664,398.000 234.483,398.000 233.176 C 398.000 231.859,398.178 230.800,398.400 230.800 C 398.628 230.800,398.800 229.611,398.800 228.033 C 398.800 226.176,398.964 225.212,399.300 225.100 C 399.693 224.969,399.800 219.591,399.800 200.000 C 399.800 180.409,399.693 175.031,399.300 174.900 C 398.964 174.788,398.800 173.824,398.800 171.967 C 398.800 170.389,398.628 169.200,398.400 169.200 C 398.178 169.200,398.000 168.141,398.000 166.824 C 398.000 165.517,397.820 164.336,397.600 164.200 C 397.380 164.064,397.200 163.063,397.200 161.976 C 397.200 160.889,397.020 160.000,396.800 160.000 C 396.580 160.000,396.400 159.291,396.400 158.424 C 396.400 157.557,396.220 156.736,396.000 156.600 C 395.780 156.464,395.600 155.553,395.600 154.576 C 395.600 153.599,395.420 152.800,395.200 152.800 C 394.980 152.800,394.800 152.080,394.800 151.200 C 394.800 150.320,394.620 149.600,394.400 149.600 C 394.180 149.600,394.000 148.970,394.000 148.200 C 394.000 147.430,393.820 146.800,393.600 146.800 C 393.380 146.800,393.200 146.170,393.200 145.400 C 393.200 144.630,393.020 144.000,392.800 144.000 C 392.580 144.000,392.400 143.370,392.400 142.600 C 392.400 141.830,392.243 141.200,392.052 141.200 C 391.860 141.200,391.578 140.259,391.426 139.110 C 391.273 137.960,391.013 136.835,390.846 136.610 C 390.680 136.384,390.311 135.390,390.026 134.400 C 389.350 132.047,388.426 129.620,387.553 127.905 C 387.359 127.523,387.200 126.848,387.200 126.405 C 387.200 125.962,387.020 125.600,386.800 125.600 C 386.580 125.600,386.400 125.240,386.400 124.800 C 386.400 124.360,386.220 124.000,386.000 124.000 C 385.780 124.000,385.600 123.561,385.600 123.024 C 385.600 122.487,385.420 121.936,385.200 121.800 C 384.980 121.664,384.800 121.203,384.800 120.776 C 384.800 120.349,384.620 120.000,384.400 120.000 C 384.180 120.000,384.000 119.640,384.000 119.200 C 384.000 118.760,383.820 118.400,383.600 118.400 C 383.380 118.400,383.200 118.040,383.200 117.600 C 383.200 117.160,383.020 116.800,382.800 116.800 C 382.580 116.800,382.400 116.528,382.400 116.195 C 382.400 115.862,382.232 115.277,382.026 114.895 C 381.821 114.513,381.417 113.615,381.129 112.900 C 380.840 112.185,380.469 111.600,380.302 111.600 C 380.136 111.600,380.000 111.240,380.000 110.800 C 380.000 110.360,379.820 110.000,379.600 110.000 C 379.380 110.000,379.200 109.640,379.200 109.200 C 379.200 108.760,379.020 108.400,378.800 108.400 C 378.580 108.400,378.400 108.040,378.400 107.600 C 378.400 107.160,378.220 106.800,378.000 106.800 C 377.780 106.800,377.600 106.440,377.600 106.000 C 377.600 105.560,377.420 105.200,377.200 105.200 C 376.980 105.200,376.800 104.930,376.800 104.600 C 376.800 104.270,376.620 104.000,376.400 104.000 C 376.180 104.000,376.000 103.730,376.000 103.400 C 376.000 103.070,375.843 102.800,375.650 102.800 C 375.457 102.800,375.190 102.252,375.056 101.581 C 374.922 100.911,374.309 99.606,373.694 98.681 C 373.079 97.757,372.327 96.508,372.024 95.907 C 371.720 95.305,371.141 94.458,370.736 94.023 C 370.331 93.589,370.000 92.996,370.000 92.705 C 370.000 92.414,369.640 91.917,369.200 91.600 C 368.760 91.283,368.400 90.743,368.400 90.400 C 368.400 90.057,368.040 89.517,367.600 89.200 C 367.160 88.883,366.800 88.343,366.800 88.000 C 366.800 87.657,366.440 87.117,366.000 86.800 C 365.560 86.483,365.200 86.038,365.199 85.812 C 365.199 85.585,364.659 84.770,364.000 84.000 C 363.341 83.230,362.801 82.415,362.801 82.188 C 362.800 81.962,362.440 81.517,362.000 81.200 C 361.560 80.883,361.200 80.428,361.200 80.190 C 361.200 79.951,360.570 79.069,359.800 78.228 C 359.030 77.387,358.400 76.577,358.400 76.428 C 358.400 76.279,357.770 75.469,357.000 74.628 C 356.230 73.787,355.600 72.946,355.600 72.758 C 355.600 72.571,354.610 71.427,353.400 70.217 C 352.190 69.007,351.200 67.860,351.200 67.667 C 351.200 67.474,349.587 65.715,347.615 63.758 C 342.956 59.134,342.222 58.400,337.050 53.186 C 334.658 50.774,332.529 48.800,332.319 48.800 C 332.109 48.800,331.257 48.092,330.425 47.227 C 329.594 46.361,328.213 45.186,327.357 44.614 C 325.709 43.515,324.100 42.230,321.706 40.100 C 320.902 39.385,320.049 38.800,319.810 38.800 C 319.572 38.800,319.117 38.440,318.800 38.000 C 318.483 37.560,318.038 37.200,317.812 37.199 C 317.585 37.199,316.770 36.659,316.000 36.000 C 315.230 35.341,314.415 34.801,314.188 34.801 C 313.962 34.800,313.517 34.440,313.200 34.000 C 312.883 33.560,312.343 33.200,312.000 33.200 C 311.657 33.200,311.117 32.840,310.800 32.400 C 310.483 31.960,309.918 31.600,309.545 31.600 C 309.172 31.600,308.807 31.453,308.733 31.272 C 308.499 30.697,303.745 27.652,302.653 27.377 C 302.074 27.232,301.600 26.953,301.600 26.757 C 301.600 26.560,301.330 26.400,301.000 26.400 C 300.670 26.400,300.400 26.220,300.400 26.000 C 300.400 25.780,300.040 25.600,299.600 25.600 C 299.160 25.600,298.800 25.420,298.800 25.200 C 298.800 24.980,298.522 24.800,298.183 24.800 C 297.844 24.800,297.180 24.440,296.708 24.000 C 296.236 23.560,295.613 23.200,295.325 23.200 C 295.036 23.200,294.800 23.020,294.800 22.800 C 294.800 22.580,294.440 22.400,294.000 22.400 C 293.560 22.400,293.200 22.220,293.200 22.000 C 293.200 21.780,292.840 21.600,292.400 21.600 C 291.960 21.600,291.600 21.420,291.600 21.200 C 291.600 20.980,291.255 20.800,290.833 20.800 C 290.412 20.800,290.007 20.664,289.933 20.498 C 289.860 20.332,288.540 19.593,287.000 18.856 C 285.460 18.119,283.887 17.355,283.505 17.158 C 283.123 16.961,282.538 16.800,282.205 16.800 C 281.872 16.800,281.600 16.620,281.600 16.400 C 281.600 16.180,281.240 16.000,280.800 16.000 C 280.360 16.000,280.000 15.820,280.000 15.600 C 280.000 15.380,279.651 15.200,279.224 15.200 C 278.797 15.200,278.336 15.020,278.200 14.800 C 278.064 14.580,277.513 14.400,276.976 14.400 C 276.439 14.400,276.000 14.220,276.000 14.000 C 276.000 13.780,275.728 13.600,275.395 13.600 C 275.062 13.600,274.477 13.441,274.095 13.247 C 273.713 13.052,272.950 12.716,272.400 12.500 C 271.850 12.284,270.950 11.912,270.400 11.674 C 268.469 10.837,265.562 10.000,264.586 10.000 C 264.044 10.000,263.600 9.820,263.600 9.600 C 263.600 9.380,263.060 9.200,262.400 9.200 C 261.740 9.200,261.200 9.020,261.200 8.800 C 261.200 8.580,260.660 8.400,260.000 8.400 C 259.340 8.400,258.800 8.220,258.800 8.000 C 258.800 7.780,258.170 7.600,257.400 7.600 C 256.630 7.600,256.000 7.420,256.000 7.200 C 256.000 6.980,255.471 6.800,254.824 6.800 C 254.177 6.800,253.536 6.620,253.400 6.400 C 253.264 6.180,252.533 6.000,251.776 6.000 C 251.019 6.000,250.400 5.820,250.400 5.600 C 250.400 5.380,249.680 5.200,248.800 5.200 C 247.920 5.200,247.200 5.020,247.200 4.800 C 247.200 4.580,246.401 4.400,245.424 4.400 C 244.447 4.400,243.536 4.220,243.400 4.000 C 243.264 3.780,242.443 3.600,241.576 3.600 C 240.709 3.600,240.000 3.420,240.000 3.200 C 240.000 2.980,239.111 2.800,238.024 2.800 C 236.937 2.800,235.936 2.620,235.800 2.400 C 235.664 2.180,234.584 2.000,233.400 2.000 C 232.216 2.000,231.136 1.820,231.000 1.600 C 230.864 1.380,229.518 1.200,228.010 1.200 C 226.196 1.200,225.211 1.033,225.103 0.708 C 224.941 0.223,187.959 -0.121,178.500 0.275 M203.600 82.996 C 205.362 83.321,206.841 83.927,209.372 85.362 C 211.797 86.737,216.000 92.059,216.000 93.754 C 216.000 94.110,216.180 94.400,216.400 94.400 C 216.620 94.400,216.800 95.109,216.800 95.976 C 216.800 96.843,216.980 97.664,217.200 97.800 C 217.464 97.963,217.600 118.137,217.600 157.024 L 217.600 216.000 243.472 216.000 C 261.739 216.000,269.763 216.134,270.772 216.456 C 272.683 217.067,275.767 218.527,275.933 218.900 C 276.007 219.065,276.307 219.200,276.602 219.200 C 277.317 219.200,280.800 222.711,280.800 223.432 C 280.800 223.744,280.948 224.000,281.129 224.000 C 281.536 224.000,283.200 227.618,283.200 228.504 C 283.200 228.861,283.380 229.264,283.600 229.400 C 284.559 229.993,283.955 237.310,282.751 239.695 C 282.558 240.077,282.400 240.662,282.400 240.995 C 282.400 241.328,282.232 241.600,282.027 241.600 C 281.822 241.600,281.527 242.005,281.371 242.500 C 281.066 243.471,210.791 313.871,209.299 314.700 C 208.315 315.247,206.988 315.936,205.905 316.462 C 205.523 316.648,204.704 316.800,204.085 316.800 C 203.466 316.800,202.762 316.998,202.521 317.239 C 201.888 317.872,194.400 317.059,194.400 316.358 C 194.400 316.161,193.995 315.996,193.500 315.991 C 193.005 315.986,192.150 315.630,191.600 315.200 C 191.050 314.770,190.446 314.414,190.258 314.409 C 189.679 314.394,119.435 243.872,118.831 242.700 C 118.520 242.095,118.115 241.600,117.932 241.600 C 117.750 241.600,117.600 241.328,117.600 240.995 C 117.600 240.662,117.442 240.077,117.249 239.695 C 115.963 237.149,115.573 231.995,116.456 229.228 C 117.067 227.317,118.527 224.233,118.900 224.067 C 119.065 223.993,119.200 223.722,119.200 223.464 C 119.200 222.897,122.246 219.600,122.771 219.600 C 122.975 219.600,123.388 219.375,123.687 219.100 C 124.537 218.318,125.930 217.600,126.595 217.600 C 126.928 217.600,127.200 217.420,127.200 217.200 C 127.200 216.980,127.729 216.800,128.376 216.800 C 129.023 216.800,129.664 216.620,129.800 216.400 C 129.961 216.140,139.203 216.000,156.221 216.000 L 182.395 216.000 182.539 156.900 C 182.676 100.859,182.790 94.400,183.642 94.400 C 183.839 94.400,184.000 94.110,184.000 93.754 C 184.000 92.603,185.752 89.870,187.811 87.811 C 189.870 85.752,192.603 84.000,193.754 84.000 C 194.110 84.000,194.400 83.820,194.400 83.600 C 194.400 83.380,195.109 83.200,195.976 83.200 C 196.843 83.200,197.674 83.005,197.821 82.766 C 198.085 82.339,200.575 82.438,203.600 82.996 " stroke="none" fill="#fcc404" fill-rule="evenodd"></path><path id="path2" d="M198.500 83.491 C 199.325 83.578,200.675 83.578,201.500 83.491 C 202.325 83.405,201.650 83.334,200.000 83.334 C 198.350 83.334,197.675 83.405,198.500 83.491 M190.160 86.348 C 188.278 87.734,186.742 89.381,185.821 91.000 C 185.152 92.177,185.153 92.181,185.854 91.200 C 186.832 89.833,189.980 86.716,191.200 85.906 C 191.750 85.541,192.092 85.233,191.960 85.221 C 191.828 85.209,191.018 85.717,190.160 86.348 M216.493 97.600 C 216.493 98.370,216.575 98.685,216.676 98.300 C 216.776 97.915,216.776 97.285,216.676 96.900 C 216.575 96.515,216.493 96.830,216.493 97.600 M183.293 98.400 C 183.293 99.170,183.375 99.485,183.476 99.100 C 183.576 98.715,183.576 98.085,183.476 97.700 C 183.375 97.315,183.293 97.630,183.293 98.400 M143.729 216.700 C 150.950 216.761,162.650 216.761,169.729 216.700 C 176.808 216.639,170.900 216.589,156.600 216.589 C 142.300 216.589,136.508 216.639,143.729 216.700 M230.529 216.700 C 237.750 216.761,249.450 216.761,256.529 216.700 C 263.608 216.639,257.700 216.589,243.400 216.589 C 229.100 216.589,223.308 216.639,230.529 216.700 M120.629 222.362 L 119.458 223.800 120.809 222.513 C 121.551 221.805,122.078 221.158,121.979 221.075 C 121.881 220.992,121.273 221.571,120.629 222.362 M279.999 223.500 C 280.522 224.215,281.013 224.800,281.089 224.800 C 281.393 224.800,280.401 223.300,279.745 222.767 C 279.313 222.416,279.410 222.696,279.999 223.500 M116.531 233.400 C 116.533 234.940,116.605 235.521,116.692 234.691 C 116.779 233.861,116.777 232.601,116.689 231.891 C 116.600 231.181,116.529 231.860,116.531 233.400 M283.331 233.400 C 283.333 234.940,283.405 235.521,283.492 234.691 C 283.579 233.861,283.577 232.601,283.489 231.891 C 283.400 231.181,283.329 231.860,283.331 233.400 M196.900 316.676 C 197.285 316.776,197.915 316.776,198.300 316.676 C 198.685 316.575,198.370 316.493,197.600 316.493 C 196.830 316.493,196.515 316.575,196.900 316.676 M201.700 316.676 C 202.085 316.776,202.715 316.776,203.100 316.676 C 203.485 316.575,203.170 316.493,202.400 316.493 C 201.630 316.493,201.315 316.575,201.700 316.676 " stroke="none" fill="#fcd453" fill-rule="evenodd"></path><path id="path3" d="M194.200 84.408 C 193.100 84.848,191.750 85.570,191.200 86.013 C 190.584 86.508,191.198 86.315,192.800 85.508 C 201.776 80.991,212.782 85.949,215.645 95.800 C 216.158 97.563,216.351 97.892,216.372 97.042 C 216.580 88.585,203.039 80.869,194.200 84.408 M187.869 88.808 C 182.979 94.246,183.228 90.516,183.213 158.492 L 183.200 216.385 182.300 216.594 C 181.805 216.709,169.610 216.848,155.200 216.902 L 129.000 217.000 126.357 218.293 C 123.921 219.485,120.978 222.025,119.367 224.326 C 118.125 226.099,119.039 225.549,120.415 223.695 C 122.083 221.448,124.883 219.268,127.486 218.192 C 129.311 217.437,130.658 217.391,156.400 217.200 L 183.400 217.000 183.607 157.000 C 183.765 111.259,183.930 96.667,184.302 95.600 C 185.202 93.018,186.540 90.760,188.272 88.901 C 189.217 87.887,189.925 86.992,189.846 86.913 C 189.767 86.834,188.877 87.686,187.869 88.808 M216.598 157.800 L 216.600 217.000 243.800 217.200 L 271.000 217.400 273.647 218.729 C 276.326 220.074,278.077 221.504,280.126 224.018 C 281.000 225.091,280.957 224.968,279.934 223.467 C 278.467 221.314,275.929 219.292,272.965 217.914 L 271.000 217.000 244.800 216.902 C 230.390 216.848,218.196 216.709,217.701 216.594 L 216.803 216.385 216.699 157.493 L 216.596 98.600 216.598 157.800 M117.747 227.457 C 116.439 230.341,117.192 242.141,118.594 240.739 C 118.676 240.658,118.401 239.603,117.984 238.396 C 117.521 237.056,117.226 235.109,117.226 233.400 C 117.226 231.691,117.521 229.744,117.984 228.404 C 118.879 225.812,118.742 225.263,117.747 227.457 M282.012 228.000 C 282.012 228.330,282.187 228.870,282.400 229.200 C 282.745 229.733,282.788 229.733,282.788 229.200 C 282.788 228.870,282.613 228.330,282.400 228.000 C 282.055 227.467,282.012 227.467,282.012 228.000 M282.937 233.400 C 282.939 235.160,283.009 235.830,283.093 234.889 C 283.178 233.949,283.177 232.509,283.091 231.689 C 283.005 230.870,282.936 231.640,282.937 233.400 M282.229 237.829 C 282.081 238.415,282.051 238.984,282.161 239.094 C 282.271 239.204,282.481 238.815,282.629 238.229 C 282.776 237.642,282.806 237.073,282.696 236.963 C 282.586 236.853,282.376 237.242,282.229 237.829 M280.973 241.068 C 280.105 242.979,211.019 312.367,208.481 313.876 C 207.535 314.438,205.735 315.227,204.481 315.628 C 203.207 316.035,202.609 316.366,203.126 316.378 C 203.636 316.390,205.436 315.763,207.126 314.985 C 212.397 312.558,283.317 241.184,281.883 239.749 C 281.765 239.632,281.355 240.225,280.973 241.068 M118.821 241.362 C 118.770 242.243,122.872 246.462,155.461 279.046 C 192.532 316.111,192.926 316.466,196.842 316.378 C 197.418 316.366,196.912 316.073,195.570 315.643 C 194.344 315.251,192.615 314.522,191.728 314.024 C 190.142 313.133,120.761 243.956,119.491 242.000 C 119.134 241.450,118.833 241.163,118.821 241.362 M199.300 316.676 C 199.685 316.776,200.315 316.776,200.700 316.676 C 201.085 316.575,200.770 316.493,200.000 316.493 C 199.230 316.493,198.915 316.575,199.300 316.676 " stroke="none" fill="#fce7a4" fill-rule="evenodd"></path><path id="path4" d="M199.100 83.082 C 199.595 83.178,200.405 83.178,200.900 83.082 C 201.395 82.987,200.990 82.909,200.000 82.909 C 199.010 82.909,198.605 82.987,199.100 83.082 M193.700 84.012 C 192.361 84.551,192.611 84.824,194.000 84.340 C 194.660 84.110,195.200 83.849,195.200 83.761 C 195.200 83.524,194.713 83.605,193.700 84.012 M187.781 88.100 L 186.200 89.800 187.900 88.219 C 189.481 86.748,189.784 86.400,189.481 86.400 C 189.416 86.400,188.651 87.165,187.781 88.100 M211.800 88.000 C 212.659 88.880,213.452 89.600,213.562 89.600 C 213.672 89.600,213.059 88.880,212.200 88.000 C 211.341 87.120,210.548 86.400,210.438 86.400 C 210.328 86.400,210.941 87.120,211.800 88.000 M183.979 93.855 C 183.758 94.436,183.652 94.985,183.743 95.076 C 183.833 95.167,184.099 94.692,184.333 94.020 C 184.853 92.528,184.539 92.382,183.979 93.855 M216.896 156.876 C 216.843 189.368,216.935 216.036,217.100 216.138 C 217.371 216.306,217.370 175.919,217.096 119.200 C 217.039 107.430,216.949 124.384,216.896 156.876 M182.800 157.280 C 182.690 189.774,182.736 216.224,182.901 216.059 C 183.067 215.893,183.157 189.307,183.101 156.979 L 183.000 98.200 182.800 157.280 M283.701 233.400 C 283.705 234.280,283.787 234.593,283.883 234.095 C 283.979 233.598,283.975 232.878,283.875 232.495 C 283.775 232.113,283.696 232.520,283.701 233.400 M122.200 246.400 C 123.506 247.720,124.665 248.800,124.775 248.800 C 124.885 248.800,123.906 247.720,122.600 246.400 C 121.294 245.080,120.135 244.000,120.025 244.000 C 119.915 244.000,120.894 245.080,122.200 246.400 M139.000 263.200 C 140.528 264.740,141.869 266.000,141.979 266.000 C 142.089 266.000,140.928 264.740,139.400 263.200 C 137.872 261.660,136.531 260.400,136.421 260.400 C 136.311 260.400,137.472 261.660,139.000 263.200 M155.400 279.600 C 156.928 281.140,158.269 282.400,158.379 282.400 C 158.489 282.400,157.328 281.140,155.800 279.600 C 154.272 278.060,152.931 276.800,152.821 276.800 C 152.711 276.800,153.872 278.060,155.400 279.600 M171.800 296.000 C 173.328 297.540,174.669 298.800,174.779 298.800 C 174.889 298.800,173.728 297.540,172.200 296.000 C 170.672 294.460,169.331 293.200,169.221 293.200 C 169.111 293.200,170.272 294.460,171.800 296.000 M187.800 312.000 C 188.659 312.880,189.452 313.600,189.562 313.600 C 189.672 313.600,189.059 312.880,188.200 312.000 C 187.341 311.120,186.548 310.400,186.438 310.400 C 186.328 310.400,186.941 311.120,187.800 312.000 M198.900 317.087 C 199.505 317.178,200.495 317.178,201.100 317.087 C 201.705 316.995,201.210 316.920,200.000 316.920 C 198.790 316.920,198.295 316.995,198.900 317.087 " stroke="none" fill="#fccc34" fill-rule="evenodd"></path><path id="path5" d="M217.398 157.600 L 217.400 216.200 243.400 216.204 L 269.400 216.209 243.501 216.101 L 217.603 215.994 217.499 157.497 L 217.396 99.000 217.398 157.600 M182.499 157.697 L 182.400 215.994 156.300 216.100 L 130.200 216.206 156.313 216.303 C 176.906 216.379,182.465 216.294,182.615 215.900 C 182.720 215.625,182.759 189.300,182.701 157.400 L 182.597 99.400 182.499 157.697 M120.975 221.300 L 119.800 222.600 121.100 221.425 C 122.312 220.330,122.584 220.000,122.275 220.000 C 122.206 220.000,121.621 220.585,120.975 221.300 M277.600 220.125 C 277.600 220.194,278.185 220.779,278.900 221.425 L 280.200 222.600 279.025 221.300 C 277.930 220.088,277.600 219.816,277.600 220.125 M116.137 233.400 C 116.139 235.160,116.209 235.830,116.293 234.889 C 116.378 233.949,116.377 232.509,116.291 231.689 C 116.205 230.870,116.136 231.640,116.137 233.400 M270.187 254.100 L 267.800 256.600 270.300 254.213 C 271.675 252.899,272.800 251.774,272.800 251.713 C 272.800 251.417,272.405 251.778,270.187 254.100 M253.787 270.500 L 251.400 273.000 253.900 270.613 C 255.275 269.299,256.400 268.174,256.400 268.113 C 256.400 267.817,256.005 268.178,253.787 270.500 M236.989 287.300 L 234.200 290.200 237.100 287.411 C 239.794 284.820,240.183 284.400,239.889 284.400 C 239.828 284.400,238.523 285.705,236.989 287.300 M220.187 304.100 L 217.800 306.600 220.300 304.213 C 221.675 302.899,222.800 301.774,222.800 301.713 C 222.800 301.417,222.405 301.778,220.187 304.100 M199.100 317.482 C 199.595 317.578,200.405 317.578,200.900 317.482 C 201.395 317.387,200.990 317.309,200.000 317.309 C 199.010 317.309,198.605 317.387,199.100 317.482 " stroke="none" fill="#fcc414" fill-rule="evenodd"></path><path id="path6" d="" stroke="none" fill="#fcc40c" fill-rule="evenodd"></path></g></svg>