<svg id="svg" version="1.1" xmlns="http://www.w3.org/2000/svg" xmlns:xlink="http://www.w3.org/1999/xlink" width="400" height="400" viewBox="0, 0, 400,400"><g id="svgg"><path id="path0" d="M41.356 0.473 C 41.263 0.623,41.684 0.821,42.293 0.913 L 43.400 1.080 42.276 1.140 C 41.641 1.174,41.260 1.374,41.400 1.600 C 41.536 1.820,41.472 2.000,41.257 2.000 C 41.042 2.000,40.776 1.775,40.665 1.500 C 40.516 1.131,40.455 1.144,40.432 1.549 C 40.408 1.960,40.266 1.987,39.868 1.656 C 39.466 1.323,39.126 1.410,38.484 2.007 C 37.574 2.856,36.400 3.068,36.400 2.384 C 36.400 2.144,36.164 2.187,35.842 2.484 C 35.535 2.768,35.366 3.135,35.466 3.300 C 35.565 3.465,35.457 3.600,35.224 3.600 C 34.660 3.600,34.687 3.073,35.280 2.480 C 35.653 2.107,35.609 2.000,35.080 2.000 C 34.706 2.000,34.421 2.135,34.447 2.300 C 34.570 3.079,34.364 3.625,34.025 3.415 C 33.818 3.288,33.464 3.502,33.237 3.892 C 33.010 4.281,32.819 4.375,32.812 4.100 C 32.805 3.825,32.609 3.600,32.376 3.600 C 32.143 3.600,32.068 3.786,32.208 4.014 C 32.368 4.272,32.086 4.359,31.456 4.245 C 30.760 4.118,30.508 4.217,30.642 4.564 C 30.748 4.841,30.602 5.074,30.317 5.082 C 29.265 5.115,28.582 5.419,27.900 6.161 C 27.289 6.825,27.200 6.838,27.200 6.261 C 27.200 5.898,27.001 5.600,26.757 5.600 C 26.514 5.600,26.418 5.870,26.545 6.200 C 26.682 6.557,26.548 6.800,26.214 6.800 C 25.906 6.800,25.545 7.142,25.413 7.560 C 25.280 7.978,24.728 8.432,24.186 8.568 C 23.644 8.704,23.200 8.992,23.200 9.208 C 23.200 9.423,22.762 9.600,22.227 9.600 C 21.579 9.600,21.162 9.891,20.978 10.469 L 20.702 11.338 20.230 10.457 C 19.971 9.972,19.634 9.699,19.483 9.851 C 19.331 10.002,19.395 10.353,19.625 10.630 C 19.932 11.000,19.826 11.201,19.221 11.393 C 18.769 11.537,18.400 11.832,18.400 12.051 C 18.400 12.269,18.220 12.336,18.000 12.200 C 17.780 12.064,17.600 12.343,17.600 12.819 C 17.600 13.422,17.419 13.616,17.005 13.457 C 16.661 13.325,16.450 13.434,16.505 13.714 C 16.557 13.981,16.294 14.149,15.921 14.087 C 15.547 14.025,15.034 14.362,14.781 14.836 C 14.462 15.431,14.456 15.613,14.760 15.425 C 15.525 14.952,15.238 15.526,14.182 16.582 C 13.622 17.142,12.981 17.600,12.758 17.600 C 12.535 17.600,12.464 17.780,12.600 18.000 C 12.736 18.220,12.567 18.400,12.224 18.400 C 11.881 18.400,11.600 18.560,11.600 18.757 C 11.600 18.953,11.105 19.237,10.500 19.389 L 9.401 19.665 10.347 20.172 C 11.083 20.566,11.161 20.729,10.696 20.908 C 10.367 21.034,9.924 20.964,9.712 20.752 C 9.464 20.504,9.124 20.623,8.763 21.083 C 8.250 21.737,8.262 21.751,8.900 21.251 C 9.517 20.767,9.600 20.798,9.600 21.508 C 9.600 22.416,8.557 23.013,8.257 22.278 C 8.151 22.015,8.049 22.115,8.032 22.500 C 8.014 22.885,8.192 23.200,8.427 23.200 C 9.065 23.200,8.414 24.909,7.543 25.523 C 7.134 25.810,6.800 26.355,6.800 26.734 C 6.800 27.113,6.450 27.676,6.021 27.985 C 5.593 28.293,5.353 28.724,5.487 28.941 C 5.625 29.165,5.470 29.236,5.129 29.105 C 4.798 28.978,4.274 29.045,3.964 29.254 C 3.526 29.549,3.575 29.607,4.185 29.517 C 4.674 29.444,5.025 29.665,5.115 30.100 C 5.223 30.627,4.996 30.800,4.200 30.800 C 3.400 30.800,3.179 30.971,3.294 31.500 C 3.379 31.885,3.632 32.165,3.857 32.122 C 4.082 32.079,4.267 32.297,4.267 32.605 C 4.267 32.913,4.117 33.072,3.933 32.959 C 3.629 32.771,3.435 33.354,3.553 34.100 C 3.579 34.265,3.240 34.400,2.800 34.400 C 2.314 34.400,2.000 34.667,2.000 35.080 C 2.000 35.609,2.107 35.653,2.480 35.280 C 3.073 34.687,3.600 34.660,3.600 35.224 C 3.600 35.457,3.465 35.565,3.300 35.466 C 3.135 35.366,2.768 35.535,2.484 35.842 C 2.187 36.164,2.144 36.400,2.384 36.400 C 2.613 36.400,2.800 36.760,2.800 37.200 C 2.800 37.792,2.533 38.000,1.776 38.000 C 1.185 38.000,0.859 38.172,1.004 38.407 C 1.142 38.630,1.399 38.724,1.575 38.616 C 2.042 38.327,1.873 40.147,1.400 40.494 C 1.152 40.676,1.190 40.790,1.500 40.794 C 1.775 40.797,2.000 40.991,2.000 41.224 C 2.000 41.457,1.820 41.536,1.600 41.400 C 1.370 41.258,1.197 41.630,1.194 42.276 C 1.190 43.044,1.081 43.231,0.850 42.866 C 0.580 42.441,0.460 42.468,0.256 42.999 C -0.089 43.898,-0.066 44.088,0.355 43.828 C 0.747 43.586,1.186 44.891,1.195 46.324 C 1.198 46.832,1.032 47.144,0.828 47.017 C 0.623 46.891,0.339 46.974,0.198 47.203 C 0.056 47.432,0.156 47.570,0.420 47.510 C 0.684 47.449,0.983 47.625,1.083 47.900 C 1.184 48.175,1.072 48.400,0.833 48.400 C 0.595 48.400,0.400 48.591,0.400 48.824 C 0.400 49.057,0.580 49.136,0.800 49.000 C 1.020 48.864,1.200 49.123,1.200 49.576 C 1.200 50.042,0.939 50.400,0.600 50.400 C 0.068 50.400,0.000 67.289,0.000 200.000 C 0.000 332.711,0.068 349.600,0.600 349.600 C 0.939 349.600,1.200 349.958,1.200 350.424 C 1.200 350.976,1.035 351.148,0.700 350.947 C 0.324 350.721,0.306 350.789,0.629 351.223 C 1.309 352.136,1.222 353.532,0.473 353.729 C -0.116 353.885,-0.120 353.913,0.447 353.954 C 0.976 353.992,1.085 354.470,1.047 356.596 C 1.011 358.558,1.146 359.252,1.600 359.439 C 2.086 359.639,2.048 359.749,1.400 360.015 L 0.600 360.344 1.400 360.384 C 2.137 360.421,2.145 360.457,1.500 360.832 C 0.507 361.410,0.633 362.000,1.750 362.000 C 2.508 362.000,2.700 362.212,2.700 363.045 C 2.700 363.621,2.940 364.240,3.234 364.421 C 3.667 364.688,3.638 364.895,3.084 365.507 C 2.167 366.520,2.222 366.800,3.336 366.800 C 4.121 366.800,4.260 366.989,4.201 367.982 C 4.162 368.633,4.346 369.247,4.610 369.348 C 5.262 369.599,5.650 371.197,5.063 371.212 C 4.808 371.219,4.915 371.408,5.300 371.632 C 5.685 371.856,5.997 372.436,5.994 372.920 C 5.989 373.635,5.915 373.687,5.600 373.200 C 5.387 372.870,5.209 372.803,5.206 373.051 C 5.203 373.299,5.480 373.735,5.823 374.019 C 6.165 374.303,6.414 374.370,6.375 374.168 C 6.206 373.278,6.467 373.304,7.433 374.270 C 8.071 374.908,8.392 375.589,8.271 376.051 C 8.163 376.463,8.283 376.813,8.537 376.828 C 8.792 376.844,8.640 377.011,8.200 377.200 C 7.511 377.496,7.566 377.549,8.600 377.578 C 9.527 377.604,9.663 377.701,9.200 378.000 C 8.619 378.375,8.885 378.536,10.000 378.486 C 10.643 378.456,11.123 379.544,10.561 379.759 C 10.175 379.908,10.060 379.827,10.241 379.534 C 10.412 379.257,10.347 379.186,10.077 379.352 C 9.749 379.555,9.748 379.888,10.074 380.602 C 10.559 381.666,11.322 381.584,10.911 380.512 C 10.771 380.148,11.599 380.812,12.750 381.988 C 14.276 383.546,14.703 384.213,14.325 384.446 C 13.905 384.706,13.912 384.865,14.362 385.283 C 14.777 385.669,14.846 385.674,14.635 385.300 C 14.480 385.025,14.556 384.800,14.805 384.800 C 15.449 384.800,16.416 385.850,16.081 386.186 C 15.926 386.340,15.980 386.408,16.200 386.336 C 16.654 386.189,18.099 387.149,18.545 387.895 C 18.752 388.241,18.637 388.312,18.166 388.132 C 16.860 387.631,17.804 388.870,19.164 389.442 C 20.369 389.948,20.450 389.942,19.983 389.379 C 19.555 388.863,19.561 388.776,20.023 388.877 C 20.850 389.059,21.684 389.941,21.425 390.360 C 21.301 390.561,21.553 390.633,21.985 390.520 C 22.903 390.280,24.307 391.409,23.496 391.736 C 23.223 391.847,23.416 391.951,23.924 391.968 C 24.432 391.986,24.736 392.180,24.600 392.400 C 24.464 392.620,24.577 392.800,24.851 392.800 C 25.124 392.800,25.765 393.191,26.274 393.670 C 26.783 394.148,27.200 394.353,27.200 394.125 C 27.200 393.897,27.650 393.797,28.200 393.902 C 28.750 394.007,29.200 394.365,29.200 394.697 C 29.200 395.154,29.491 395.242,30.400 395.060 C 31.077 394.925,31.600 394.990,31.600 395.210 C 31.600 395.425,31.971 395.600,32.424 395.600 C 32.877 395.600,33.136 395.780,33.000 396.000 C 32.864 396.220,33.055 396.400,33.425 396.400 C 33.978 396.400,34.009 396.507,33.600 397.000 C 33.183 397.503,33.246 397.600,33.994 397.600 C 34.622 397.600,34.818 397.423,34.655 397.000 C 34.519 396.646,34.651 396.400,34.975 396.400 C 35.328 396.400,35.450 396.686,35.316 397.200 C 35.194 397.665,35.304 398.000,35.577 398.000 C 35.836 398.000,35.936 397.820,35.800 397.600 C 35.403 396.958,37.593 397.136,38.257 397.800 C 38.968 398.511,38.108 398.688,37.279 398.001 C 37.014 397.782,37.071 397.914,37.405 398.294 C 37.909 398.866,38.147 398.900,38.801 398.492 C 39.756 397.896,41.753 397.830,41.396 398.407 C 41.258 398.630,40.932 398.691,40.672 398.542 C 40.405 398.389,40.343 398.428,40.528 398.631 C 40.709 398.828,41.069 399.010,41.328 399.034 C 41.588 399.058,42.160 399.108,42.600 399.145 C 43.268 399.201,43.301 399.276,42.800 399.600 C 42.317 399.912,42.381 399.989,43.124 399.994 C 43.632 399.997,43.948 399.839,43.826 399.642 C 43.704 399.445,43.888 399.175,44.235 399.042 C 45.160 398.687,46.480 398.747,46.241 399.133 C 46.128 399.317,46.289 399.467,46.600 399.467 C 46.911 399.467,47.061 399.299,46.935 399.095 C 46.809 398.890,47.042 398.796,47.453 398.885 C 47.864 398.975,48.152 399.307,48.094 399.624 C 48.019 400.033,48.148 399.997,48.538 399.500 C 49.181 398.682,49.643 398.586,49.500 399.300 C 49.335 400.126,350.915 400.226,351.600 399.401 C 352.156 398.729,355.045 398.588,355.989 399.185 C 356.378 399.431,356.679 399.396,356.873 399.082 C 357.094 398.724,357.294 398.744,357.683 399.162 C 358.109 399.619,358.101 399.661,357.638 399.397 C 357.237 399.168,357.169 399.225,357.399 399.599 C 357.652 400.008,357.836 399.965,358.248 399.402 C 358.538 399.006,358.703 398.567,358.616 398.426 C 358.529 398.285,358.895 398.134,359.429 398.089 C 360.507 398.000,360.653 398.350,359.900 399.214 C 359.625 399.530,359.939 399.341,360.599 398.794 C 361.258 398.247,361.858 397.665,361.932 397.500 C 362.153 397.008,364.320 397.160,364.493 397.680 C 364.618 398.054,364.719 398.054,364.950 397.680 C 365.114 397.416,365.057 397.200,364.824 397.200 C 364.591 397.200,364.400 396.999,364.400 396.753 C 364.400 396.502,364.753 396.399,365.207 396.518 C 365.651 396.634,366.261 396.482,366.563 396.180 C 366.971 395.772,367.444 395.726,368.399 396.000 C 369.564 396.334,369.666 396.295,369.480 395.584 C 369.329 395.008,369.477 394.800,370.037 394.800 C 370.457 394.800,370.800 394.592,370.800 394.338 C 370.800 394.076,371.148 394.191,371.602 394.602 C 372.044 395.002,372.534 395.200,372.691 395.042 C 372.848 394.885,372.717 394.596,372.400 394.400 C 371.922 394.104,371.954 393.993,372.587 393.750 C 373.056 393.570,373.413 393.639,373.509 393.928 C 373.596 394.188,373.844 394.400,374.060 394.400 C 374.277 394.400,374.353 394.082,374.230 393.694 C 373.894 392.636,375.425 391.768,375.972 392.707 C 376.198 393.096,376.381 393.180,376.388 392.900 C 376.395 392.625,376.704 392.400,377.076 392.400 C 377.670 392.400,377.657 392.322,376.976 391.767 C 376.313 391.227,376.302 391.167,376.900 391.355 C 377.285 391.476,377.600 391.429,377.600 391.252 C 377.600 391.074,378.068 390.715,378.639 390.455 C 379.304 390.152,379.597 389.768,379.452 389.391 C 379.313 389.029,379.462 388.800,379.836 388.800 C 380.172 388.800,380.336 388.980,380.200 389.200 C 380.064 389.420,380.143 389.600,380.376 389.600 C 380.609 389.600,380.800 389.347,380.800 389.037 C 380.800 388.683,381.079 388.548,381.555 388.672 C 381.970 388.781,382.448 388.646,382.617 388.373 C 382.808 388.064,382.759 387.978,382.489 388.145 C 382.251 388.292,381.943 388.232,381.806 388.010 C 381.478 387.479,383.278 385.693,383.924 385.908 C 384.199 386.000,384.374 385.833,384.313 385.538 C 384.251 385.242,384.425 385.045,384.700 385.100 C 384.975 385.155,385.155 384.975,385.100 384.700 C 385.045 384.425,385.247 384.252,385.549 384.316 C 385.874 384.385,386.012 384.208,385.887 383.883 C 385.677 383.335,387.326 381.813,388.161 381.785 C 388.402 381.777,388.960 381.540,389.400 381.258 C 390.191 380.751,390.191 380.747,389.366 380.918 C 388.674 381.061,388.562 380.931,388.712 380.150 C 388.811 379.633,389.051 379.308,389.246 379.428 C 389.441 379.549,389.600 379.367,389.600 379.024 C 389.600 378.681,389.780 378.400,390.000 378.400 C 390.220 378.400,390.400 378.207,390.400 377.971 C 390.400 377.379,391.449 376.382,391.752 376.686 C 391.889 376.822,392.000 376.633,392.000 376.267 C 392.000 375.900,392.253 375.600,392.563 375.600 C 392.942 375.600,393.052 375.319,392.899 374.737 C 392.711 374.016,392.811 373.910,393.509 374.092 C 394.148 374.259,394.330 374.134,394.287 373.555 C 394.255 373.140,394.077 372.800,393.891 372.800 C 393.705 372.800,393.669 372.611,393.812 372.381 C 393.992 372.089,394.229 372.092,394.589 372.391 C 394.971 372.708,395.170 372.656,395.347 372.195 C 395.504 371.784,395.280 371.446,394.693 371.210 C 394.202 371.012,394.025 370.839,394.300 370.825 C 394.575 370.811,394.800 370.440,394.800 370.000 C 394.800 369.560,394.991 369.200,395.224 369.200 C 395.457 369.200,395.512 369.425,395.347 369.700 C 395.130 370.061,395.229 370.052,395.702 369.669 C 396.206 369.260,396.270 368.909,395.978 368.141 C 395.700 367.410,395.749 366.994,396.164 366.579 C 396.488 366.255,396.631 365.641,396.500 365.140 C 396.328 364.481,396.417 364.321,396.860 364.491 C 397.315 364.665,397.411 364.456,397.281 363.573 C 397.108 362.389,398.024 361.002,398.639 361.519 C 398.823 361.674,398.754 361.511,398.486 361.159 C 398.010 360.532,397.939 358.315,398.405 358.603 C 398.534 358.683,398.869 358.381,399.149 357.932 C 399.431 357.482,399.467 357.235,399.230 357.382 C 398.596 357.773,398.707 357.235,399.404 356.539 C 400.025 355.918,399.837 355.006,399.172 355.417 C 398.968 355.544,398.800 355.356,398.800 355.000 C 398.800 354.644,398.944 354.442,399.120 354.551 C 399.296 354.659,399.440 354.322,399.440 353.800 C 399.440 353.278,399.296 352.941,399.120 353.049 C 398.521 353.420,398.797 352.266,399.500 351.464 C 400.167 350.702,400.167 350.677,399.500 350.920 C 398.984 351.108,398.800 350.968,398.800 350.387 C 398.800 349.954,399.070 349.600,399.400 349.600 C 399.932 349.600,400.000 332.711,400.000 200.000 C 400.000 67.289,399.932 50.400,399.400 50.400 C 399.041 50.400,398.805 50.039,398.813 49.500 C 398.825 48.623,398.840 48.619,399.413 49.376 C 399.990 50.139,400.000 50.138,400.000 49.319 C 400.000 48.861,399.730 48.382,399.400 48.255 C 399.070 48.129,398.800 47.739,398.800 47.389 C 398.800 47.039,398.950 46.845,399.133 46.959 C 399.317 47.072,399.467 46.911,399.467 46.600 C 399.467 46.289,399.329 46.120,399.161 46.224 C 398.992 46.328,398.916 45.151,398.991 43.608 C 399.074 41.910,398.960 40.699,398.702 40.539 C 398.461 40.390,398.393 40.465,398.545 40.711 C 398.692 40.949,398.630 41.258,398.407 41.396 C 398.166 41.545,398.000 41.158,398.000 40.447 C 398.000 39.787,398.180 39.136,398.400 39.000 C 398.620 38.864,398.786 38.538,398.768 38.276 C 398.745 37.929,398.682 37.935,398.536 38.296 C 398.207 39.111,397.200 37.822,397.200 36.586 C 397.200 35.782,397.355 35.574,397.821 35.753 C 398.204 35.900,398.340 35.826,398.176 35.561 C 398.029 35.324,397.570 35.219,397.155 35.328 C 396.685 35.450,396.400 35.317,396.400 34.975 C 396.400 34.651,396.646 34.519,397.000 34.655 C 397.714 34.929,397.816 33.718,397.156 32.800 C 396.785 32.284,396.754 32.292,396.935 32.861 C 397.050 33.224,397.046 33.621,396.925 33.742 C 396.506 34.161,395.600 32.853,395.600 31.829 C 395.600 31.263,395.420 30.800,395.200 30.800 C 394.980 30.800,394.800 30.455,394.800 30.033 C 394.800 29.612,394.648 29.207,394.462 29.133 C 394.276 29.060,394.000 28.460,393.850 27.800 C 393.650 26.926,393.686 26.763,393.982 27.200 C 394.230 27.567,394.390 27.614,394.394 27.323 C 394.397 27.060,394.020 26.580,393.557 26.255 C 393.044 25.895,392.833 25.470,393.018 25.170 C 393.212 24.857,393.159 24.778,392.874 24.955 C 392.329 25.291,391.788 23.466,392.224 22.761 C 392.406 22.467,392.356 22.380,392.098 22.539 C 391.404 22.969,390.400 22.374,390.400 21.534 C 390.400 21.104,390.220 20.864,390.000 21.000 C 389.780 21.136,389.600 21.046,389.600 20.800 C 389.600 20.554,389.392 20.482,389.137 20.639 C 388.827 20.831,388.745 20.674,388.888 20.163 C 389.006 19.743,389.169 19.141,389.251 18.824 C 389.333 18.507,389.064 18.175,388.653 18.085 C 388.111 17.968,387.995 18.071,388.232 18.462 C 388.412 18.758,387.906 18.460,387.108 17.800 C 386.310 17.140,385.645 16.255,385.629 15.833 C 385.613 15.412,385.491 15.176,385.357 15.309 C 385.060 15.607,384.543 15.191,381.821 12.466 C 380.387 11.031,379.620 10.507,379.476 10.866 C 379.359 11.160,379.249 10.984,379.232 10.476 C 379.214 9.956,379.375 9.661,379.600 9.800 C 379.820 9.936,380.000 9.849,380.000 9.606 C 380.000 9.363,379.775 9.201,379.500 9.246 C 378.641 9.384,377.601 8.743,377.572 8.057 C 377.550 7.544,377.468 7.575,377.200 8.200 C 377.011 8.640,376.844 8.792,376.828 8.537 C 376.812 8.280,376.455 8.165,376.023 8.278 C 375.525 8.408,374.868 8.105,374.197 7.433 C 373.620 6.856,372.952 6.506,372.712 6.654 C 372.467 6.806,372.390 6.740,372.536 6.504 C 372.679 6.273,372.481 5.946,372.098 5.776 C 371.714 5.607,371.310 5.429,371.200 5.381 C 371.090 5.332,370.595 5.161,370.100 5.000 C 369.605 4.838,369.200 4.577,369.200 4.418 C 369.200 4.259,368.660 4.161,368.000 4.200 C 367.340 4.239,366.800 4.120,366.800 3.936 C 366.800 3.751,366.980 3.600,367.200 3.600 C 367.829 3.600,367.667 2.801,366.985 2.539 C 366.647 2.409,366.006 2.633,365.561 3.036 C 364.910 3.625,364.686 3.664,364.421 3.234 C 364.240 2.940,363.621 2.700,363.045 2.700 C 362.212 2.700,362.000 2.508,362.000 1.750 C 362.000 0.658,361.299 0.477,360.917 1.471 C 360.687 2.071,360.628 2.060,360.358 1.371 C 360.065 0.623,360.055 0.624,360.015 1.400 C 359.975 2.189,359.967 2.190,359.387 1.424 C 358.806 0.655,358.800 0.655,358.794 1.424 C 358.789 2.015,358.705 2.070,358.442 1.655 C 358.229 1.318,357.313 1.097,356.048 1.078 C 354.897 1.061,353.997 0.862,353.994 0.624 C 353.990 0.329,353.898 0.328,353.694 0.619 C 353.237 1.271,351.600 1.236,351.600 0.575 C 351.600 0.076,331.577 0.000,200.000 0.000 C 61.965 0.000,48.400 0.057,48.400 0.633 C 48.400 0.982,48.175 1.184,47.900 1.083 C 47.625 0.982,47.443 0.704,47.495 0.464 C 47.548 0.225,47.324 0.131,46.997 0.256 C 46.671 0.381,46.504 0.645,46.626 0.842 C 46.748 1.039,46.376 1.200,45.800 1.200 C 45.224 1.200,44.854 1.037,44.977 0.837 C 45.100 0.638,44.813 0.576,44.338 0.700 C 43.761 0.851,43.567 0.777,43.752 0.478 C 43.937 0.178,43.615 0.058,42.778 0.115 C 42.089 0.162,41.450 0.323,41.356 0.473 M375.788 7.220 C 375.407 7.835,375.928 8.232,376.442 7.718 C 376.729 7.431,376.736 7.207,376.462 7.039 C 376.239 6.900,375.935 6.982,375.788 7.220 M201.646 83.091 C 201.690 83.759,201.703 83.759,201.876 83.100 C 202.136 82.104,203.154 82.234,204.235 83.400 C 205.287 84.535,205.681 84.677,205.345 83.800 C 205.185 83.384,205.372 83.200,205.957 83.200 C 206.421 83.200,206.800 83.391,206.800 83.624 C 206.800 83.857,206.592 83.919,206.338 83.762 C 206.063 83.591,205.985 83.651,206.145 83.911 C 206.292 84.149,206.833 84.268,207.347 84.175 C 208.019 84.053,208.402 84.257,208.713 84.903 C 208.986 85.468,209.158 85.578,209.179 85.200 C 209.199 84.830,209.402 84.967,209.706 85.555 C 209.978 86.080,210.345 86.478,210.522 86.438 C 210.699 86.398,211.207 86.778,211.652 87.282 C 212.097 87.787,212.347 87.975,212.207 87.700 C 212.067 87.425,212.143 87.200,212.376 87.200 C 213.037 87.200,212.874 87.912,212.100 88.410 C 211.497 88.798,211.492 88.832,212.068 88.655 C 212.786 88.434,214.556 89.711,214.126 90.141 C 213.983 90.283,214.186 90.400,214.576 90.400 C 215.050 90.400,215.207 90.604,215.050 91.015 C 214.920 91.353,215.055 91.723,215.351 91.837 C 215.647 91.950,215.858 92.438,215.820 92.921 C 215.726 94.113,216.025 94.603,216.444 93.943 C 216.701 93.537,216.789 93.607,216.794 94.220 C 216.797 94.671,216.584 95.256,216.320 95.520 C 215.947 95.893,215.958 96.000,216.369 96.000 C 216.807 96.000,216.807 96.120,216.368 96.700 C 215.918 97.296,215.922 97.325,216.399 96.900 C 217.365 96.039,217.600 96.337,217.600 98.424 C 217.600 99.537,217.465 100.364,217.300 100.262 C 217.135 100.160,217.046 126.249,217.103 158.238 L 217.205 216.400 241.903 216.495 L 266.600 216.591 242.000 216.803 L 217.400 217.015 242.119 217.096 C 255.714 217.140,267.037 217.299,267.281 217.450 C 267.548 217.615,267.611 217.541,267.438 217.262 C 267.281 217.008,267.354 216.800,267.600 216.800 C 267.846 216.800,267.964 216.665,267.861 216.499 C 267.759 216.333,268.581 216.143,269.689 216.076 C 271.661 215.956,271.698 215.974,271.505 216.986 C 271.300 218.059,271.754 218.721,272.200 218.000 C 272.340 217.773,272.653 217.709,272.896 217.859 C 273.179 218.034,273.245 217.894,273.081 217.466 C 272.914 217.031,273.029 216.800,273.413 216.800 C 273.736 216.800,274.000 217.081,274.000 217.424 C 274.000 217.767,274.180 217.936,274.400 217.800 C 274.620 217.664,274.800 217.743,274.800 217.976 C 274.800 218.209,275.261 218.400,275.824 218.400 C 276.404 218.400,276.740 218.573,276.600 218.800 C 276.464 219.020,276.633 219.200,276.976 219.200 C 277.722 219.200,277.805 219.839,277.100 220.163 C 276.825 220.289,277.049 220.278,277.597 220.139 C 278.457 219.919,278.524 219.968,278.087 220.496 C 277.670 220.997,277.693 221.150,278.211 221.349 C 278.626 221.508,278.760 221.421,278.602 221.095 C 278.471 220.823,278.663 221.005,279.030 221.500 C 279.397 221.995,279.868 222.400,280.077 222.400 C 280.610 222.400,281.600 223.449,281.600 224.014 C 281.600 224.273,281.330 224.382,281.000 224.255 C 280.632 224.114,280.400 224.256,280.400 224.620 C 280.400 225.042,280.701 225.161,281.435 225.028 C 282.210 224.887,282.416 224.983,282.253 225.407 C 282.133 225.719,282.207 226.081,282.417 226.211 C 282.628 226.341,282.786 226.752,282.768 227.124 C 282.746 227.608,282.675 227.645,282.520 227.255 C 282.349 226.824,282.238 226.815,281.991 227.214 C 281.684 227.711,281.880 228.067,283.340 229.669 C 283.878 230.259,283.960 230.600,283.640 230.920 C 283.320 231.240,283.200 231.223,283.200 230.856 C 283.200 230.578,282.994 230.480,282.739 230.637 C 282.421 230.834,282.510 231.091,283.027 231.470 C 284.293 232.395,284.367 238.146,283.110 237.834 C 282.609 237.709,282.425 237.711,282.700 237.837 C 282.975 237.963,283.200 238.422,283.200 238.857 C 283.200 239.383,283.033 239.547,282.700 239.347 C 282.409 239.172,282.451 239.361,282.800 239.798 C 283.340 240.474,283.334 240.525,282.745 240.305 C 282.248 240.119,282.139 240.245,282.292 240.830 C 282.403 241.253,282.292 241.600,282.047 241.600 C 281.801 241.600,281.600 241.878,281.600 242.218 C 281.600 242.946,279.795 244.862,279.442 244.509 C 279.309 244.376,279.200 244.663,279.200 245.147 C 279.200 245.631,278.576 246.651,277.813 247.413 C 276.497 248.730,275.683 249.236,276.183 248.428 C 276.309 248.223,276.202 247.925,275.945 247.766 C 275.670 247.596,275.583 247.649,275.734 247.893 C 275.875 248.122,275.734 248.523,275.419 248.784 C 275.105 249.045,274.935 249.487,275.043 249.767 C 275.296 250.426,273.040 252.845,272.338 252.667 C 272.042 252.592,271.935 252.607,272.100 252.699 C 272.845 253.116,272.294 253.589,271.342 253.350 C 270.358 253.103,270.303 253.158,270.550 254.142 C 270.816 255.205,270.267 255.635,269.837 254.700 C 269.711 254.425,269.708 254.605,269.831 255.100 C 270.037 255.931,269.482 256.386,269.099 255.700 C 269.007 255.535,268.992 255.642,269.067 255.938 C 269.245 256.640,266.826 258.896,266.167 258.643 C 265.887 258.535,265.445 258.705,265.184 259.019 C 264.923 259.334,264.522 259.475,264.293 259.334 C 264.049 259.183,263.996 259.270,264.166 259.545 C 264.325 259.802,264.623 259.909,264.828 259.783 C 265.808 259.177,264.963 260.252,262.607 262.607 C 260.252 264.963,259.177 265.808,259.783 264.828 C 259.909 264.623,259.802 264.325,259.545 264.166 C 259.270 263.996,259.183 264.049,259.334 264.293 C 259.475 264.522,259.334 264.923,259.019 265.184 C 258.705 265.445,258.535 265.887,258.643 266.167 C 258.896 266.826,256.640 269.245,255.938 269.067 C 255.642 268.992,255.535 269.007,255.700 269.099 C 256.386 269.482,255.931 270.037,255.100 269.831 C 254.605 269.708,254.425 269.711,254.700 269.837 C 255.635 270.267,255.205 270.816,254.142 270.550 C 253.158 270.303,253.103 270.358,253.350 271.342 C 253.589 272.294,253.116 272.845,252.699 272.100 C 252.607 271.935,252.592 272.042,252.667 272.338 C 252.845 273.040,250.426 275.296,249.767 275.043 C 249.487 274.935,249.045 275.105,248.784 275.419 C 248.523 275.734,248.122 275.875,247.893 275.734 C 247.649 275.583,247.596 275.670,247.766 275.945 C 247.925 276.202,248.223 276.309,248.428 276.183 C 249.408 275.577,248.563 276.652,246.207 279.007 C 243.852 281.363,242.777 282.208,243.383 281.228 C 243.509 281.023,243.402 280.725,243.145 280.566 C 242.865 280.393,242.783 280.449,242.942 280.706 C 243.088 280.943,242.755 281.492,242.201 281.928 C 241.639 282.370,241.290 282.968,241.411 283.283 C 241.716 284.080,240.290 285.586,239.370 285.438 C 238.946 285.370,238.825 285.392,239.100 285.487 C 239.989 285.792,239.629 286.461,238.700 286.231 C 238.205 286.108,238.025 286.111,238.300 286.237 C 239.235 286.667,238.805 287.216,237.742 286.950 C 236.758 286.703,236.703 286.758,236.950 287.742 C 237.216 288.805,236.667 289.235,236.237 288.300 C 236.111 288.025,236.108 288.205,236.231 288.700 C 236.461 289.629,235.792 289.989,235.487 289.100 C 235.392 288.825,235.370 288.946,235.438 289.370 C 235.586 290.290,234.080 291.716,233.283 291.411 C 232.968 291.290,232.370 291.639,231.928 292.201 C 231.492 292.755,230.943 293.088,230.706 292.942 C 230.449 292.783,230.393 292.865,230.566 293.145 C 230.725 293.402,231.023 293.509,231.228 293.383 C 232.208 292.777,231.363 293.852,229.007 296.207 C 226.652 298.563,225.577 299.408,226.183 298.428 C 226.309 298.223,226.202 297.925,225.945 297.766 C 225.670 297.596,225.583 297.649,225.734 297.893 C 225.875 298.122,225.734 298.523,225.419 298.784 C 225.105 299.045,224.935 299.487,225.043 299.767 C 225.296 300.426,223.040 302.845,222.338 302.667 C 222.042 302.592,221.935 302.607,222.100 302.699 C 222.845 303.116,222.294 303.589,221.342 303.350 C 220.358 303.103,220.303 303.158,220.550 304.142 C 220.816 305.205,220.267 305.635,219.837 304.700 C 219.711 304.425,219.708 304.605,219.831 305.100 C 220.037 305.931,219.482 306.386,219.099 305.700 C 219.007 305.535,218.992 305.642,219.067 305.938 C 219.245 306.640,216.826 308.896,216.167 308.643 C 215.887 308.535,215.445 308.705,215.184 309.019 C 214.923 309.334,214.522 309.475,214.293 309.334 C 214.049 309.183,213.996 309.270,214.166 309.545 C 214.325 309.802,214.623 309.909,214.828 309.783 C 215.638 309.282,215.128 310.098,213.805 311.422 C 212.696 312.531,212.203 312.766,211.405 312.565 C 210.784 312.410,210.400 312.483,210.400 312.757 C 210.400 313.000,210.625 313.207,210.900 313.216 C 211.175 313.225,210.905 313.501,210.300 313.829 C 209.695 314.157,209.200 314.610,209.200 314.836 C 209.200 315.062,209.020 315.136,208.800 315.000 C 208.580 314.864,208.400 315.033,208.400 315.376 C 208.400 316.119,207.354 316.216,207.065 315.500 C 206.954 315.225,206.849 315.405,206.832 315.900 C 206.807 316.591,206.562 316.800,205.776 316.800 C 205.064 316.800,204.844 316.648,205.053 316.300 C 205.293 315.901,205.229 315.900,204.740 316.297 C 204.403 316.570,204.008 316.675,203.863 316.530 C 203.718 316.385,203.600 316.567,203.600 316.933 C 203.600 317.710,202.772 317.812,202.080 317.120 C 201.707 316.747,201.600 316.747,201.600 317.120 C 201.600 317.413,200.978 317.600,200.000 317.600 C 199.120 317.600,198.400 317.420,198.400 317.200 C 198.400 316.980,198.209 316.800,197.976 316.800 C 197.743 316.800,197.664 316.980,197.800 317.200 C 197.936 317.420,197.657 317.600,197.181 317.600 C 196.589 317.600,196.385 317.417,196.537 317.020 C 196.696 316.606,196.565 316.513,196.080 316.695 C 195.466 316.925,195.458 316.874,195.993 316.175 C 196.567 315.425,196.560 315.422,195.762 316.100 C 195.308 316.485,194.591 316.797,194.169 316.794 C 193.526 316.789,193.498 316.724,194.000 316.400 C 194.544 316.048,193.566 315.777,192.338 315.940 C 192.194 315.959,191.971 315.701,191.843 315.367 C 191.695 314.982,191.774 314.860,192.056 315.035 C 192.321 315.198,192.431 315.094,192.327 314.781 C 192.065 313.996,191.200 313.832,191.200 314.567 C 191.200 314.915,191.020 315.200,190.800 315.200 C 190.580 315.200,190.400 314.919,190.400 314.576 C 190.400 314.233,190.253 314.044,190.073 314.155 C 189.893 314.266,189.493 314.007,189.185 313.579 C 188.876 313.150,188.303 312.800,187.912 312.800 C 187.520 312.800,187.200 312.626,187.200 312.413 C 187.200 312.199,187.515 312.138,187.900 312.276 C 188.285 312.414,188.510 312.454,188.400 312.364 C 188.290 312.274,187.676 311.750,187.035 311.200 C 186.395 310.650,186.001 310.425,186.159 310.700 C 186.628 311.515,186.036 311.272,184.982 310.218 C 183.808 309.045,183.657 308.366,184.800 309.400 C 185.722 310.235,185.898 309.841,185.003 308.946 C 184.675 308.618,184.241 308.451,184.039 308.576 C 183.548 308.879,182.400 308.416,182.400 307.914 C 182.400 307.694,182.679 307.622,183.021 307.753 C 183.390 307.894,183.538 307.824,183.387 307.579 C 183.247 307.353,182.788 307.277,182.366 307.411 C 181.641 307.641,181.259 307.057,181.900 306.699 C 182.065 306.607,181.967 306.589,181.681 306.660 C 180.843 306.869,178.373 304.153,178.643 303.319 C 178.838 302.715,178.805 302.696,178.438 303.200 C 177.980 303.828,177.212 303.202,177.212 302.200 C 177.212 301.980,177.387 302.070,177.600 302.400 C 177.813 302.730,177.985 302.820,177.981 302.600 C 177.977 302.380,177.662 301.840,177.281 301.400 C 176.368 300.344,174.956 299.249,175.347 299.900 C 175.754 300.577,175.276 300.533,174.571 299.829 C 173.867 299.124,173.823 298.646,174.500 299.053 C 174.840 299.257,174.824 299.137,174.451 298.677 C 173.857 297.944,173.398 297.749,173.800 298.400 C 174.168 298.996,173.626 298.883,172.971 298.229 C 172.317 297.574,172.204 297.032,172.800 297.400 C 173.537 297.856,173.210 297.349,172.135 296.370 C 171.550 295.836,171.201 295.625,171.359 295.900 C 171.749 296.576,171.276 296.533,170.571 295.829 C 169.867 295.124,169.824 294.653,170.500 295.036 C 171.047 295.347,168.686 292.683,167.400 291.539 C 166.960 291.147,166.420 290.823,166.200 290.819 C 165.980 290.815,166.070 290.987,166.400 291.200 C 166.730 291.413,166.820 291.588,166.600 291.588 C 165.598 291.588,164.972 290.820,165.600 290.362 C 166.104 289.995,166.085 289.962,165.481 290.157 C 164.647 290.427,161.931 287.957,162.140 287.119 C 162.211 286.833,162.193 286.735,162.101 286.900 C 161.743 287.541,161.159 287.159,161.389 286.434 C 161.523 286.012,161.447 285.553,161.221 285.413 C 160.976 285.262,160.906 285.410,161.047 285.779 C 161.178 286.121,161.106 286.400,160.886 286.400 C 160.384 286.400,159.921 285.252,160.224 284.761 C 160.349 284.559,160.182 284.125,159.854 283.797 C 158.959 282.902,158.565 283.078,159.400 284.000 C 160.434 285.143,159.755 284.992,158.582 283.818 C 157.589 282.826,157.264 282.145,158.000 282.600 C 158.822 283.108,158.346 282.514,156.542 280.783 C 155.520 279.802,154.811 279.225,154.966 279.500 C 155.346 280.176,154.876 280.133,154.171 279.429 C 153.517 278.774,153.404 278.232,154.000 278.600 C 154.737 279.056,154.410 278.549,153.335 277.570 C 152.750 277.036,152.401 276.825,152.559 277.100 C 153.028 277.915,152.436 277.672,151.382 276.618 C 150.208 275.445,150.057 274.766,151.200 275.800 C 152.106 276.620,152.306 276.249,151.430 275.373 C 151.104 275.047,150.561 274.917,150.164 275.069 C 149.694 275.250,149.561 275.186,149.755 274.873 C 149.942 274.570,149.826 274.492,149.421 274.647 C 148.686 274.929,148.573 274.171,149.300 273.837 C 149.575 273.711,149.395 273.708,148.900 273.831 C 148.069 274.037,147.614 273.482,148.300 273.099 C 148.465 273.007,148.365 272.990,148.078 273.062 C 147.399 273.231,145.569 271.401,145.738 270.722 C 145.810 270.435,145.793 270.335,145.701 270.500 C 145.318 271.186,144.763 270.731,144.969 269.900 C 145.092 269.405,145.089 269.225,144.963 269.500 C 144.629 270.227,143.871 270.114,144.153 269.379 C 144.297 269.002,144.225 268.861,143.969 269.019 C 143.736 269.163,143.587 269.037,143.636 268.740 C 143.759 268.002,143.200 266.800,142.734 266.800 C 142.524 266.800,142.464 266.980,142.600 267.200 C 142.968 267.796,142.426 267.683,141.771 267.029 C 141.117 266.374,141.004 265.832,141.600 266.200 C 142.337 266.656,142.010 266.149,140.935 265.170 C 140.350 264.636,140.001 264.425,140.159 264.700 C 140.549 265.376,140.076 265.333,139.371 264.629 C 138.717 263.974,138.604 263.432,139.200 263.800 C 140.022 264.308,139.546 263.714,137.742 261.983 C 136.720 261.002,136.011 260.425,136.166 260.700 C 136.623 261.512,136.037 261.274,134.982 260.218 C 133.808 259.045,133.657 258.366,134.800 259.400 C 135.722 260.235,135.898 259.841,135.003 258.946 C 134.675 258.618,134.241 258.451,134.039 258.576 C 133.548 258.879,132.400 258.416,132.400 257.914 C 132.400 257.694,132.679 257.622,133.021 257.753 C 133.390 257.894,133.538 257.824,133.387 257.579 C 133.247 257.353,132.788 257.277,132.366 257.411 C 131.641 257.641,131.259 257.057,131.900 256.699 C 132.065 256.607,131.967 256.589,131.681 256.660 C 130.843 256.869,128.373 254.153,128.643 253.319 C 128.838 252.715,128.805 252.696,128.438 253.200 C 127.980 253.828,127.212 253.202,127.212 252.200 C 127.212 251.980,127.387 252.070,127.600 252.400 C 127.813 252.730,127.985 252.820,127.981 252.600 C 127.977 252.380,127.662 251.840,127.281 251.400 C 126.368 250.344,124.956 249.249,125.347 249.900 C 125.754 250.577,125.276 250.533,124.571 249.829 C 123.917 249.174,123.804 248.632,124.400 249.000 C 125.051 249.402,124.856 248.943,124.123 248.349 C 123.663 247.976,123.543 247.960,123.747 248.300 C 124.154 248.977,123.676 248.933,122.971 248.229 C 122.317 247.574,122.204 247.032,122.800 247.400 C 123.537 247.856,123.210 247.349,122.135 246.370 C 121.550 245.836,121.201 245.625,121.359 245.900 C 121.520 246.180,121.440 246.400,121.177 246.400 C 120.904 246.400,120.794 246.065,120.916 245.600 C 121.055 245.069,120.928 244.800,120.539 244.800 C 120.217 244.800,120.064 244.620,120.200 244.400 C 120.336 244.180,120.187 244.000,119.868 244.000 C 119.550 244.000,119.314 243.685,119.344 243.300 C 119.375 242.915,119.207 242.634,118.971 242.676 C 118.735 242.718,118.555 242.359,118.571 241.877 C 118.589 241.335,118.257 240.851,117.700 240.606 C 116.726 240.178,116.523 239.418,117.262 238.962 C 117.520 238.802,117.616 238.851,117.479 239.072 C 117.345 239.289,117.467 239.467,117.751 239.467 C 118.792 239.467,118.229 238.465,117.033 238.191 L 115.800 237.909 116.800 237.594 C 117.732 237.301,117.740 237.174,116.833 237.050 C 116.148 236.957,115.926 236.463,116.192 235.624 C 116.338 235.165,116.625 234.892,116.829 235.018 C 117.033 235.144,117.200 234.972,117.200 234.636 C 117.200 234.250,116.973 234.112,116.584 234.261 C 116.088 234.452,115.988 234.208,116.069 233.004 C 116.124 232.182,116.401 231.421,116.685 231.312 C 116.968 231.203,117.194 230.729,117.187 230.257 C 117.175 229.417,117.163 229.416,116.587 230.176 C 116.033 230.910,116.000 230.880,116.000 229.634 C 116.000 228.621,116.140 228.368,116.605 228.547 C 117.086 228.731,117.156 228.563,116.947 227.730 C 116.773 227.039,116.828 226.770,117.106 226.942 C 117.974 227.479,118.910 226.770,118.112 226.180 C 117.541 225.758,117.499 225.553,117.900 225.147 C 118.175 224.868,118.400 224.398,118.400 224.102 C 118.400 223.185,120.366 221.501,121.106 221.785 C 121.474 221.927,121.652 221.919,121.502 221.769 C 121.044 221.311,122.018 219.921,122.631 220.156 C 122.944 220.277,123.200 220.201,123.200 219.987 C 123.200 219.774,123.335 219.621,123.500 219.647 C 124.321 219.777,124.726 219.524,124.926 218.760 C 125.049 218.293,125.337 218.038,125.576 218.185 C 125.813 218.332,126.174 218.035,126.378 217.526 C 126.587 217.005,126.763 216.863,126.781 217.200 C 126.809 217.733,126.855 217.733,127.200 217.200 C 127.601 216.580,127.829 217.132,127.614 218.200 C 127.570 218.420,127.683 218.450,127.867 218.267 C 128.193 217.941,128.248 217.757,128.350 216.665 C 128.381 216.333,128.969 216.109,129.900 216.076 C 131.062 216.034,131.265 216.118,130.800 216.449 C 130.319 216.791,130.358 216.822,131.000 216.603 C 132.590 216.062,133.141 216.068,133.356 216.629 C 133.543 217.116,137.160 217.186,158.087 217.105 L 182.600 217.009 158.000 216.800 L 133.400 216.591 157.900 216.495 L 182.400 216.400 182.400 157.424 C 182.400 116.717,182.530 98.367,182.819 98.188 C 183.104 98.012,183.080 97.737,182.745 97.334 C 182.450 96.979,182.403 96.630,182.626 96.470 C 183.233 96.033,184.030 94.265,184.103 93.193 C 184.180 92.065,184.928 91.134,185.630 91.293 C 185.889 91.352,186.178 90.881,186.272 90.247 C 186.365 89.613,186.837 88.745,187.321 88.317 C 187.804 87.889,187.975 87.653,187.700 87.793 C 187.425 87.933,187.200 87.857,187.200 87.624 C 187.200 87.391,187.488 87.200,187.840 87.200 C 188.191 87.200,188.983 86.660,189.600 86.000 C 190.217 85.340,191.009 84.800,191.360 84.800 C 191.712 84.800,192.000 84.620,192.000 84.400 C 192.000 84.180,192.191 84.000,192.424 84.000 C 192.657 84.000,192.758 84.144,192.650 84.319 C 191.900 85.533,193.322 85.685,194.341 84.500 C 194.955 83.785,195.670 83.200,195.929 83.200 C 196.188 83.200,196.400 83.065,196.400 82.900 C 196.400 82.169,201.598 82.359,201.646 83.091 M119.663 222.933 C 119.018 223.619,118.941 223.867,119.371 223.867 C 119.692 223.867,119.921 223.672,119.878 223.433 C 119.835 223.195,119.995 223.035,120.233 223.078 C 120.472 223.121,120.667 222.896,120.667 222.578 C 120.667 221.843,120.697 221.832,119.663 222.933 M284.000 229.092 C 284.000 229.585,283.888 229.605,283.400 229.200 C 283.070 228.926,282.800 228.550,282.800 228.364 C 282.800 228.177,283.070 228.129,283.400 228.255 C 283.730 228.382,284.000 228.758,284.000 229.092 M273.429 250.229 C 273.062 250.595,272.852 250.985,272.962 251.095 C 273.072 251.205,273.462 250.995,273.829 250.629 C 274.195 250.262,274.405 249.872,274.295 249.762 C 274.185 249.652,273.795 249.862,273.429 250.229 M127.021 251.912 C 126.805 252.128,125.600 250.988,125.600 250.567 C 125.600 250.407,125.961 250.603,126.402 251.002 C 126.844 251.402,127.122 251.811,127.021 251.912 M138.620 263.513 C 138.412 263.722,136.400 261.756,136.400 261.343 C 136.400 261.182,136.938 261.566,137.596 262.196 C 138.254 262.826,138.714 263.419,138.620 263.513 M250.229 273.429 C 249.862 273.795,249.652 274.185,249.762 274.295 C 249.872 274.405,250.262 274.195,250.629 273.829 C 250.995 273.462,251.205 273.072,251.095 272.962 C 250.985 272.852,250.595 273.062,250.229 273.429 M244.998 278.402 C 244.225 279.257,244.489 280.071,245.283 279.277 C 245.694 278.866,246.104 277.600,245.827 277.600 C 245.770 277.600,245.397 277.961,244.998 278.402 M157.420 282.313 C 157.212 282.522,155.200 280.556,155.200 280.143 C 155.200 279.982,155.738 280.366,156.396 280.996 C 157.054 281.626,157.514 282.219,157.420 282.313 M242.676 282.581 C 241.764 283.493,241.354 283.335,242.202 282.398 C 242.602 281.956,243.011 281.678,243.112 281.779 C 243.213 281.879,243.017 282.240,242.676 282.581 M239.829 283.829 C 239.462 284.195,239.252 284.585,239.362 284.695 C 239.472 284.805,239.862 284.595,240.229 284.229 C 240.595 283.862,240.805 283.472,240.695 283.362 C 240.585 283.252,240.195 283.462,239.829 283.829 M233.829 289.829 C 233.462 290.195,233.252 290.585,233.362 290.695 C 233.472 290.805,233.862 290.595,234.229 290.229 C 234.595 289.862,234.805 289.472,234.695 289.362 C 234.585 289.252,234.195 289.462,233.829 289.829 M169.819 294.714 C 169.614 294.919,166.800 292.140,166.800 291.732 C 166.800 291.570,167.517 292.137,168.393 292.993 C 169.269 293.848,169.911 294.623,169.819 294.714 M232.676 292.581 C 231.764 293.493,231.354 293.335,232.202 292.398 C 232.602 291.956,233.011 291.678,233.112 291.779 C 233.213 291.879,233.017 292.240,232.676 292.581 M228.227 295.170 C 227.744 295.704,227.694 295.915,228.065 295.858 C 228.846 295.740,229.600 295.209,229.600 294.776 C 229.600 294.165,228.975 294.344,228.227 295.170 M223.429 300.229 C 223.062 300.595,222.852 300.985,222.962 301.095 C 223.072 301.205,223.462 300.995,223.829 300.629 C 224.195 300.262,224.405 299.872,224.295 299.762 C 224.185 299.652,223.795 299.862,223.429 300.229 M177.021 301.912 C 176.805 302.128,175.600 300.988,175.600 300.567 C 175.600 300.407,175.961 300.603,176.402 301.002 C 176.844 301.402,177.122 301.811,177.021 301.912 M7.017 375.972 C 6.744 376.414,7.375 376.892,7.744 376.522 C 8.125 376.142,8.054 375.600,7.624 375.600 C 7.417 375.600,7.144 375.768,7.017 375.972 M365.873 397.355 C 365.723 397.744,365.890 397.849,366.430 397.708 C 367.316 397.476,367.474 396.800,366.643 396.800 C 366.336 396.800,365.990 397.050,365.873 397.355 " stroke="none" fill="#3c54b4" fill-rule="evenodd"></path><path id="path1" d="M41.054 0.280 C 40.900 0.434,39.945 0.508,38.931 0.446 C 37.490 0.357,37.135 0.454,37.303 0.890 C 37.464 1.310,37.184 1.422,36.171 1.342 C 35.431 1.283,34.719 1.408,34.589 1.618 C 34.459 1.828,33.823 2.000,33.176 2.000 C 32.432 2.000,32.000 2.207,32.000 2.563 C 32.000 2.927,31.720 3.052,31.205 2.917 C 30.717 2.790,30.321 2.941,30.179 3.310 C 30.040 3.673,29.641 3.831,29.174 3.709 C 28.748 3.598,28.400 3.708,28.400 3.953 C 28.400 4.199,28.130 4.400,27.800 4.400 C 27.470 4.400,27.200 4.567,27.200 4.772 C 27.200 4.977,26.795 5.222,26.300 5.318 L 25.400 5.491 26.300 5.546 C 26.848 5.579,27.200 5.858,27.200 6.261 C 27.200 6.838,27.289 6.825,27.900 6.161 C 28.582 5.419,29.265 5.115,30.317 5.082 C 30.602 5.074,30.748 4.841,30.642 4.564 C 30.508 4.217,30.760 4.118,31.456 4.245 C 32.086 4.359,32.368 4.272,32.208 4.014 C 32.068 3.786,32.143 3.600,32.376 3.600 C 32.609 3.600,32.805 3.825,32.812 4.100 C 32.819 4.375,33.010 4.281,33.237 3.892 C 33.464 3.502,33.818 3.288,34.025 3.415 C 34.231 3.543,34.423 3.457,34.450 3.224 C 34.477 2.991,34.523 2.620,34.550 2.400 C 34.578 2.180,34.735 2.000,34.900 2.000 C 35.065 2.000,35.326 2.000,35.480 2.000 C 35.634 2.000,35.544 2.216,35.280 2.480 C 34.687 3.073,34.660 3.600,35.224 3.600 C 35.457 3.600,35.565 3.465,35.466 3.300 C 35.366 3.135,35.535 2.768,35.842 2.484 C 36.164 2.187,36.400 2.144,36.400 2.384 C 36.400 3.068,37.574 2.856,38.484 2.007 C 39.089 1.444,39.478 1.333,39.829 1.624 C 40.174 1.910,40.385 1.878,40.530 1.517 C 40.688 1.121,40.744 1.117,40.768 1.500 C 40.786 1.775,40.991 2.000,41.224 2.000 C 41.457 2.000,41.544 1.832,41.417 1.627 C 41.290 1.422,41.684 1.179,42.293 1.087 L 43.400 0.920 42.276 0.860 C 41.641 0.826,41.260 0.626,41.400 0.400 C 41.684 -0.059,41.468 -0.134,41.054 0.280 M43.767 0.454 C 43.564 0.782,43.738 0.857,44.338 0.700 C 44.813 0.576,45.100 0.638,44.977 0.837 C 44.854 1.037,45.224 1.200,45.800 1.200 C 46.396 1.200,46.741 1.028,46.600 0.800 C 46.464 0.580,46.533 0.400,46.753 0.400 C 46.973 0.400,47.264 0.580,47.400 0.800 C 47.758 1.380,48.400 1.291,48.400 0.662 C 48.400 -0.042,44.190 -0.231,43.767 0.454 M351.600 0.669 C 351.600 1.250,353.280 1.210,353.694 0.619 C 353.898 0.328,353.990 0.329,353.994 0.624 C 353.997 0.862,354.897 1.061,356.048 1.078 C 357.313 1.097,358.229 1.318,358.442 1.655 C 358.705 2.070,358.789 2.015,358.794 1.424 C 358.800 0.655,358.806 0.655,359.387 1.424 C 359.967 2.190,359.975 2.189,360.015 1.400 C 360.052 0.691,360.088 0.680,360.333 1.299 C 360.588 1.943,360.648 1.936,361.108 1.199 C 361.554 0.484,361.506 0.400,360.653 0.400 C 360.129 0.400,359.110 0.282,358.388 0.138 C 357.445 -0.051,357.156 0.005,357.361 0.338 C 357.519 0.592,357.467 0.800,357.247 0.800 C 357.027 0.800,356.730 0.610,356.586 0.377 C 356.217 -0.220,351.600 0.051,351.600 0.669 M362.000 1.550 C 362.000 2.523,362.161 2.700,363.045 2.700 C 363.621 2.700,364.240 2.940,364.421 3.234 C 364.688 3.667,364.895 3.638,365.507 3.084 C 366.440 2.240,367.600 2.193,367.600 3.000 C 367.600 3.330,367.420 3.600,367.200 3.600 C 366.980 3.600,366.800 3.751,366.800 3.936 C 366.800 4.120,367.340 4.239,368.000 4.200 C 368.660 4.161,369.200 4.259,369.200 4.418 C 369.200 4.577,369.605 4.838,370.100 5.000 C 370.595 5.161,371.090 5.332,371.200 5.381 C 371.310 5.429,371.714 5.607,372.098 5.776 C 372.481 5.946,372.679 6.273,372.536 6.504 C 372.390 6.740,372.467 6.806,372.712 6.654 C 372.952 6.506,373.620 6.856,374.197 7.433 C 374.868 8.105,375.525 8.408,376.023 8.278 C 376.455 8.165,376.812 8.280,376.828 8.537 C 376.844 8.792,377.001 8.640,377.178 8.200 C 377.355 7.760,377.422 7.265,377.326 7.100 C 377.054 6.629,376.389 6.750,376.500 7.250 C 376.555 7.498,376.367 7.785,376.083 7.889 C 375.710 8.025,375.635 7.802,375.812 7.094 C 375.997 6.359,375.874 6.044,375.330 5.854 C 374.928 5.714,374.330 5.496,374.000 5.369 C 373.467 5.165,373.467 5.186,374.000 5.563 C 374.460 5.888,374.474 5.989,374.063 5.994 C 373.767 5.997,373.431 5.640,373.316 5.200 C 373.201 4.760,372.847 4.400,372.530 4.400 C 372.195 4.400,372.073 4.594,372.238 4.862 C 372.415 5.148,372.348 5.215,372.062 5.038 C 371.808 4.881,371.600 4.493,371.600 4.176 C 371.600 3.859,371.240 3.600,370.800 3.600 C 370.360 3.600,370.000 3.399,370.000 3.153 C 370.000 2.895,369.587 2.786,369.020 2.894 C 368.436 3.006,368.072 2.903,368.120 2.641 C 368.164 2.398,367.660 2.141,367.000 2.069 C 366.340 1.997,365.629 1.772,365.420 1.569 C 364.877 1.041,363.451 1.113,362.835 1.700 C 362.407 2.108,362.360 2.034,362.582 1.300 C 362.745 0.759,362.684 0.400,362.427 0.400 C 362.192 0.400,362.000 0.918,362.000 1.550 M24.000 6.400 C 24.000 6.620,23.764 6.800,23.475 6.800 C 23.187 6.800,22.564 7.160,22.092 7.600 C 21.620 8.040,20.956 8.400,20.617 8.400 C 19.939 8.400,19.783 9.838,20.362 10.753 C 20.637 11.187,20.771 11.123,20.983 10.453 C 21.162 9.890,21.585 9.600,22.227 9.600 C 22.762 9.600,23.200 9.423,23.200 9.208 C 23.200 8.992,23.644 8.704,24.186 8.568 C 24.728 8.432,25.280 7.978,25.413 7.560 C 25.545 7.142,25.922 6.800,26.251 6.800 C 26.579 6.800,26.736 6.620,26.600 6.400 C 26.464 6.180,25.823 6.000,25.176 6.000 C 24.529 6.000,24.000 6.180,24.000 6.400 M377.600 8.104 C 377.600 8.873,378.975 9.589,379.636 9.163 C 380.083 8.875,380.013 8.749,379.300 8.553 C 378.805 8.418,378.400 8.148,378.400 7.953 C 378.400 7.759,378.220 7.600,378.000 7.600 C 377.780 7.600,377.600 7.827,377.600 8.104 M19.000 9.608 C 18.780 9.811,17.935 10.532,17.121 11.211 C 16.136 12.033,15.715 12.672,15.859 13.123 C 16.033 13.668,15.997 13.690,15.673 13.234 C 15.344 12.771,15.033 12.905,13.969 13.969 C 12.905 15.033,12.771 15.344,13.234 15.673 C 13.690 15.997,13.669 16.033,13.124 15.859 C 12.674 15.716,12.071 16.113,11.324 17.047 C 10.706 17.818,9.932 18.739,9.604 19.092 C 9.063 19.675,9.119 19.707,10.204 19.438 C 10.862 19.275,11.460 18.974,11.533 18.770 C 11.607 18.567,11.932 18.400,12.257 18.400 C 12.582 18.400,12.736 18.220,12.600 18.000 C 12.464 17.780,12.535 17.600,12.758 17.600 C 12.981 17.600,13.622 17.142,14.182 16.582 C 15.238 15.526,15.525 14.952,14.760 15.425 C 14.456 15.613,14.462 15.431,14.781 14.836 C 15.034 14.362,15.547 14.025,15.921 14.087 C 16.294 14.149,16.557 13.981,16.505 13.714 C 16.450 13.434,16.661 13.325,17.005 13.457 C 17.419 13.616,17.600 13.422,17.600 12.819 C 17.600 12.343,17.780 12.064,18.000 12.200 C 18.220 12.336,18.400 12.269,18.400 12.051 C 18.400 11.832,18.778 11.534,19.240 11.387 C 19.813 11.206,19.950 10.990,19.672 10.712 C 19.447 10.487,19.358 10.054,19.474 9.751 C 19.716 9.122,19.575 9.079,19.000 9.608 M380.400 9.614 C 380.400 9.873,380.130 9.982,379.800 9.855 C 379.373 9.692,379.209 9.882,379.232 10.513 C 379.249 11.008,379.357 11.164,379.476 10.866 C 379.620 10.507,380.387 11.031,381.821 12.466 C 384.543 15.191,385.060 15.607,385.357 15.309 C 385.491 15.176,385.613 15.412,385.629 15.833 C 385.645 16.255,386.310 17.140,387.108 17.800 C 387.906 18.460,388.430 18.788,388.273 18.529 C 388.094 18.232,388.317 18.009,388.872 17.929 C 389.642 17.816,389.346 17.379,386.548 14.500 C 383.341 11.200,382.668 10.763,382.237 11.700 C 382.111 11.975,382.108 11.795,382.231 11.300 C 382.353 10.805,382.275 10.400,382.056 10.400 C 381.836 10.400,381.374 10.117,381.029 9.771 C 380.635 9.378,380.400 9.319,380.400 9.614 M389.214 19.174 C 388.688 20.158,388.680 20.921,389.200 20.600 C 389.420 20.464,389.600 20.554,389.600 20.800 C 389.600 21.046,389.780 21.136,390.000 21.000 C 390.220 20.864,390.400 21.104,390.400 21.534 C 390.400 21.963,390.700 22.430,391.067 22.570 C 391.853 22.872,392.809 22.119,392.193 21.683 C 391.973 21.528,391.438 20.725,391.005 19.900 C 390.113 18.199,389.803 18.074,389.214 19.174 M8.400 20.649 C 8.400 21.162,8.518 21.200,8.964 20.830 C 9.331 20.525,9.616 20.502,9.777 20.763 C 9.914 20.984,10.305 21.058,10.646 20.927 C 11.148 20.734,11.165 20.624,10.734 20.350 C 9.811 19.765,8.400 19.946,8.400 20.649 M8.490 21.399 C 7.989 21.619,7.360 22.294,7.092 22.899 C 6.824 23.505,6.469 24.000,6.302 24.000 C 6.136 24.000,6.000 24.538,6.000 25.197 C 6.000 25.960,5.710 26.574,5.200 26.893 C 4.760 27.168,4.400 27.619,4.400 27.896 C 4.400 28.173,4.220 28.400,4.000 28.400 C 3.780 28.400,3.600 28.558,3.600 28.750 C 3.600 28.943,4.047 29.100,4.593 29.100 C 5.139 29.100,5.508 28.975,5.414 28.823 C 5.320 28.670,5.593 28.293,6.021 27.985 C 6.450 27.676,6.800 27.113,6.800 26.734 C 6.800 26.355,7.134 25.810,7.543 25.523 C 8.414 24.909,9.065 23.200,8.427 23.200 C 8.192 23.200,8.003 22.885,8.006 22.500 C 8.010 22.026,8.111 21.955,8.317 22.279 C 8.709 22.897,9.726 22.292,9.539 21.552 C 9.434 21.133,9.181 21.096,8.490 21.399 M392.000 23.367 C 392.000 24.318,392.463 25.208,392.837 24.977 C 393.032 24.857,393.084 25.038,392.953 25.379 C 392.732 25.955,393.208 26.207,394.168 26.025 C 394.370 25.986,394.341 26.190,394.103 26.477 C 393.622 27.059,393.892 29.200,394.447 29.200 C 394.641 29.200,394.800 29.560,394.800 30.000 C 394.800 30.440,394.980 30.800,395.200 30.800 C 395.420 30.800,395.600 31.263,395.600 31.829 C 395.600 32.394,395.849 33.106,396.152 33.410 C 396.790 34.047,397.245 33.784,396.930 32.961 C 396.811 32.652,396.914 32.400,397.157 32.400 C 397.401 32.400,397.600 32.959,397.600 33.643 C 397.600 34.583,397.454 34.830,397.000 34.655 C 396.646 34.519,396.400 34.651,396.400 34.975 C 396.400 35.317,396.685 35.450,397.155 35.328 C 397.570 35.219,398.029 35.324,398.176 35.561 C 398.340 35.826,398.204 35.900,397.821 35.753 C 396.986 35.432,396.969 37.426,397.800 38.257 C 398.130 38.587,398.400 38.664,398.400 38.429 C 398.400 38.193,398.608 38.000,398.862 38.000 C 399.138 38.000,399.058 38.294,398.662 38.731 C 397.946 39.523,397.726 41.816,398.407 41.396 C 398.630 41.258,398.691 40.932,398.542 40.672 C 398.389 40.405,398.428 40.343,398.631 40.528 C 398.828 40.709,398.992 41.143,398.995 41.494 C 398.998 41.844,399.215 42.203,399.478 42.292 C 400.104 42.502,399.738 40.336,399.076 39.915 C 398.715 39.686,398.721 39.611,399.100 39.606 C 399.388 39.603,399.600 39.090,399.600 38.400 C 399.600 37.740,399.420 37.200,399.200 37.200 C 398.980 37.200,398.800 36.658,398.800 35.995 C 398.800 35.332,398.641 34.477,398.447 34.095 C 398.252 33.713,397.871 32.860,397.600 32.200 C 396.773 30.186,396.530 29.800,396.090 29.800 C 395.857 29.800,395.532 29.665,395.367 29.500 C 395.202 29.335,395.367 29.200,395.733 29.200 C 396.100 29.200,396.400 29.020,396.400 28.800 C 396.400 28.580,396.220 28.400,396.000 28.400 C 395.780 28.400,395.600 28.130,395.600 27.800 C 395.600 27.470,395.420 27.200,395.200 27.200 C 394.980 27.200,394.800 26.917,394.800 26.571 C 394.800 26.226,394.528 25.671,394.196 25.339 C 393.864 25.007,393.695 24.570,393.820 24.368 C 393.945 24.165,393.857 24.000,393.624 24.000 C 393.391 24.000,393.200 23.730,393.200 23.400 C 393.200 23.070,392.930 22.800,392.600 22.800 C 392.270 22.800,392.000 23.055,392.000 23.367 M3.665 29.839 C 3.189 30.173,2.821 30.750,2.846 31.123 C 2.887 31.711,2.915 31.716,3.064 31.159 C 3.182 30.719,3.545 30.577,4.218 30.706 C 4.921 30.840,5.200 30.716,5.200 30.270 C 5.200 29.327,4.627 29.166,3.665 29.839 M2.000 33.249 C 2.000 33.856,1.830 34.458,1.622 34.587 C 1.414 34.715,1.303 35.432,1.375 36.180 C 1.475 37.207,1.372 37.487,0.953 37.327 C 0.559 37.175,0.400 37.455,0.400 38.301 C 0.400 38.954,0.295 40.368,0.167 41.444 C 0.012 42.749,0.062 43.218,0.319 42.855 C 0.643 42.394,0.737 42.394,0.920 42.855 C 1.039 43.155,1.151 42.894,1.168 42.276 C 1.186 41.635,1.372 41.259,1.600 41.400 C 1.820 41.536,2.000 41.457,2.000 41.224 C 2.000 40.991,1.775 40.797,1.500 40.794 C 1.190 40.790,1.152 40.676,1.400 40.494 C 2.034 40.028,1.986 38.431,1.345 38.676 C 1.045 38.791,0.800 38.686,0.800 38.443 C 0.800 38.199,1.250 38.000,1.800 38.000 C 2.533 38.000,2.800 37.787,2.800 37.200 C 2.800 36.760,2.613 36.400,2.384 36.400 C 2.144 36.400,2.187 36.164,2.484 35.842 C 2.768 35.535,3.135 35.366,3.300 35.466 C 3.465 35.565,3.600 35.457,3.600 35.224 C 3.600 34.684,2.926 34.672,2.596 35.207 C 2.458 35.430,2.174 35.508,1.966 35.379 C 1.394 35.026,1.943 34.400,2.824 34.400 C 3.251 34.400,3.579 34.265,3.553 34.100 C 3.435 33.354,3.629 32.771,3.933 32.959 C 4.117 33.072,4.267 32.935,4.267 32.655 C 4.267 32.362,3.785 32.145,3.133 32.145 C 2.163 32.145,2.000 32.304,2.000 33.249 M399.056 44.018 C 398.709 45.756,398.734 46.488,399.133 46.241 C 399.317 46.128,399.467 46.289,399.467 46.600 C 399.467 46.911,399.299 47.061,399.095 46.935 C 398.890 46.809,398.785 47.027,398.862 47.419 C 399.222 49.277,400.000 48.393,399.994 46.133 C 399.987 43.336,399.440 42.102,399.056 44.018 M0.287 43.846 C -0.287 44.421,-0.031 47.067,0.600 47.067 C 0.986 47.067,1.190 46.698,1.172 46.033 C 1.135 44.680,0.651 43.482,0.287 43.846 M0.237 47.540 C 0.098 47.766,0.026 48.501,0.077 49.175 C 0.180 50.531,1.200 50.895,1.200 49.576 C 1.200 49.123,1.020 48.864,0.800 49.000 C 0.580 49.136,0.400 49.072,0.400 48.857 C 0.400 48.642,0.625 48.384,0.900 48.283 C 1.275 48.146,1.286 47.979,0.945 47.615 C 0.646 47.296,0.404 47.270,0.237 47.540 M398.800 49.600 C 398.800 50.053,399.067 50.400,399.414 50.400 C 399.904 50.400,399.942 50.239,399.600 49.600 C 399.365 49.160,399.088 48.800,398.986 48.800 C 398.884 48.800,398.800 49.160,398.800 49.600 M196.400 82.900 C 196.400 83.065,196.124 83.200,195.787 83.200 C 195.451 83.200,195.076 83.459,194.954 83.775 C 194.831 84.096,194.439 84.256,194.067 84.137 C 193.494 83.954,193.484 83.986,194.000 84.362 C 194.533 84.751,194.533 84.844,194.000 85.194 C 193.638 85.432,193.589 85.590,193.876 85.594 C 194.138 85.597,194.464 85.420,194.600 85.200 C 194.736 84.980,195.366 84.800,196.000 84.800 C 196.634 84.800,197.264 84.620,197.400 84.400 C 197.735 83.858,202.284 83.889,202.622 84.435 C 202.769 84.674,203.218 84.784,203.619 84.679 C 204.020 84.574,204.720 84.749,205.175 85.067 C 205.629 85.386,206.162 85.547,206.359 85.425 C 206.555 85.304,206.819 85.474,206.946 85.802 C 207.072 86.131,207.436 86.400,207.754 86.400 C 208.073 86.400,208.396 86.588,208.473 86.818 C 208.549 87.048,209.006 87.265,209.489 87.302 C 209.971 87.338,210.286 87.447,210.188 87.545 C 210.091 87.643,210.745 88.518,211.641 89.491 C 212.538 90.464,213.620 92.049,214.047 93.013 C 214.474 93.978,214.974 94.860,215.158 94.974 C 215.342 95.088,215.406 95.635,215.300 96.190 C 215.098 97.243,215.500 97.483,216.320 96.800 C 216.669 96.509,216.691 96.531,216.400 96.880 C 216.137 97.195,216.000 117.988,216.000 157.485 L 216.000 217.610 242.869 217.594 C 260.728 217.584,269.877 217.717,270.149 217.989 C 270.894 218.734,271.428 218.418,271.523 217.179 L 271.616 215.959 269.646 216.078 C 268.562 216.144,267.747 216.315,267.835 216.457 C 267.923 216.600,267.736 216.816,267.418 216.938 C 267.016 217.092,266.904 216.953,267.051 216.480 C 267.239 215.871,267.214 215.873,266.810 216.500 C 266.389 217.156,264.817 217.194,241.880 217.105 L 217.400 217.009 242.000 216.800 L 266.600 216.591 241.903 216.495 L 217.205 216.400 217.103 158.238 C 217.046 126.249,217.135 100.160,217.300 100.262 C 217.465 100.364,217.600 99.556,217.600 98.466 C 217.600 96.460,216.949 95.636,215.864 96.267 C 215.609 96.416,215.715 96.177,216.100 95.737 C 216.485 95.297,216.797 94.591,216.794 94.169 C 216.789 93.585,216.705 93.531,216.444 93.943 C 216.025 94.603,215.726 94.113,215.820 92.921 C 215.858 92.438,215.647 91.950,215.351 91.837 C 215.055 91.723,214.920 91.353,215.050 91.015 C 215.207 90.604,215.050 90.400,214.576 90.400 C 214.186 90.400,213.983 90.283,214.126 90.141 C 214.556 89.711,212.786 88.434,212.068 88.655 C 211.492 88.832,211.497 88.798,212.100 88.410 C 212.874 87.912,213.037 87.200,212.376 87.200 C 212.143 87.200,212.067 87.425,212.207 87.700 C 212.347 87.975,212.127 87.824,211.718 87.364 C 211.309 86.904,210.656 86.574,210.265 86.632 C 209.661 86.720,209.633 86.640,210.078 86.091 C 210.465 85.613,210.471 85.524,210.100 85.747 C 209.774 85.943,209.598 85.795,209.594 85.324 C 209.589 84.755,209.513 84.718,209.238 85.153 C 208.963 85.587,208.829 85.522,208.616 84.850 C 208.413 84.210,208.101 84.039,207.379 84.170 C 206.848 84.266,206.292 84.149,206.145 83.911 C 205.985 83.651,206.063 83.591,206.338 83.762 C 206.592 83.919,206.800 83.857,206.800 83.624 C 206.800 83.391,206.421 83.200,205.957 83.200 C 205.372 83.200,205.185 83.384,205.345 83.800 C 205.681 84.677,205.287 84.535,204.235 83.400 C 203.154 82.234,202.136 82.104,201.876 83.100 C 201.703 83.759,201.690 83.759,201.646 83.091 C 201.598 82.359,196.400 82.169,196.400 82.900 M192.000 84.400 C 192.000 84.620,191.712 84.800,191.360 84.800 C 191.009 84.800,190.217 85.340,189.600 86.000 C 188.983 86.660,188.191 87.200,187.840 87.200 C 187.488 87.200,187.200 87.391,187.200 87.624 C 187.200 87.857,187.425 87.933,187.700 87.793 C 187.975 87.653,187.810 87.884,187.334 88.306 C 186.284 89.236,185.782 91.600,186.635 91.600 C 186.946 91.600,187.200 91.429,187.200 91.220 C 187.200 90.652,190.565 87.200,191.119 87.200 C 191.384 87.200,191.600 86.950,191.600 86.644 C 191.600 86.339,191.915 86.114,192.300 86.144 C 192.737 86.179,192.943 85.975,192.849 85.600 C 192.766 85.270,192.691 84.775,192.682 84.500 C 192.664 83.911,192.000 83.813,192.000 84.400 M185.200 90.400 C 184.713 90.715,184.706 90.789,185.161 90.794 C 185.561 90.798,185.498 91.001,184.942 91.500 C 184.513 91.885,184.134 92.647,184.099 93.193 C 184.031 94.262,183.236 96.032,182.626 96.470 C 182.403 96.630,182.450 96.979,182.745 97.334 C 183.080 97.737,183.104 98.012,182.819 98.188 C 182.530 98.367,182.400 116.717,182.400 157.424 L 182.400 216.400 157.900 216.495 L 133.400 216.591 158.000 216.800 L 182.600 217.009 158.087 217.105 C 138.768 217.180,133.534 217.094,133.383 216.700 C 133.131 216.043,128.413 215.897,128.369 216.545 C 128.353 216.795,128.278 217.315,128.205 217.700 C 127.988 218.830,129.556 218.568,130.000 217.400 C 130.209 216.850,130.610 216.414,130.890 216.432 C 131.294 216.457,131.296 216.505,130.898 216.666 C 129.028 217.420,133.621 217.580,157.417 217.594 L 184.000 217.610 184.000 158.648 C 184.000 106.606,183.930 99.659,183.400 99.455 C 183.070 99.329,182.814 98.994,182.832 98.713 C 182.856 98.311,182.907 98.308,183.065 98.700 C 183.377 99.474,184.000 99.290,184.000 98.424 C 184.000 97.997,184.180 97.536,184.400 97.400 C 184.620 97.264,184.800 96.623,184.800 95.976 C 184.800 95.329,184.980 94.800,185.200 94.800 C 185.420 94.800,185.600 94.476,185.600 94.080 C 185.600 93.684,185.808 93.152,186.063 92.897 C 186.384 92.576,186.400 92.276,186.114 91.917 C 185.888 91.633,185.754 91.085,185.816 90.700 C 185.948 89.886,185.975 89.899,185.200 90.400 M126.290 217.578 C 126.168 218.043,125.828 218.373,125.534 218.311 C 125.235 218.249,125.024 218.508,125.056 218.900 C 125.104 219.511,124.494 219.804,123.500 219.647 C 123.335 219.621,123.200 219.774,123.200 219.987 C 123.200 220.201,122.932 220.272,122.603 220.146 C 122.263 220.015,121.901 220.192,121.761 220.556 C 121.627 220.908,121.310 221.072,121.058 220.921 C 120.806 220.770,120.845 220.949,121.145 221.318 C 121.611 221.893,121.597 222.026,121.047 222.237 C 120.694 222.373,120.507 222.649,120.632 222.852 C 120.757 223.054,120.621 223.170,120.330 223.110 C 120.038 223.049,119.835 223.195,119.878 223.433 C 119.921 223.672,119.668 223.867,119.316 223.867 C 118.877 223.867,119.075 223.510,119.944 222.733 C 120.642 222.110,121.022 221.600,120.788 221.600 C 120.179 221.600,118.400 223.464,118.400 224.102 C 118.400 224.398,118.175 224.868,117.900 225.147 C 117.499 225.553,117.541 225.758,118.112 226.180 C 118.910 226.770,117.974 227.479,117.106 226.942 C 116.828 226.770,116.773 227.039,116.947 227.730 C 117.156 228.563,117.086 228.731,116.605 228.547 C 116.138 228.367,116.003 228.620,116.012 229.657 C 116.023 230.854,116.074 230.915,116.478 230.218 C 116.928 229.441,116.934 229.441,117.238 230.218 C 117.502 230.893,117.548 230.904,117.572 230.300 C 117.587 229.915,117.801 229.600,118.047 229.600 C 118.297 229.600,118.416 229.196,118.317 228.679 C 118.220 228.172,118.334 227.551,118.571 227.298 C 119.600 226.196,120.000 225.604,120.000 225.183 C 120.000 224.515,124.707 220.000,125.403 220.000 C 125.731 220.000,126.000 219.820,126.000 219.600 C 126.000 219.380,126.339 219.200,126.753 219.200 C 127.601 219.200,128.081 217.972,127.557 217.144 C 127.275 216.699,127.210 216.709,127.200 217.200 C 127.190 217.682,127.121 217.695,126.849 217.266 C 126.593 216.861,126.458 216.936,126.290 217.578 M273.040 217.360 C 273.158 217.667,273.034 218.055,272.765 218.221 C 272.432 218.427,272.379 218.357,272.600 218.000 C 272.819 217.646,272.768 217.573,272.442 217.774 C 271.847 218.142,272.595 219.200,273.449 219.200 C 273.752 219.200,274.000 219.380,274.000 219.600 C 274.000 220.098,275.085 220.132,275.267 219.639 C 275.340 219.441,275.632 219.531,275.916 219.839 C 276.254 220.208,276.279 220.400,275.987 220.400 C 275.731 220.400,275.796 220.653,276.143 221.000 C 276.947 221.804,277.310 221.757,277.929 220.765 C 278.409 219.996,278.378 219.948,277.525 220.161 C 277.016 220.289,276.825 220.289,277.100 220.163 C 277.805 219.839,277.722 219.200,276.976 219.200 C 276.633 219.200,276.464 219.020,276.600 218.800 C 276.740 218.573,276.404 218.400,275.824 218.400 C 275.261 218.400,274.800 218.209,274.800 217.976 C 274.800 217.743,274.620 217.664,274.400 217.800 C 274.180 217.936,274.000 217.767,274.000 217.424 C 274.000 217.081,273.736 216.800,273.413 216.800 C 273.074 216.800,272.916 217.037,273.040 217.360 M278.029 221.365 C 277.564 221.925,277.581 222.124,278.146 222.711 C 278.511 223.090,279.161 223.850,279.591 224.400 C 280.215 225.197,280.376 225.261,280.387 224.713 C 280.395 224.268,280.612 224.107,281.000 224.255 C 281.330 224.382,281.600 224.273,281.600 224.014 C 281.600 223.449,280.610 222.400,280.077 222.400 C 279.868 222.400,279.445 222.019,279.136 221.554 C 278.621 220.778,278.529 220.763,278.029 221.365 M280.840 225.367 C 280.424 225.885,280.998 227.600,281.587 227.600 C 281.814 227.600,282.003 227.375,282.006 227.100 C 282.010 226.767,282.142 226.800,282.400 227.200 C 282.734 227.717,282.789 227.707,282.794 227.124 C 282.797 226.752,282.628 226.341,282.417 226.211 C 282.207 226.081,282.125 225.740,282.235 225.454 C 282.476 224.825,281.332 224.753,280.840 225.367 M281.600 228.800 C 281.600 229.240,281.780 229.600,282.000 229.600 C 282.220 229.600,282.400 229.881,282.400 230.224 C 282.400 230.567,282.580 230.736,282.800 230.600 C 283.020 230.464,283.200 230.579,283.200 230.856 C 283.200 231.223,283.320 231.240,283.640 230.920 C 283.960 230.600,283.851 230.251,283.240 229.640 C 282.778 229.178,282.400 228.620,282.400 228.400 C 282.400 228.180,282.220 228.000,282.000 228.000 C 281.780 228.000,281.600 228.360,281.600 228.800 M282.800 228.364 C 282.800 228.550,283.070 228.926,283.400 229.200 C 283.888 229.605,284.000 229.585,284.000 229.092 C 284.000 228.758,283.730 228.382,283.400 228.255 C 283.070 228.129,282.800 228.177,282.800 228.364 M116.301 231.500 C 115.785 232.560,115.969 234.498,116.564 234.269 C 116.974 234.112,117.200 234.242,117.200 234.636 C 117.200 234.972,117.033 235.144,116.829 235.018 C 116.625 234.892,116.338 235.165,116.192 235.624 C 115.926 236.463,116.148 236.957,116.833 237.050 C 117.739 237.174,117.731 237.300,116.800 237.582 L 115.800 237.885 116.919 238.191 C 118.291 238.565,118.722 238.208,118.099 237.210 C 117.840 236.796,117.596 235.274,117.556 233.828 C 117.491 231.454,116.878 230.316,116.301 231.500 M282.449 233.850 C 282.471 235.293,282.289 236.671,282.044 236.916 C 281.800 237.160,281.597 238.089,281.594 238.980 C 281.589 240.173,281.486 240.442,281.200 240.000 C 280.880 239.504,280.811 239.541,280.806 240.212 C 280.803 240.658,280.440 241.283,280.000 241.600 C 279.560 241.917,279.200 242.398,279.200 242.669 C 279.200 242.940,278.572 243.772,277.804 244.518 C 277.036 245.264,276.526 245.992,276.670 246.137 C 276.815 246.282,276.623 246.400,276.243 246.400 C 275.863 246.400,275.664 246.580,275.800 246.800 C 275.936 247.020,275.756 247.200,275.400 247.200 C 275.044 247.200,274.864 247.380,275.000 247.600 C 275.136 247.820,274.956 248.000,274.600 248.000 C 274.244 248.000,274.064 248.180,274.200 248.400 C 274.336 248.620,274.156 248.800,273.800 248.800 C 273.444 248.800,273.264 248.980,273.400 249.200 C 273.536 249.420,273.454 249.600,273.218 249.600 C 272.658 249.600,266.000 256.258,266.000 256.818 C 266.000 257.054,265.820 257.136,265.600 257.000 C 265.380 256.864,265.200 257.044,265.200 257.400 C 265.200 257.756,265.020 257.936,264.800 257.800 C 264.580 257.664,264.400 257.844,264.400 258.200 C 264.400 258.556,264.220 258.736,264.000 258.600 C 263.780 258.464,263.600 258.644,263.600 259.000 C 263.600 259.356,263.420 259.536,263.200 259.400 C 262.980 259.264,262.800 259.444,262.800 259.800 C 262.800 260.156,262.648 260.353,262.461 260.238 C 262.021 259.966,259.903 262.170,260.261 262.528 C 260.411 262.677,260.223 262.800,259.843 262.800 C 259.463 262.800,259.264 262.980,259.400 263.200 C 259.536 263.420,259.356 263.600,259.000 263.600 C 258.644 263.600,258.464 263.780,258.600 264.000 C 258.736 264.220,258.556 264.400,258.200 264.400 C 257.844 264.400,257.664 264.580,257.800 264.800 C 257.936 265.020,257.756 265.200,257.400 265.200 C 257.044 265.200,256.864 265.380,257.000 265.600 C 257.136 265.820,257.054 266.000,256.818 266.000 C 256.258 266.000,249.600 272.658,249.600 273.218 C 249.600 273.454,249.420 273.536,249.200 273.400 C 248.980 273.264,248.800 273.444,248.800 273.800 C 248.800 274.156,248.620 274.336,248.400 274.200 C 248.180 274.064,248.000 274.244,248.000 274.600 C 248.000 274.956,247.820 275.136,247.600 275.000 C 247.380 274.864,247.200 275.044,247.200 275.400 C 247.200 275.756,247.020 275.936,246.800 275.800 C 246.580 275.664,246.400 275.863,246.400 276.243 C 246.400 276.623,246.290 276.823,246.155 276.688 C 245.516 276.050,243.506 278.676,243.969 279.543 C 244.270 280.105,244.286 280.400,244.014 280.400 C 243.786 280.400,243.600 280.130,243.600 279.800 C 243.600 279.470,243.409 279.200,243.176 279.200 C 242.943 279.200,242.864 279.380,243.000 279.600 C 243.136 279.820,242.956 280.000,242.600 280.000 C 242.244 280.000,242.064 280.180,242.200 280.400 C 242.336 280.620,242.156 280.800,241.800 280.800 C 241.444 280.800,241.264 280.980,241.400 281.200 C 241.536 281.420,241.356 281.600,241.000 281.600 C 240.644 281.600,240.464 281.780,240.600 282.000 C 240.736 282.220,240.556 282.400,240.200 282.400 C 239.844 282.400,239.664 282.580,239.800 282.800 C 239.936 283.020,239.854 283.200,239.617 283.200 C 239.056 283.200,233.200 289.056,233.200 289.617 C 233.200 289.854,233.020 289.936,232.800 289.800 C 232.580 289.664,232.400 289.844,232.400 290.200 C 232.400 290.556,232.220 290.736,232.000 290.600 C 231.780 290.464,231.600 290.644,231.600 291.000 C 231.600 291.356,231.420 291.536,231.200 291.400 C 230.980 291.264,230.800 291.444,230.800 291.800 C 230.800 292.156,230.620 292.336,230.400 292.200 C 230.180 292.064,230.000 292.244,230.000 292.600 C 230.000 292.956,229.820 293.136,229.600 293.000 C 229.380 292.864,229.200 292.943,229.200 293.176 C 229.200 293.409,229.470 293.600,229.800 293.600 C 230.130 293.600,230.400 293.786,230.400 294.014 C 230.400 294.286,230.105 294.270,229.543 293.969 C 228.676 293.506,226.050 295.516,226.688 296.155 C 226.823 296.290,226.623 296.400,226.243 296.400 C 225.863 296.400,225.664 296.580,225.800 296.800 C 225.936 297.020,225.756 297.200,225.400 297.200 C 225.044 297.200,224.864 297.380,225.000 297.600 C 225.136 297.820,224.956 298.000,224.600 298.000 C 224.244 298.000,224.064 298.180,224.200 298.400 C 224.336 298.620,224.156 298.800,223.800 298.800 C 223.444 298.800,223.264 298.980,223.400 299.200 C 223.536 299.420,223.454 299.600,223.218 299.600 C 222.658 299.600,216.000 306.258,216.000 306.818 C 216.000 307.054,215.820 307.136,215.600 307.000 C 215.380 306.864,215.200 307.044,215.200 307.400 C 215.200 307.756,215.020 307.936,214.800 307.800 C 214.580 307.664,214.400 307.844,214.400 308.200 C 214.400 308.556,214.220 308.736,214.000 308.600 C 213.780 308.464,213.600 308.644,213.600 309.000 C 213.600 309.356,213.420 309.536,213.200 309.400 C 212.980 309.264,212.800 309.444,212.800 309.800 C 212.800 310.156,212.649 310.354,212.463 310.239 C 212.007 309.957,209.509 312.576,209.881 312.947 C 210.043 313.110,209.884 313.130,209.528 312.994 C 209.172 312.857,208.762 312.938,208.617 313.173 C 208.472 313.408,208.573 313.600,208.843 313.600 C 209.113 313.600,209.217 313.716,209.075 313.858 C 208.853 314.080,207.980 314.242,205.700 314.481 C 205.425 314.510,205.200 314.683,205.200 314.867 C 205.200 315.050,204.679 315.200,204.043 315.200 C 203.406 315.200,202.798 315.427,202.692 315.705 C 202.452 316.330,197.485 316.255,197.274 315.623 C 197.197 315.390,196.608 315.200,195.967 315.200 C 195.325 315.200,194.800 315.058,194.800 314.885 C 194.800 314.712,194.444 314.543,194.009 314.511 C 193.574 314.478,192.404 313.891,191.408 313.206 C 189.380 311.810,121.046 243.619,120.655 242.600 C 120.512 242.227,120.205 242.073,119.935 242.240 C 119.614 242.438,119.548 242.312,119.727 241.845 C 119.884 241.437,119.830 241.258,119.595 241.403 C 119.378 241.537,119.200 241.367,119.200 241.024 C 119.200 240.681,118.975 240.397,118.700 240.394 C 118.367 240.390,118.400 240.258,118.800 240.000 C 119.309 239.671,119.290 239.611,118.676 239.606 C 118.278 239.603,118.054 239.436,118.178 239.235 C 118.302 239.034,118.088 238.916,117.702 238.973 C 116.656 239.126,116.649 240.144,117.690 240.602 C 118.256 240.850,118.589 241.333,118.571 241.877 C 118.555 242.359,118.735 242.718,118.971 242.676 C 119.207 242.634,119.375 242.915,119.344 243.300 C 119.314 243.685,119.550 244.000,119.868 244.000 C 120.187 244.000,120.336 244.180,120.200 244.400 C 120.064 244.620,120.217 244.800,120.539 244.800 C 120.928 244.800,121.055 245.069,120.916 245.600 C 120.794 246.065,120.904 246.400,121.177 246.400 C 121.440 246.400,121.520 246.180,121.359 245.900 C 121.201 245.625,121.550 245.836,122.135 246.370 C 123.210 247.349,123.537 247.856,122.800 247.400 C 122.204 247.032,122.317 247.574,122.971 248.229 C 123.626 248.883,124.168 248.996,123.800 248.400 C 123.398 247.749,123.857 247.944,124.451 248.677 C 124.824 249.137,124.840 249.257,124.500 249.053 C 123.823 248.646,123.867 249.124,124.571 249.829 C 125.276 250.533,125.754 250.577,125.347 249.900 C 124.956 249.249,126.368 250.344,127.281 251.400 C 127.662 251.840,127.977 252.380,127.981 252.600 C 127.985 252.820,127.813 252.730,127.600 252.400 C 127.387 252.070,127.212 251.980,127.212 252.200 C 127.212 253.202,127.980 253.828,128.438 253.200 C 128.805 252.696,128.838 252.715,128.643 253.319 C 128.373 254.153,130.843 256.869,131.681 256.660 C 131.967 256.589,132.065 256.607,131.900 256.699 C 131.259 257.057,131.641 257.641,132.366 257.411 C 132.788 257.277,133.247 257.353,133.387 257.579 C 133.538 257.824,133.390 257.894,133.021 257.753 C 132.679 257.622,132.400 257.694,132.400 257.914 C 132.400 258.416,133.548 258.879,134.039 258.576 C 134.241 258.451,134.675 258.618,135.003 258.946 C 135.898 259.841,135.722 260.235,134.800 259.400 C 133.657 258.366,133.808 259.045,134.982 260.218 C 136.037 261.274,136.623 261.512,136.166 260.700 C 136.011 260.425,136.720 261.002,137.742 261.983 C 139.546 263.714,140.022 264.308,139.200 263.800 C 138.604 263.432,138.717 263.974,139.371 264.629 C 140.076 265.333,140.549 265.376,140.159 264.700 C 140.001 264.425,140.350 264.636,140.935 265.170 C 142.010 266.149,142.337 266.656,141.600 266.200 C 140.864 265.745,141.189 266.426,142.182 267.418 C 143.355 268.592,144.034 268.743,143.000 267.600 C 142.602 267.160,142.465 266.800,142.695 266.800 C 143.193 266.800,143.763 267.976,143.636 268.740 C 143.587 269.037,143.736 269.163,143.969 269.019 C 144.225 268.861,144.297 269.002,144.153 269.379 C 143.871 270.114,144.629 270.227,144.963 269.500 C 145.089 269.225,145.092 269.405,144.969 269.900 C 144.763 270.731,145.318 271.186,145.701 270.500 C 145.793 270.335,145.810 270.435,145.738 270.722 C 145.569 271.401,147.399 273.231,148.078 273.062 C 148.365 272.990,148.465 273.007,148.300 273.099 C 147.614 273.482,148.069 274.037,148.900 273.831 C 149.395 273.708,149.575 273.711,149.300 273.837 C 148.573 274.171,148.686 274.929,149.421 274.647 C 149.826 274.492,149.942 274.570,149.755 274.873 C 149.561 275.186,149.694 275.250,150.164 275.069 C 150.561 274.917,151.104 275.047,151.430 275.373 C 152.306 276.249,152.106 276.620,151.200 275.800 C 150.057 274.766,150.208 275.445,151.382 276.618 C 152.436 277.672,153.028 277.915,152.559 277.100 C 152.401 276.825,152.750 277.036,153.335 277.570 C 154.410 278.549,154.737 279.056,154.000 278.600 C 153.404 278.232,153.517 278.774,154.171 279.429 C 154.876 280.133,155.346 280.176,154.966 279.500 C 154.811 279.225,155.520 279.802,156.542 280.783 C 158.346 282.514,158.822 283.108,158.000 282.600 C 157.264 282.145,157.589 282.826,158.582 283.818 C 159.755 284.992,160.434 285.143,159.400 284.000 C 158.565 283.078,158.959 282.902,159.854 283.797 C 160.182 284.125,160.349 284.559,160.224 284.761 C 159.921 285.252,160.384 286.400,160.886 286.400 C 161.106 286.400,161.178 286.121,161.047 285.779 C 160.906 285.410,160.976 285.262,161.221 285.413 C 161.447 285.553,161.523 286.012,161.389 286.434 C 161.159 287.159,161.743 287.541,162.101 286.900 C 162.193 286.735,162.211 286.833,162.140 287.119 C 161.931 287.957,164.647 290.427,165.481 290.157 C 166.085 289.962,166.104 289.995,165.600 290.362 C 164.972 290.820,165.598 291.588,166.600 291.588 C 166.820 291.588,166.730 291.413,166.400 291.200 C 166.070 290.987,165.980 290.815,166.200 290.819 C 166.420 290.823,166.960 291.147,167.400 291.539 C 168.686 292.683,171.047 295.347,170.500 295.036 C 169.824 294.653,169.867 295.124,170.571 295.829 C 171.276 296.533,171.749 296.576,171.359 295.900 C 171.201 295.625,171.550 295.836,172.135 296.370 C 173.210 297.349,173.537 297.856,172.800 297.400 C 172.204 297.032,172.317 297.574,172.971 298.229 C 173.676 298.933,174.154 298.977,173.747 298.300 C 173.543 297.960,173.663 297.976,174.123 298.349 C 174.856 298.943,175.051 299.402,174.400 299.000 C 173.804 298.632,173.917 299.174,174.571 299.829 C 175.276 300.533,175.754 300.577,175.347 299.900 C 174.956 299.249,176.368 300.344,177.281 301.400 C 177.662 301.840,177.977 302.380,177.981 302.600 C 177.985 302.820,177.813 302.730,177.600 302.400 C 177.387 302.070,177.212 301.980,177.212 302.200 C 177.212 303.202,177.980 303.828,178.438 303.200 C 178.805 302.696,178.838 302.715,178.643 303.319 C 178.373 304.153,180.843 306.869,181.681 306.660 C 181.967 306.589,182.065 306.607,181.900 306.699 C 181.259 307.057,181.641 307.641,182.366 307.411 C 182.788 307.277,183.247 307.353,183.387 307.579 C 183.538 307.824,183.390 307.894,183.021 307.753 C 182.679 307.622,182.400 307.694,182.400 307.914 C 182.400 308.416,183.548 308.879,184.039 308.576 C 184.241 308.451,184.675 308.618,185.003 308.946 C 185.898 309.841,185.722 310.235,184.800 309.400 C 183.657 308.366,183.808 309.045,184.982 310.218 C 186.036 311.272,186.628 311.515,186.159 310.700 C 186.001 310.425,186.395 310.650,187.035 311.200 C 187.676 311.750,188.290 312.274,188.400 312.364 C 188.510 312.454,188.285 312.414,187.900 312.276 C 187.515 312.138,187.200 312.199,187.200 312.413 C 187.200 312.626,187.520 312.800,187.912 312.800 C 188.303 312.800,188.876 313.150,189.185 313.579 C 189.493 314.007,189.893 314.266,190.073 314.155 C 190.253 314.044,190.400 314.233,190.400 314.576 C 190.400 314.919,190.580 315.200,190.800 315.200 C 191.020 315.200,191.200 314.930,191.200 314.600 C 191.200 314.270,191.470 314.000,191.800 314.000 C 192.130 314.000,192.400 314.281,192.400 314.624 C 192.400 314.967,192.222 315.137,192.005 315.003 C 191.780 314.864,191.710 315.021,191.843 315.367 C 191.971 315.701,192.194 315.959,192.338 315.940 C 193.566 315.777,194.544 316.048,194.000 316.400 C 193.498 316.724,193.526 316.789,194.169 316.794 C 194.591 316.797,195.308 316.485,195.762 316.100 C 196.560 315.422,196.567 315.425,195.993 316.175 C 195.458 316.874,195.466 316.925,196.080 316.695 C 196.565 316.513,196.696 316.606,196.537 317.020 C 196.385 317.417,196.589 317.600,197.181 317.600 C 197.657 317.600,197.948 317.439,197.826 317.242 C 197.585 316.851,198.783 316.250,199.124 316.591 C 199.239 316.706,199.123 316.800,198.867 316.800 C 198.610 316.800,198.400 316.980,198.400 317.200 C 198.400 317.420,199.120 317.600,200.000 317.600 C 200.978 317.600,201.600 317.413,201.600 317.120 C 201.600 316.747,201.707 316.747,202.080 317.120 C 202.803 317.843,203.401 317.701,203.844 316.700 C 204.063 316.205,204.183 316.050,204.112 316.357 C 204.001 316.832,204.082 316.832,204.668 316.357 C 205.122 315.988,205.252 315.969,205.053 316.300 C 204.844 316.648,205.064 316.800,205.776 316.800 C 206.562 316.800,206.807 316.591,206.832 315.900 C 206.849 315.405,206.954 315.225,207.065 315.500 C 207.354 316.216,208.400 316.119,208.400 315.376 C 208.400 315.033,208.580 314.864,208.800 315.000 C 209.020 315.136,209.200 315.053,209.200 314.815 C 209.200 314.577,209.655 314.175,210.211 313.922 C 210.966 313.578,211.093 313.370,210.711 313.100 C 210.303 312.812,210.302 312.698,210.702 312.535 C 210.979 312.423,211.115 312.186,211.005 312.008 C 210.895 311.830,211.053 311.588,211.357 311.472 C 211.744 311.323,211.849 311.491,211.708 312.030 C 211.400 313.209,212.274 312.953,213.813 311.413 C 215.130 310.097,215.636 309.283,214.828 309.783 C 214.623 309.909,214.325 309.802,214.166 309.545 C 213.996 309.270,214.049 309.183,214.293 309.334 C 214.522 309.475,214.923 309.334,215.184 309.019 C 215.445 308.705,215.887 308.535,216.167 308.643 C 216.826 308.896,219.245 306.640,219.067 305.938 C 218.992 305.642,219.007 305.535,219.099 305.700 C 219.482 306.386,220.037 305.931,219.831 305.100 C 219.708 304.605,219.711 304.425,219.837 304.700 C 220.267 305.635,220.816 305.205,220.550 304.142 C 220.303 303.158,220.358 303.103,221.342 303.350 C 222.294 303.589,222.845 303.116,222.100 302.699 C 221.935 302.607,222.042 302.592,222.338 302.667 C 223.040 302.845,225.296 300.426,225.043 299.767 C 224.935 299.487,225.105 299.045,225.419 298.784 C 225.734 298.523,225.875 298.122,225.734 297.893 C 225.583 297.649,225.670 297.596,225.945 297.766 C 226.202 297.925,226.309 298.223,226.183 298.428 C 225.577 299.408,226.652 298.563,229.007 296.207 C 231.363 293.852,232.208 292.777,231.228 293.383 C 231.023 293.509,230.725 293.402,230.566 293.145 C 230.393 292.865,230.449 292.783,230.706 292.942 C 230.943 293.088,231.492 292.755,231.928 292.201 C 232.370 291.639,232.968 291.290,233.283 291.411 C 234.080 291.716,235.586 290.290,235.438 289.370 C 235.370 288.946,235.392 288.825,235.487 289.100 C 235.792 289.989,236.461 289.629,236.231 288.700 C 236.108 288.205,236.111 288.025,236.237 288.300 C 236.667 289.235,237.216 288.805,236.950 287.742 C 236.703 286.758,236.758 286.703,237.742 286.950 C 238.805 287.216,239.235 286.667,238.300 286.237 C 238.025 286.111,238.205 286.108,238.700 286.231 C 239.629 286.461,239.989 285.792,239.100 285.487 C 238.825 285.392,238.946 285.370,239.370 285.438 C 240.290 285.586,241.716 284.080,241.411 283.283 C 241.290 282.968,241.639 282.370,242.201 281.928 C 242.755 281.492,243.088 280.943,242.942 280.706 C 242.783 280.449,242.865 280.393,243.145 280.566 C 243.402 280.725,243.509 281.023,243.383 281.228 C 242.777 282.208,243.852 281.363,246.207 279.007 C 248.563 276.652,249.408 275.577,248.428 276.183 C 248.223 276.309,247.925 276.202,247.766 275.945 C 247.596 275.670,247.649 275.583,247.893 275.734 C 248.122 275.875,248.523 275.734,248.784 275.419 C 249.045 275.105,249.487 274.935,249.767 275.043 C 250.426 275.296,252.845 273.040,252.667 272.338 C 252.592 272.042,252.607 271.935,252.699 272.100 C 253.116 272.845,253.589 272.294,253.350 271.342 C 253.103 270.358,253.158 270.303,254.142 270.550 C 255.205 270.816,255.635 270.267,254.700 269.837 C 254.425 269.711,254.605 269.708,255.100 269.831 C 255.931 270.037,256.386 269.482,255.700 269.099 C 255.535 269.007,255.642 268.992,255.938 269.067 C 256.640 269.245,258.896 266.826,258.643 266.167 C 258.535 265.887,258.705 265.445,259.019 265.184 C 259.334 264.923,259.475 264.522,259.334 264.293 C 259.183 264.049,259.270 263.996,259.545 264.166 C 259.802 264.325,259.909 264.623,259.783 264.828 C 259.177 265.808,260.252 264.963,262.607 262.607 C 264.963 260.252,265.808 259.177,264.828 259.783 C 264.623 259.909,264.325 259.802,264.166 259.545 C 263.996 259.270,264.049 259.183,264.293 259.334 C 264.522 259.475,264.923 259.334,265.184 259.019 C 265.445 258.705,265.887 258.535,266.167 258.643 C 266.826 258.896,269.245 256.640,269.067 255.938 C 268.992 255.642,269.007 255.535,269.099 255.700 C 269.482 256.386,270.037 255.931,269.831 255.100 C 269.708 254.605,269.711 254.425,269.837 254.700 C 270.267 255.635,270.816 255.205,270.550 254.142 C 270.303 253.158,270.358 253.103,271.342 253.350 C 272.294 253.589,272.845 253.116,272.100 252.699 C 271.935 252.607,272.042 252.592,272.338 252.667 C 273.040 252.845,275.296 250.426,275.043 249.767 C 274.935 249.487,275.105 249.045,275.419 248.784 C 275.734 248.523,275.875 248.122,275.734 247.893 C 275.583 247.649,275.670 247.596,275.945 247.766 C 276.202 247.925,276.309 248.223,276.183 248.428 C 275.683 249.236,276.497 248.730,277.813 247.413 C 278.576 246.651,279.200 245.631,279.200 245.147 C 279.200 244.663,279.309 244.376,279.442 244.509 C 279.795 244.862,281.600 242.946,281.600 242.218 C 281.600 241.878,281.801 241.600,282.047 241.600 C 282.292 241.600,282.403 241.253,282.292 240.830 C 282.139 240.245,282.248 240.119,282.745 240.305 C 283.334 240.525,283.340 240.474,282.800 239.798 C 282.451 239.361,282.409 239.172,282.700 239.347 C 283.033 239.547,283.200 239.383,283.200 238.857 C 283.200 238.422,282.975 237.963,282.700 237.837 C 282.425 237.711,282.595 237.705,283.077 237.823 C 284.429 238.156,284.335 231.968,282.981 231.448 C 282.520 231.271,282.418 231.734,282.449 233.850 M273.829 250.629 C 273.462 250.995,273.072 251.205,272.962 251.095 C 272.852 250.985,273.062 250.595,273.429 250.229 C 273.795 249.862,274.185 249.652,274.295 249.762 C 274.405 249.872,274.195 250.262,273.829 250.629 M125.600 250.567 C 125.600 250.988,126.805 252.128,127.021 251.912 C 127.122 251.811,126.844 251.402,126.402 251.002 C 125.961 250.603,125.600 250.407,125.600 250.567 M263.200 261.200 C 263.200 261.420,262.975 261.555,262.700 261.500 C 262.425 261.445,262.245 261.625,262.300 261.900 C 262.355 262.175,262.175 262.355,261.900 262.300 C 261.625 262.245,261.445 262.425,261.500 262.700 C 261.555 262.975,261.420 263.200,261.200 263.200 C 260.575 263.200,260.724 262.732,261.670 261.726 C 262.590 260.746,263.200 260.537,263.200 261.200 M136.400 261.343 C 136.400 261.756,138.412 263.722,138.620 263.513 C 138.714 263.419,138.254 262.826,137.596 262.196 C 136.938 261.566,136.400 261.182,136.400 261.343 M250.629 273.829 C 250.262 274.195,249.872 274.405,249.762 274.295 C 249.652 274.185,249.862 273.795,250.229 273.429 C 250.595 273.062,250.985 272.852,251.095 272.962 C 251.205 273.072,250.995 273.462,250.629 273.829 M246.800 277.600 C 246.800 277.820,246.583 277.955,246.318 277.900 C 246.053 277.845,245.828 278.016,245.818 278.280 C 245.793 278.948,244.872 279.805,244.538 279.472 C 244.387 279.321,244.686 278.748,245.201 278.198 C 246.183 277.153,246.800 276.923,246.800 277.600 M155.200 280.143 C 155.200 280.556,157.212 282.522,157.420 282.313 C 157.514 282.219,157.054 281.626,156.396 280.996 C 155.738 280.366,155.200 279.982,155.200 280.143 M242.202 282.398 C 241.803 282.839,241.607 283.200,241.767 283.200 C 242.188 283.200,243.328 281.995,243.112 281.779 C 243.011 281.678,242.602 281.956,242.202 282.398 M240.229 284.229 C 239.862 284.595,239.472 284.805,239.362 284.695 C 239.252 284.585,239.462 284.195,239.829 283.829 C 240.195 283.462,240.585 283.252,240.695 283.362 C 240.805 283.472,240.595 283.862,240.229 284.229 M234.229 290.229 C 233.862 290.595,233.472 290.805,233.362 290.695 C 233.252 290.585,233.462 290.195,233.829 289.829 C 234.195 289.462,234.585 289.252,234.695 289.362 C 234.805 289.472,234.595 289.862,234.229 290.229 M166.800 291.732 C 166.800 292.140,169.614 294.919,169.819 294.714 C 169.911 294.623,169.269 293.848,168.393 292.993 C 167.517 292.137,166.800 291.570,166.800 291.732 M232.202 292.398 C 231.803 292.839,231.607 293.200,231.767 293.200 C 232.188 293.200,233.328 291.995,233.112 291.779 C 233.011 291.678,232.602 291.956,232.202 292.398 M229.600 294.751 C 229.600 295.156,228.394 296.229,228.039 296.140 C 227.907 296.107,227.845 296.242,227.900 296.440 C 227.955 296.638,227.820 296.800,227.600 296.800 C 226.975 296.800,227.124 296.332,228.070 295.326 C 228.965 294.373,229.600 294.134,229.600 294.751 M223.829 300.629 C 223.462 300.995,223.072 301.205,222.962 301.095 C 222.852 300.985,223.062 300.595,223.429 300.229 C 223.795 299.862,224.185 299.652,224.295 299.762 C 224.405 299.872,224.195 300.262,223.829 300.629 M175.600 300.567 C 175.600 300.988,176.805 302.128,177.021 301.912 C 177.122 301.811,176.844 301.402,176.402 301.002 C 175.961 300.603,175.600 300.407,175.600 300.567 M0.071 350.970 C 0.021 351.723,0.183 352.466,0.432 352.620 C 0.756 352.820,0.731 352.998,0.343 353.244 C -0.084 353.515,-0.056 353.589,0.475 353.594 C 1.240 353.601,1.334 352.170,0.629 351.223 C 0.306 350.789,0.324 350.721,0.700 350.947 C 1.035 351.148,1.200 350.976,1.200 350.424 C 1.200 349.002,0.170 349.500,0.071 350.970 M398.800 350.387 C 398.800 350.879,399.000 351.098,399.333 350.970 C 399.627 350.858,399.867 350.503,399.867 350.183 C 399.867 349.862,399.627 349.600,399.333 349.600 C 399.040 349.600,398.800 349.954,398.800 350.387 M399.280 351.680 C 398.640 352.320,398.655 353.329,399.300 352.965 C 399.696 352.742,399.698 352.793,399.310 353.212 C 398.922 353.630,398.922 353.868,399.310 354.347 C 399.699 354.828,399.697 354.892,399.300 354.653 C 398.996 354.470,398.800 354.571,398.800 354.910 C 398.800 355.216,399.070 355.467,399.400 355.467 C 399.858 355.467,400.000 354.963,400.000 353.333 C 400.000 351.010,399.985 350.975,399.280 351.680 M0.000 355.176 C 0.000 355.823,0.199 356.476,0.443 356.626 C 0.759 356.822,0.762 356.977,0.452 357.168 C 0.178 357.337,0.108 358.191,0.261 359.489 C 0.484 361.369,0.567 361.502,1.251 361.075 C 1.950 360.639,1.953 360.592,1.299 360.333 C 0.680 360.088,0.691 360.052,1.400 360.015 C 2.092 359.980,2.119 359.909,1.600 359.487 C 1.175 359.142,1.009 358.270,1.032 356.500 C 1.056 354.670,0.922 354.000,0.532 354.000 C 0.210 354.000,0.000 354.464,0.000 355.176 M399.300 356.623 C 398.687 357.289,398.645 357.743,399.230 357.382 C 399.467 357.235,399.431 357.482,399.149 357.932 C 398.869 358.381,398.533 358.682,398.403 358.602 C 398.273 358.521,398.127 358.973,398.078 359.605 C 398.022 360.340,398.245 360.916,398.695 361.201 C 399.156 361.492,399.193 361.593,398.804 361.491 C 397.870 361.248,397.096 362.307,397.281 363.573 C 397.411 364.456,397.315 364.665,396.860 364.491 C 396.417 364.321,396.328 364.481,396.500 365.140 C 396.631 365.641,396.488 366.255,396.164 366.579 C 395.749 366.994,395.700 367.410,395.978 368.141 C 396.270 368.909,396.206 369.260,395.702 369.669 C 395.229 370.052,395.130 370.061,395.347 369.700 C 395.512 369.425,395.457 369.200,395.224 369.200 C 394.991 369.200,394.800 369.545,394.800 369.967 C 394.800 370.388,394.575 370.824,394.300 370.935 C 393.965 371.070,394.003 371.147,394.415 371.168 C 394.753 371.186,395.058 371.574,395.092 372.030 C 395.142 372.686,395.041 372.766,394.613 372.411 C 394.240 372.101,393.990 372.092,393.812 372.381 C 393.669 372.611,393.705 372.800,393.891 372.800 C 394.077 372.800,394.255 373.140,394.287 373.555 C 394.329 374.115,394.144 374.258,393.572 374.109 C 392.701 373.881,392.454 374.994,393.300 375.335 C 393.575 375.446,393.395 375.551,392.900 375.568 C 392.381 375.587,392.000 375.854,392.000 376.200 C 392.000 377.543,393.565 376.445,394.422 374.500 C 394.737 373.785,395.152 373.200,395.344 373.200 C 395.536 373.200,395.602 372.852,395.491 372.426 C 395.374 371.978,395.523 371.562,395.844 371.438 C 396.150 371.321,396.400 370.949,396.400 370.613 C 396.400 370.276,396.541 370.000,396.713 370.000 C 396.885 370.000,397.257 369.145,397.539 368.100 C 397.822 367.055,398.221 365.887,398.427 365.505 C 398.968 364.499,398.894 363.505,398.300 363.807 C 398.025 363.947,398.219 363.692,398.732 363.241 C 399.403 362.650,399.638 362.055,399.574 361.110 C 399.525 360.390,399.615 359.323,399.775 358.741 C 400.212 357.149,399.939 355.930,399.300 356.623 M0.400 362.447 C 0.400 362.692,0.730 362.807,1.133 362.702 C 1.571 362.587,1.867 362.723,1.867 363.037 C 1.867 363.327,1.717 363.472,1.533 363.359 C 1.350 363.245,1.200 363.603,1.200 364.153 C 1.200 364.703,1.380 365.264,1.600 365.400 C 1.820 365.536,2.000 366.076,2.000 366.600 C 2.000 367.124,2.180 367.664,2.400 367.800 C 2.620 367.936,2.800 368.409,2.800 368.852 C 2.800 369.295,3.072 369.929,3.404 370.261 C 3.736 370.593,3.905 371.030,3.780 371.232 C 3.655 371.435,3.722 371.600,3.930 371.600 C 4.137 371.600,4.406 371.978,4.526 372.440 C 4.668 372.981,4.922 373.172,5.241 372.975 C 5.584 372.762,5.659 372.869,5.485 373.322 C 5.067 374.412,6.088 375.897,7.145 375.736 C 7.758 375.642,8.006 375.764,7.884 376.097 C 7.783 376.374,7.498 376.555,7.250 376.500 C 6.750 376.389,6.629 377.054,7.100 377.326 C 7.265 377.422,7.760 377.355,8.200 377.178 C 8.640 377.001,8.792 376.844,8.537 376.828 C 8.283 376.813,8.163 376.463,8.271 376.051 C 8.468 375.297,6.670 373.063,6.224 373.509 C 6.101 373.632,6.000 373.352,6.000 372.887 C 6.000 372.421,5.685 371.856,5.300 371.632 C 4.915 371.408,4.808 371.219,5.063 371.212 C 5.650 371.197,5.262 369.599,4.610 369.348 C 4.346 369.247,4.162 368.633,4.201 367.982 C 4.260 366.989,4.121 366.800,3.336 366.800 C 2.222 366.800,2.167 366.520,3.084 365.507 C 3.638 364.895,3.667 364.688,3.234 364.421 C 2.940 364.240,2.700 363.621,2.700 363.045 C 2.700 362.161,2.523 362.000,1.550 362.000 C 0.918 362.000,0.400 362.201,0.400 362.447 M390.900 377.007 C 390.625 377.315,390.400 377.754,390.400 377.983 C 390.400 378.212,390.220 378.400,390.000 378.400 C 389.780 378.400,389.600 378.681,389.600 379.024 C 389.600 379.367,389.441 379.549,389.246 379.428 C 389.051 379.308,388.811 379.633,388.712 380.150 C 388.562 380.931,388.674 381.061,389.366 380.918 C 390.191 380.747,390.191 380.751,389.400 381.258 C 388.960 381.540,388.402 381.777,388.161 381.785 C 387.326 381.813,385.677 383.335,385.887 383.883 C 386.012 384.208,385.874 384.385,385.549 384.316 C 385.247 384.252,385.045 384.425,385.100 384.700 C 385.155 384.975,384.975 385.155,384.700 385.100 C 384.425 385.045,384.251 385.242,384.313 385.538 C 384.374 385.833,384.199 386.000,383.924 385.908 C 383.278 385.693,381.478 387.479,381.806 388.010 C 381.943 388.232,382.251 388.292,382.489 388.145 C 382.759 387.978,382.808 388.064,382.617 388.373 C 382.448 388.646,381.970 388.781,381.555 388.672 C 381.079 388.548,380.800 388.683,380.800 389.037 C 380.800 389.347,380.609 389.600,380.376 389.600 C 380.143 389.600,380.064 389.420,380.200 389.200 C 380.336 388.980,380.172 388.800,379.836 388.800 C 379.462 388.800,379.313 389.029,379.452 389.391 C 379.597 389.768,379.304 390.152,378.639 390.455 C 378.068 390.715,377.600 391.074,377.600 391.252 C 377.600 391.429,377.285 391.476,376.900 391.355 C 376.302 391.167,376.313 391.227,376.976 391.767 C 377.866 392.492,378.400 392.579,378.400 392.000 C 378.400 391.780,378.760 391.600,379.200 391.600 C 379.640 391.600,380.000 391.409,380.000 391.176 C 380.000 390.943,379.792 390.881,379.538 391.038 C 379.250 391.216,379.185 391.148,379.366 390.855 C 379.525 390.598,379.831 390.495,380.045 390.628 C 380.578 390.957,381.653 390.010,381.334 389.493 C 381.183 389.249,381.270 389.196,381.545 389.366 C 382.600 390.018,389.178 383.735,388.533 382.691 C 388.392 382.463,388.463 382.392,388.691 382.532 C 388.918 382.673,389.531 382.162,390.052 381.397 C 390.574 380.632,391.135 380.004,391.300 380.003 C 391.465 380.001,391.600 379.706,391.600 379.347 C 391.600 378.988,392.005 378.333,392.500 377.893 C 392.995 377.453,393.130 377.177,392.800 377.281 C 392.470 377.385,392.020 377.240,391.800 376.959 C 391.478 376.548,391.303 376.557,390.900 377.007 M7.600 378.000 C 7.600 378.220,7.780 378.400,8.000 378.400 C 8.220 378.400,8.400 378.760,8.400 379.200 C 8.400 380.103,9.171 380.249,9.979 379.500 C 10.399 379.110,10.456 379.109,10.238 379.495 C 10.052 379.824,10.161 379.913,10.561 379.759 C 11.123 379.544,10.643 378.456,10.000 378.486 C 8.885 378.536,8.619 378.375,9.200 378.000 C 9.668 377.698,9.557 377.611,8.700 377.606 C 8.095 377.603,7.600 377.780,7.600 378.000 M10.911 380.512 C 11.051 380.876,10.993 381.281,10.783 381.411 C 10.189 381.778,10.332 382.512,10.950 382.274 C 11.291 382.144,11.481 382.318,11.450 382.732 C 11.423 383.099,11.638 383.351,11.930 383.290 C 12.221 383.230,12.345 383.365,12.205 383.592 C 11.974 383.966,14.919 387.136,17.161 388.926 C 18.056 389.641,18.066 389.639,17.789 388.766 C 17.561 388.046,17.633 387.927,18.175 388.135 C 18.638 388.313,18.751 388.239,18.545 387.895 C 18.099 387.149,16.654 386.189,16.200 386.336 C 15.980 386.408,15.926 386.340,16.081 386.186 C 16.416 385.850,15.449 384.800,14.805 384.800 C 14.556 384.800,14.480 385.025,14.635 385.300 C 14.846 385.674,14.777 385.669,14.362 385.283 C 13.912 384.865,13.905 384.706,14.325 384.446 C 14.703 384.213,14.276 383.546,12.750 381.988 C 11.599 380.812,10.771 380.148,10.911 380.512 M20.032 389.443 C 20.552 390.072,20.526 390.091,19.726 389.665 C 18.600 389.065,18.400 389.079,18.400 389.757 C 18.400 390.064,18.679 390.422,19.021 390.553 C 19.437 390.712,19.550 390.628,19.362 390.295 C 19.208 390.023,19.487 390.217,19.982 390.727 C 20.477 391.237,21.124 391.561,21.420 391.447 C 21.767 391.315,21.880 391.448,21.737 391.820 C 21.607 392.159,21.751 392.400,22.082 392.400 C 22.394 392.400,23.036 392.760,23.508 393.200 C 23.980 393.640,24.644 394.000,24.983 394.000 C 25.322 394.000,25.600 394.180,25.600 394.400 C 25.600 394.620,25.960 394.800,26.400 394.800 C 26.840 394.800,27.200 394.980,27.200 395.200 C 27.200 395.420,27.470 395.600,27.800 395.600 C 28.130 395.600,28.400 395.780,28.400 396.000 C 28.400 396.220,28.760 396.400,29.200 396.400 C 29.640 396.400,30.000 396.580,30.000 396.800 C 30.000 397.020,30.450 397.200,31.000 397.200 C 31.550 397.200,32.000 397.380,32.000 397.600 C 32.000 397.820,32.439 398.000,32.976 398.000 C 33.513 398.000,34.057 398.168,34.183 398.373 C 34.310 398.578,34.986 398.730,35.686 398.710 C 36.386 398.690,37.027 398.882,37.112 399.137 C 37.322 399.767,39.598 399.733,39.606 399.100 C 39.611 398.708,39.680 398.706,39.924 399.090 C 40.310 399.698,41.942 399.946,41.970 399.400 C 41.982 399.180,41.736 398.998,41.424 398.995 C 41.112 398.992,40.709 398.828,40.528 398.631 C 40.343 398.428,40.405 398.389,40.672 398.542 C 40.932 398.691,41.258 398.630,41.396 398.407 C 41.753 397.830,39.756 397.896,38.801 398.492 C 38.147 398.900,37.909 398.866,37.405 398.294 C 37.071 397.914,37.014 397.782,37.279 398.001 C 38.108 398.688,38.968 398.511,38.257 397.800 C 37.593 397.136,35.403 396.958,35.800 397.600 C 35.936 397.820,35.836 398.000,35.577 398.000 C 35.304 398.000,35.194 397.665,35.316 397.200 C 35.450 396.686,35.328 396.400,34.975 396.400 C 34.651 396.400,34.519 396.646,34.655 397.000 C 34.826 397.445,34.597 397.600,33.766 397.600 C 32.696 397.600,32.681 397.574,33.424 397.013 C 34.148 396.465,34.151 396.425,33.476 396.413 C 33.078 396.406,32.864 396.220,33.000 396.000 C 33.136 395.780,32.877 395.600,32.424 395.600 C 31.971 395.600,31.600 395.425,31.600 395.210 C 31.600 394.990,31.077 394.925,30.400 395.060 C 29.491 395.242,29.200 395.154,29.200 394.697 C 29.200 394.365,28.750 394.007,28.200 393.902 C 27.650 393.797,27.200 393.866,27.200 394.055 C 27.200 394.245,26.930 394.400,26.600 394.400 C 26.270 394.400,26.045 394.190,26.100 393.933 C 26.155 393.676,25.796 393.255,25.302 392.997 C 24.809 392.739,24.524 392.410,24.669 392.264 C 24.814 392.119,24.498 391.986,23.967 391.968 C 23.435 391.951,23.223 391.847,23.496 391.736 C 24.307 391.409,22.903 390.280,21.985 390.520 C 21.553 390.633,21.301 390.561,21.425 390.360 C 21.684 389.941,20.850 389.059,20.023 388.877 C 19.551 388.774,19.552 388.861,20.032 389.443 M374.689 392.585 C 374.269 392.891,374.087 393.361,374.236 393.749 C 374.373 394.107,374.301 394.400,374.076 394.400 C 373.851 394.400,373.596 394.188,373.509 393.928 C 373.413 393.639,373.056 393.570,372.587 393.750 C 371.954 393.993,371.922 394.104,372.400 394.400 C 372.717 394.596,372.848 394.885,372.691 395.042 C 372.534 395.200,372.044 395.002,371.602 394.602 C 371.148 394.191,370.800 394.076,370.800 394.338 C 370.800 394.592,370.457 394.800,370.037 394.800 C 369.477 394.800,369.329 395.008,369.480 395.584 C 369.666 396.295,369.564 396.334,368.399 396.000 C 367.444 395.726,366.971 395.772,366.563 396.180 C 366.261 396.482,365.651 396.634,365.207 396.518 C 364.357 396.296,364.053 397.018,364.880 397.293 C 365.254 397.418,365.254 397.519,364.880 397.750 C 364.616 397.914,364.400 397.857,364.400 397.624 C 364.400 396.748,362.322 397.232,361.078 398.398 L 359.800 399.596 361.300 399.598 C 362.125 399.599,362.800 399.420,362.800 399.200 C 362.800 398.980,363.346 398.800,364.013 398.800 C 364.679 398.800,365.316 398.562,365.428 398.272 C 365.556 397.938,366.068 397.807,366.815 397.917 C 367.523 398.021,368.000 397.911,368.000 397.645 C 368.000 397.400,368.450 397.200,369.000 397.200 C 369.550 397.200,370.000 397.020,370.000 396.800 C 370.000 396.580,370.360 396.400,370.800 396.400 C 371.240 396.400,371.600 396.220,371.600 396.000 C 371.600 395.780,371.960 395.600,372.400 395.600 C 372.840 395.600,373.200 395.454,373.200 395.275 C 373.200 395.096,373.830 394.702,374.600 394.400 C 375.459 394.063,376.000 393.580,376.000 393.149 C 376.000 392.181,375.522 391.975,374.689 392.585 M376.400 392.800 C 376.400 393.020,376.670 393.200,377.000 393.200 C 377.330 393.200,377.600 393.020,377.600 392.800 C 377.600 392.580,377.330 392.400,377.000 392.400 C 376.670 392.400,376.400 392.580,376.400 392.800 M367.200 397.200 C 367.200 397.420,366.930 397.600,366.600 397.600 C 366.270 397.600,366.000 397.420,366.000 397.200 C 366.000 396.980,366.270 396.800,366.600 396.800 C 366.930 396.800,367.200 396.980,367.200 397.200 M358.476 398.385 C 358.571 399.462,358.377 399.679,357.770 399.175 C 357.310 398.794,357.063 398.775,356.859 399.105 C 356.676 399.400,356.373 399.428,355.989 399.185 C 355.143 398.650,352.246 398.714,351.680 399.280 C 351.307 399.653,351.200 399.653,351.200 399.280 C 351.200 399.016,350.998 398.800,350.751 398.800 C 350.447 398.800,350.468 399.000,350.816 399.419 C 351.432 400.162,357.784 400.183,359.246 399.448 C 360.549 398.793,360.676 397.986,359.461 398.087 C 358.909 398.132,358.465 398.267,358.476 398.385 M44.057 399.156 C 43.150 399.731,44.161 400.015,46.904 399.955 C 48.784 399.915,49.467 399.753,49.467 399.350 C 49.467 399.047,49.317 398.800,49.133 398.800 C 48.950 398.800,48.800 399.016,48.800 399.280 C 48.800 399.653,48.693 399.653,48.320 399.280 C 47.780 398.740,46.640 398.617,46.959 399.133 C 47.072 399.317,46.911 399.467,46.600 399.467 C 46.289 399.467,46.128 399.317,46.241 399.133 C 46.512 398.695,44.755 398.714,44.057 399.156 " stroke="none" fill="#3c4cb4" fill-rule="evenodd"></path><path id="path2" d="" stroke="none" fill="#3c54bc" fill-rule="evenodd"></path><path id="path3" d="" stroke="none" fill="#4054b4" fill-rule="evenodd"></path><path id="path4" d="" stroke="none" fill="#4054b4" fill-rule="evenodd"></path></g></svg>