<svg id="svg" version="1.1" xmlns="http://www.w3.org/2000/svg" xmlns:xlink="http://www.w3.org/1999/xlink" width="400" height="400" viewBox="0, 0, 400,400"><g id="svgg"><path id="path0" d="M8.530 19.072 C 8.686 19.332,8.630 19.658,8.407 19.796 C 8.183 19.934,8.003 20.262,8.006 20.524 C 8.010 20.859,8.099 20.870,8.306 20.560 C 8.468 20.318,8.845 20.041,9.144 19.945 C 9.563 19.811,9.523 19.637,8.967 19.185 C 8.571 18.863,8.374 18.813,8.530 19.072 M267.361 116.399 C 267.100 116.660,243.834 116.833,199.981 116.899 L 133.000 117.000 200.066 117.200 C 263.630 117.390,267.155 117.363,267.570 116.700 C 268.056 115.921,267.968 115.792,267.361 116.399 M281.068 126.567 C 280.805 127.253,281.861 127.749,282.249 127.121 C 282.428 126.831,282.339 126.791,281.994 127.004 C 281.609 127.242,281.534 127.149,281.719 126.666 C 281.860 126.300,281.820 126.000,281.630 126.000 C 281.441 126.000,281.188 126.255,281.068 126.567 M166.500 150.300 C 184.925 150.357,215.075 150.357,233.500 150.300 C 251.925 150.242,236.850 150.195,200.000 150.195 C 163.150 150.195,148.075 150.242,166.500 150.300 M270.047 215.971 C 269.646 216.219,269.669 216.341,270.154 216.527 C 270.495 216.658,270.873 216.605,270.994 216.410 C 271.309 215.900,270.654 215.596,270.047 215.971 M133.200 250.000 C 133.200 250.265,155.733 250.400,200.000 250.400 C 244.267 250.400,266.800 250.265,266.800 250.000 C 266.800 249.735,244.267 249.600,200.000 249.600 C 155.733 249.600,133.200 249.735,133.200 250.000 M270.455 250.935 C 270.535 250.985,270.915 251.267,271.300 251.562 C 271.889 252.013,272.000 252.009,272.000 251.534 C 272.000 251.224,271.620 250.942,271.155 250.907 C 270.690 250.872,270.375 250.884,270.455 250.935 M125.722 281.341 C 125.810 281.594,126.197 281.743,126.582 281.673 C 126.996 281.598,127.173 281.720,127.017 281.973 C 126.871 282.208,126.943 282.400,127.176 282.400 C 127.666 282.400,127.716 281.975,127.294 281.400 C 126.880 280.836,125.527 280.786,125.722 281.341 M199.800 283.200 L 132.600 283.403 199.876 283.502 C 244.402 283.567,267.236 283.465,267.400 283.200 C 267.536 282.980,267.502 282.844,267.324 282.898 C 267.146 282.952,236.760 283.088,199.800 283.200 M370.932 396.500 C 370.975 397.619,371.353 397.923,371.800 397.200 C 371.936 396.980,371.870 396.800,371.653 396.800 C 371.436 396.800,371.176 396.485,371.074 396.100 C 370.972 395.715,370.908 395.895,370.932 396.500 " stroke="none" fill="#3c54b4" fill-rule="evenodd"></path><path id="path1" d="M37.369 0.350 C 37.459 0.496,36.806 0.545,35.919 0.461 C 34.876 0.361,34.190 0.492,33.981 0.831 C 33.803 1.119,33.060 1.365,32.331 1.377 C 31.300 1.395,31.004 1.570,31.002 2.166 C 31.001 2.587,30.770 2.978,30.490 3.036 C 30.210 3.093,30.165 3.049,30.390 2.937 C 30.616 2.825,30.800 2.568,30.800 2.367 C 30.800 1.871,29.310 1.899,29.000 2.400 C 28.864 2.620,28.393 2.800,27.953 2.800 C 27.513 2.800,27.264 2.980,27.400 3.200 C 27.541 3.428,27.196 3.600,26.600 3.600 C 26.004 3.600,25.659 3.772,25.800 4.000 C 25.941 4.228,25.565 4.414,24.924 4.432 C 24.306 4.449,24.025 4.554,24.300 4.665 C 25.203 5.029,24.822 5.621,23.844 5.375 C 23.277 5.233,22.763 5.336,22.582 5.629 C 22.385 5.947,22.441 6.022,22.738 5.838 C 22.992 5.681,23.200 5.658,23.200 5.786 C 23.200 6.119,21.098 6.944,20.500 6.847 C 20.225 6.802,20.000 6.953,20.000 7.182 C 20.000 7.412,19.775 7.601,19.500 7.602 C 19.225 7.603,18.425 8.143,17.722 8.802 C 17.019 9.461,16.274 10.000,16.066 10.000 C 15.555 10.000,13.372 12.800,13.510 13.278 C 13.570 13.488,13.432 13.544,13.203 13.402 C 12.974 13.261,12.908 12.949,13.055 12.711 C 13.203 12.471,13.140 12.390,12.914 12.530 C 12.689 12.669,12.282 13.320,12.009 13.977 C 11.737 14.634,11.337 15.133,11.120 15.086 C 10.903 15.039,10.517 15.352,10.263 15.781 C 10.008 16.211,9.306 17.111,8.702 17.781 C 8.098 18.452,7.603 19.143,7.602 19.317 C 7.601 19.491,7.253 20.006,6.829 20.461 C 6.406 20.916,6.146 21.515,6.252 21.792 C 6.359 22.070,6.166 22.404,5.823 22.536 C 5.480 22.667,5.200 23.051,5.200 23.387 C 5.200 23.724,4.999 24.000,4.753 24.000 C 4.492 24.000,4.387 24.418,4.500 25.010 C 4.606 25.565,4.509 26.133,4.285 26.271 C 4.051 26.416,3.998 26.326,4.162 26.062 C 4.319 25.808,4.257 25.600,4.024 25.600 C 3.791 25.600,3.600 26.061,3.600 26.624 C 3.600 27.204,3.427 27.540,3.200 27.400 C 2.980 27.264,2.800 27.436,2.800 27.782 C 2.800 28.128,2.641 28.723,2.447 29.105 C 1.356 31.249,1.114 32.029,1.309 32.775 C 1.429 33.232,1.299 33.736,1.019 33.901 C 0.281 34.336,-0.184 39.062,0.484 39.330 C 0.882 39.489,0.885 39.544,0.499 39.568 C -0.065 39.604,-0.261 362.000,0.303 362.000 C 0.467 362.000,0.562 362.900,0.513 364.000 C 0.464 365.100,0.599 366.000,0.812 366.000 C 1.025 366.000,1.200 366.360,1.200 366.800 C 1.200 367.240,1.380 367.600,1.600 367.600 C 1.820 367.600,2.000 367.791,2.000 368.024 C 2.000 368.257,1.820 368.336,1.600 368.200 C 0.990 367.823,1.124 368.639,1.759 369.166 C 2.066 369.421,2.231 369.958,2.126 370.360 C 2.014 370.789,2.193 371.189,2.561 371.330 C 2.967 371.486,3.092 371.821,2.918 372.285 C 2.694 372.883,2.749 372.919,3.254 372.510 C 3.771 372.091,3.835 372.181,3.695 373.132 C 3.523 374.304,4.051 374.979,5.400 375.311 C 6.106 375.484,6.091 375.513,5.271 375.554 C 4.425 375.596,4.399 375.656,4.975 376.232 C 5.323 376.580,5.517 377.011,5.406 377.190 C 5.295 377.370,5.471 377.618,5.796 377.743 C 6.131 377.872,6.285 378.235,6.150 378.585 C 5.996 378.987,6.146 379.200,6.581 379.200 C 6.947 379.200,7.136 379.380,7.000 379.600 C 6.864 379.820,6.943 380.000,7.176 380.000 C 7.409 380.000,7.600 380.288,7.600 380.640 C 7.600 380.991,8.140 381.783,8.800 382.400 C 9.460 383.017,10.000 383.708,10.000 383.937 C 10.000 384.166,10.208 384.481,10.462 384.638 C 10.767 384.827,10.814 384.746,10.600 384.400 C 10.379 384.043,10.432 383.973,10.765 384.179 C 11.034 384.345,11.158 384.733,11.040 385.040 C 10.914 385.369,11.077 385.600,11.436 385.600 C 11.801 385.600,11.931 385.789,11.758 386.068 C 11.562 386.385,11.689 386.451,12.155 386.273 C 12.579 386.110,12.744 386.167,12.586 386.422 C 12.216 387.022,13.163 388.000,14.116 388.000 C 14.565 388.000,14.816 388.118,14.672 388.262 C 14.422 388.512,15.407 389.555,17.728 391.497 C 18.800 392.395,19.244 392.207,18.300 391.256 C 17.899 390.852,17.939 390.805,18.500 391.019 C 18.885 391.166,19.200 391.470,19.200 391.696 C 19.200 392.239,21.263 393.999,21.900 394.000 C 22.175 394.000,22.400 394.155,22.400 394.345 C 22.400 394.535,22.838 394.642,23.373 394.583 C 24.116 394.502,24.288 394.625,24.103 395.108 C 23.925 395.572,24.035 395.672,24.520 395.486 C 24.918 395.334,25.322 395.488,25.539 395.876 C 25.764 396.278,26.207 396.439,26.719 396.305 C 27.307 396.151,27.480 396.248,27.327 396.645 C 27.199 396.981,27.376 397.200,27.777 397.200 C 28.141 397.200,29.150 397.544,30.020 397.964 C 31.482 398.670,31.633 398.678,32.031 398.064 C 32.422 397.460,32.441 397.463,32.243 398.100 C 32.077 398.632,32.254 398.800,32.979 398.800 C 33.504 398.800,33.993 398.964,34.067 399.164 C 34.329 399.882,39.145 399.951,39.336 399.240 C 39.479 398.707,39.515 398.718,39.554 399.304 C 39.631 400.485,364.057 400.182,365.012 399.000 C 365.368 398.560,365.553 398.413,365.423 398.672 C 365.293 398.932,365.370 399.258,365.593 399.396 C 365.817 399.534,366.000 399.485,366.000 399.288 C 366.000 398.662,367.920 397.968,368.124 398.521 C 368.259 398.888,368.424 398.883,368.830 398.500 C 369.122 398.225,369.695 398.000,370.104 398.000 C 370.513 398.000,370.736 397.820,370.600 397.600 C 370.464 397.380,370.527 397.200,370.739 397.200 C 370.951 397.200,371.078 396.885,371.020 396.500 C 370.962 396.115,370.989 396.010,371.080 396.266 C 371.311 396.916,372.554 397.337,372.726 396.823 C 372.803 396.590,373.124 396.400,373.439 396.400 C 374.076 396.400,375.479 395.667,376.317 394.896 C 376.618 394.619,377.030 394.495,377.232 394.620 C 377.435 394.745,377.600 394.657,377.600 394.424 C 377.600 394.191,377.878 394.000,378.218 394.000 C 378.558 394.000,379.290 393.547,379.844 392.992 C 380.398 392.438,381.020 392.089,381.226 392.216 C 381.575 392.432,381.777 391.851,381.631 391.051 C 381.596 390.859,381.857 390.813,382.211 390.949 C 382.917 391.220,383.851 390.481,387.893 386.453 C 389.536 384.817,390.368 383.693,390.220 383.309 C 390.056 382.881,390.177 382.782,390.644 382.961 C 391.145 383.154,391.248 383.028,391.089 382.420 C 390.975 381.984,390.999 381.643,391.141 381.661 C 391.910 381.761,392.419 381.555,392.216 381.226 C 392.089 381.020,392.457 380.379,393.034 379.802 C 393.771 379.065,394.029 378.461,393.898 377.776 C 393.705 376.768,394.178 376.415,394.535 377.300 C 394.646 377.575,394.751 377.395,394.768 376.900 C 394.786 376.405,394.959 376.000,395.153 376.000 C 395.477 376.000,395.870 375.118,396.219 373.607 C 396.295 373.281,396.546 372.951,396.778 372.874 C 397.010 372.797,397.200 372.388,397.200 371.967 C 397.200 371.545,397.380 371.200,397.600 371.200 C 397.820 371.200,398.000 370.786,398.000 370.280 C 398.000 369.774,398.225 369.122,398.500 368.830 C 398.883 368.424,398.888 368.259,398.521 368.124 C 397.968 367.920,398.662 366.000,399.288 366.000 C 399.485 366.000,399.534 365.817,399.396 365.593 C 399.258 365.370,398.932 365.293,398.672 365.423 C 398.413 365.553,398.560 365.368,399.000 365.012 C 400.001 364.203,400.300 34.433,399.300 34.100 C 399.025 34.008,398.800 33.329,398.800 32.589 C 398.800 31.654,398.530 31.056,397.911 30.623 C 397.422 30.280,397.242 30.000,397.511 30.000 C 397.780 30.000,398.000 29.730,398.000 29.400 C 398.000 29.070,397.820 28.800,397.600 28.800 C 397.380 28.800,397.200 28.517,397.200 28.171 C 397.200 27.826,396.928 27.271,396.596 26.939 C 396.264 26.607,396.095 26.170,396.220 25.968 C 396.345 25.765,396.257 25.600,396.024 25.600 C 395.791 25.600,395.600 25.317,395.600 24.971 C 395.600 24.626,395.328 24.071,394.996 23.739 C 394.664 23.407,394.495 22.970,394.620 22.768 C 394.745 22.565,394.657 22.400,394.424 22.400 C 394.191 22.400,394.000 22.080,394.000 21.688 C 394.000 21.297,393.640 20.717,393.200 20.400 C 392.760 20.083,392.400 19.524,392.400 19.158 C 392.400 18.558,391.103 17.832,390.270 17.967 C 390.089 17.996,390.060 17.827,390.206 17.590 C 390.389 17.294,390.667 17.322,391.104 17.681 C 391.452 17.966,390.906 17.106,389.892 15.768 C 387.682 12.856,386.988 12.237,386.366 12.621 C 386.071 12.803,385.967 12.704,386.085 12.356 C 386.325 11.653,384.461 10.002,383.740 10.278 C 383.443 10.392,383.200 10.278,383.200 10.025 C 383.200 9.444,381.556 7.843,380.782 7.670 C 380.462 7.598,380.140 7.373,380.067 7.170 C 379.993 6.966,379.668 6.800,379.343 6.800 C 379.018 6.800,378.864 6.620,379.000 6.400 C 379.136 6.180,378.877 6.000,378.424 6.000 C 377.971 6.000,377.600 5.820,377.600 5.600 C 377.600 5.035,376.265 5.103,375.621 5.700 C 375.325 5.975,375.185 6.015,375.310 5.789 C 375.435 5.563,375.176 4.933,374.734 4.389 C 374.292 3.845,374.071 3.670,374.242 4.000 C 374.509 4.515,374.459 4.523,373.882 4.055 C 373.512 3.756,372.912 3.625,372.549 3.764 C 371.980 3.982,371.962 3.927,372.422 3.374 C 372.873 2.831,372.866 2.742,372.378 2.812 C 370.978 3.013,370.176 2.803,370.800 2.400 C 371.269 2.097,371.166 2.011,370.324 2.006 C 369.732 2.003,369.136 1.820,369.000 1.600 C 368.864 1.380,368.133 1.200,367.376 1.200 C 366.619 1.200,366.000 1.020,366.000 0.800 C 366.000 0.580,365.685 0.403,365.300 0.406 C 364.702 0.411,364.687 0.469,365.200 0.800 C 365.561 1.033,365.610 1.190,365.324 1.194 C 365.062 1.197,364.725 1.003,364.576 0.762 C 364.427 0.520,363.787 0.399,363.153 0.492 C 362.519 0.585,362.000 0.513,362.000 0.333 C 362.000 0.152,289.460 0.003,200.800 0.001 C 93.337 -0.001,39.600 0.132,39.600 0.399 C 39.600 0.620,39.409 0.800,39.176 0.800 C 38.943 0.800,38.836 0.665,38.938 0.500 C 39.040 0.335,38.692 0.174,38.164 0.142 C 37.637 0.111,37.279 0.204,37.369 0.350 M9.144 19.945 C 8.845 20.041,8.468 20.318,8.306 20.560 C 8.099 20.870,8.010 20.859,8.006 20.524 C 8.003 20.262,8.183 19.934,8.407 19.796 C 8.630 19.658,8.686 19.332,8.530 19.072 C 8.374 18.813,8.571 18.863,8.967 19.185 C 9.523 19.637,9.563 19.811,9.144 19.945 M267.643 116.720 C 267.308 117.345,267.446 117.453,268.686 117.537 C 269.471 117.589,270.448 117.812,270.857 118.030 C 271.266 118.249,271.600 118.310,271.600 118.165 C 271.600 118.020,271.870 118.126,272.200 118.400 C 272.684 118.801,272.803 118.792,272.813 118.349 C 272.822 118.002,273.103 118.131,273.577 118.700 C 273.990 119.195,274.530 119.600,274.777 119.600 C 275.023 119.600,275.333 119.880,275.464 120.223 C 275.596 120.566,275.959 120.748,276.272 120.628 C 276.585 120.507,276.740 120.574,276.615 120.776 C 276.490 120.977,276.765 121.262,277.224 121.408 C 277.684 121.554,277.972 121.762,277.863 121.870 C 277.755 121.978,277.989 122.389,278.383 122.783 C 278.778 123.177,279.199 123.748,279.320 124.050 C 279.501 124.505,279.618 124.497,279.996 124.000 C 280.377 123.499,280.418 123.531,280.244 124.200 C 280.129 124.640,280.291 125.450,280.603 126.000 C 280.916 126.550,281.178 126.775,281.186 126.500 C 281.194 126.225,281.386 126.000,281.614 126.000 C 281.899 126.000,281.899 126.242,281.613 126.776 C 281.332 127.301,281.329 127.633,281.605 127.803 C 281.830 127.942,281.905 128.231,281.772 128.445 C 281.640 128.660,281.748 129.096,282.013 129.415 C 282.278 129.735,282.484 130.720,282.472 131.606 C 282.460 132.492,282.606 133.120,282.797 133.002 C 282.988 132.884,283.261 132.974,283.402 133.203 C 283.544 133.432,283.421 133.570,283.130 133.510 C 282.779 133.437,282.578 133.873,282.534 134.800 C 282.498 135.570,282.453 136.526,282.434 136.924 C 282.416 137.322,282.220 137.536,282.000 137.400 C 281.767 137.256,281.600 137.663,281.600 138.376 C 281.600 139.049,281.420 139.600,281.200 139.600 C 280.980 139.600,280.800 139.960,280.800 140.400 C 280.800 140.840,280.649 141.200,280.464 141.200 C 280.280 141.200,279.912 141.675,279.647 142.256 C 279.383 142.836,278.713 143.668,278.159 144.104 C 277.605 144.540,277.243 145.135,277.355 145.428 C 277.492 145.785,277.348 145.878,276.914 145.712 C 276.487 145.548,276.366 145.621,276.555 145.927 C 276.742 146.230,276.626 146.308,276.221 146.153 C 275.798 145.990,275.598 146.151,275.594 146.657 C 275.589 147.283,275.527 147.306,275.200 146.800 C 274.987 146.470,274.809 146.404,274.806 146.653 C 274.803 146.903,274.422 147.206,273.960 147.326 C 273.403 147.472,273.222 147.724,273.424 148.073 C 273.591 148.363,273.581 148.467,273.401 148.303 C 273.221 148.140,272.809 148.227,272.485 148.496 C 272.130 148.790,270.963 148.941,269.548 148.877 C 268.122 148.811,267.200 148.932,267.200 149.185 C 267.200 149.790,133.524 149.764,132.919 149.159 C 132.671 148.911,131.586 148.779,130.439 148.859 C 128.999 148.959,128.400 148.853,128.400 148.500 C 128.400 148.209,127.889 148.000,127.176 148.000 C 126.463 148.000,126.056 147.833,126.200 147.600 C 126.337 147.379,126.049 147.200,125.557 147.200 C 125.067 147.200,124.792 147.074,124.946 146.921 C 125.099 146.767,124.883 146.452,124.466 146.221 C 123.341 145.598,120.800 143.278,120.800 142.874 C 120.800 142.682,120.440 142.198,120.000 141.800 C 119.560 141.402,119.200 140.725,119.200 140.295 C 119.200 139.796,119.001 139.591,118.648 139.726 C 118.226 139.888,118.130 139.592,118.240 138.469 C 118.320 137.661,118.283 137.225,118.159 137.500 C 117.604 138.731,117.400 137.695,117.400 133.640 C 117.400 131.241,117.523 129.354,117.672 129.446 C 118.061 129.684,118.389 129.037,118.489 127.836 C 118.536 127.266,118.736 126.800,118.934 126.800 C 119.132 126.800,119.199 126.440,119.084 126.000 C 118.969 125.560,119.051 125.200,119.266 125.200 C 119.945 125.200,120.863 124.026,120.564 123.541 C 120.398 123.274,120.450 123.184,120.685 123.329 C 121.218 123.658,122.556 122.176,122.218 121.630 C 122.072 121.393,122.186 121.295,122.479 121.407 C 123.052 121.624,125.200 119.954,125.200 119.291 C 125.200 119.062,125.560 118.969,126.000 119.084 C 126.440 119.199,126.800 119.132,126.800 118.934 C 126.800 118.736,127.266 118.536,127.836 118.489 C 129.038 118.389,129.685 118.061,129.445 117.672 C 129.352 117.523,160.174 117.402,197.938 117.404 L 266.600 117.409 199.800 117.203 L 133.000 116.996 200.076 116.898 C 244.256 116.834,267.237 116.663,267.400 116.400 C 267.835 115.697,268.043 115.972,267.643 116.720 M233.500 150.300 C 215.075 150.357,184.925 150.357,166.500 150.300 C 148.075 150.242,163.150 150.195,200.000 150.195 C 236.850 150.195,251.925 150.242,233.500 150.300 M269.459 184.449 C 269.751 184.691,270.245 184.792,270.556 184.672 C 270.867 184.553,271.455 184.707,271.861 185.015 C 272.268 185.323,273.016 185.580,273.524 185.587 C 274.035 185.594,274.337 185.778,274.200 186.000 C 274.064 186.220,274.238 186.400,274.587 186.400 C 274.936 186.400,276.036 187.215,277.032 188.211 C 278.027 189.206,279.025 189.908,279.248 189.770 C 279.479 189.627,279.599 189.838,279.527 190.260 C 279.457 190.667,279.607 190.961,279.859 190.914 C 280.131 190.863,280.234 191.148,280.112 191.614 C 279.999 192.049,280.106 192.400,280.353 192.400 C 280.599 192.400,280.800 192.655,280.800 192.967 C 280.800 193.278,280.969 193.593,281.175 193.667 C 281.382 193.740,281.637 194.340,281.743 195.000 C 281.848 195.660,281.949 196.279,281.967 196.376 C 281.985 196.474,282.271 196.204,282.602 195.776 C 283.174 195.039,283.187 195.051,282.852 196.000 C 282.659 196.550,282.523 198.483,282.550 200.296 C 282.587 202.745,282.460 203.645,282.055 203.801 C 281.741 203.921,281.596 204.341,281.713 204.790 C 281.826 205.219,281.658 205.786,281.341 206.049 C 280.949 206.374,280.848 206.907,281.025 207.714 C 281.207 208.542,281.150 208.816,280.836 208.622 C 280.589 208.470,280.491 208.177,280.617 207.972 C 280.744 207.768,280.657 207.600,280.424 207.600 C 280.052 207.600,279.797 208.778,279.963 209.730 C 279.994 209.911,279.862 209.962,279.668 209.842 C 279.169 209.534,277.462 211.453,277.779 211.966 C 277.938 212.223,277.804 212.300,277.441 212.161 C 277.111 212.034,276.438 212.306,275.945 212.765 C 275.452 213.224,274.802 213.600,274.501 213.600 C 274.199 213.600,274.066 213.783,274.204 214.007 C 274.342 214.230,274.623 214.309,274.828 214.183 C 275.032 214.056,275.200 214.139,275.200 214.366 C 275.200 214.613,274.715 214.683,274.001 214.540 C 273.254 214.391,272.554 214.506,272.145 214.845 C 271.784 215.145,271.081 215.337,270.583 215.272 C 270.084 215.206,269.559 215.343,269.415 215.576 C 269.059 216.152,130.956 216.175,130.600 215.600 C 130.464 215.380,129.922 215.200,129.395 215.200 C 128.337 215.200,126.346 214.422,125.940 213.850 C 125.798 213.648,125.383 213.598,125.020 213.737 C 124.656 213.877,124.454 213.837,124.570 213.649 C 124.686 213.461,124.394 212.968,123.922 212.553 C 123.339 212.043,123.159 211.993,123.361 212.400 C 123.525 212.730,123.376 212.651,123.030 212.224 C 122.683 211.796,122.400 211.301,122.400 211.124 C 122.400 210.946,122.119 210.800,121.776 210.800 C 121.433 210.800,121.264 210.620,121.400 210.400 C 121.536 210.180,121.384 210.000,121.063 210.000 C 120.741 210.000,120.290 209.460,120.060 208.800 C 119.830 208.140,119.469 207.600,119.258 207.600 C 119.047 207.600,118.969 207.240,119.084 206.800 C 119.201 206.353,119.096 206.000,118.847 206.000 C 118.601 206.000,118.400 205.623,118.400 205.162 C 118.400 204.701,118.005 203.768,117.521 203.090 C 117.038 202.411,116.858 201.989,117.121 202.151 C 117.415 202.333,117.600 202.206,117.600 201.824 C 117.600 201.481,117.375 201.186,117.100 201.168 C 116.700 201.143,116.700 201.096,117.100 200.935 C 117.413 200.809,117.600 199.930,117.600 198.590 C 117.600 197.412,117.797 196.325,118.038 196.176 C 118.279 196.027,118.405 195.297,118.319 194.553 C 118.164 193.227,118.536 192.712,118.935 193.700 C 119.046 193.975,119.151 193.795,119.168 193.300 C 119.186 192.805,119.391 192.400,119.624 192.400 C 119.857 192.400,119.952 192.246,119.836 192.058 C 119.479 191.481,124.660 186.400,125.605 186.400 C 125.822 186.400,126.000 186.220,126.000 186.000 C 126.000 185.780,125.820 185.600,125.600 185.600 C 125.380 185.600,125.200 185.384,125.200 185.120 C 125.200 184.747,125.307 184.747,125.680 185.120 C 126.358 185.798,126.792 185.716,126.846 184.900 C 126.889 184.256,126.908 184.258,127.080 184.921 C 127.208 185.417,127.412 185.522,127.733 185.257 C 127.990 185.044,128.740 184.810,129.400 184.735 C 130.060 184.661,130.570 184.420,130.533 184.200 C 130.435 183.610,268.747 183.858,269.459 184.449 M270.994 216.410 C 270.873 216.605,270.495 216.658,270.154 216.527 C 269.669 216.341,269.646 216.219,270.047 215.971 C 270.654 215.596,271.309 215.900,270.994 216.410 M266.800 250.176 C 266.800 250.981,267.581 251.379,268.115 250.845 C 268.680 250.280,269.332 250.263,268.986 250.822 C 268.813 251.103,269.274 251.182,270.363 251.057 C 271.644 250.910,272.000 251.001,272.000 251.477 C 272.000 251.854,272.229 251.998,272.600 251.855 C 272.978 251.710,273.200 251.860,273.200 252.259 C 273.200 252.696,273.448 252.828,274.000 252.684 C 274.494 252.555,274.800 252.672,274.800 252.989 C 274.800 253.272,275.315 253.716,275.945 253.977 C 276.575 254.238,277.677 255.236,278.395 256.194 C 279.113 257.152,279.903 257.890,280.150 257.834 C 280.398 257.777,280.465 257.807,280.300 257.899 C 279.790 258.184,279.969 258.800,280.563 258.800 C 280.928 258.800,281.052 259.080,280.916 259.600 C 280.776 260.134,280.904 260.400,281.298 260.400 C 281.719 260.400,281.832 260.700,281.690 261.443 C 281.580 262.016,281.650 262.601,281.845 262.743 C 282.686 263.352,283.149 264.691,282.681 265.159 C 282.333 265.507,282.347 265.824,282.740 266.452 C 283.025 266.909,283.066 267.164,282.830 267.018 C 282.548 266.844,282.400 267.372,282.400 268.553 C 282.400 269.543,282.205 270.473,281.968 270.620 C 281.717 270.775,281.647 271.331,281.800 271.943 C 281.946 272.523,281.935 272.869,281.777 272.710 C 281.377 272.310,280.064 274.840,280.224 275.700 C 280.312 276.175,280.099 276.400,279.559 276.400 C 279.028 276.400,278.804 276.629,278.882 277.091 C 278.947 277.471,278.820 277.793,278.600 277.805 C 277.876 277.847,276.400 278.982,276.400 279.496 C 276.400 279.773,276.053 280.000,275.629 280.000 C 275.204 280.000,274.587 280.270,274.257 280.600 C 273.927 280.930,273.374 281.200,273.029 281.200 C 272.683 281.200,272.400 281.374,272.400 281.587 C 272.400 281.801,272.128 281.870,271.795 281.743 C 271.462 281.615,270.951 281.709,270.659 281.951 C 270.277 282.268,250.469 282.395,200.046 282.404 C 144.759 282.414,130.017 282.521,130.216 282.908 C 130.356 283.179,130.119 282.969,129.690 282.442 C 129.261 281.916,128.718 281.604,128.483 281.749 C 128.248 281.894,127.942 281.830,127.803 281.605 C 127.636 281.335,127.304 281.330,126.818 281.591 C 126.274 281.881,125.944 281.815,125.545 281.334 C 125.067 280.758,125.118 280.713,126.003 280.938 L 127.000 281.192 125.980 280.696 C 125.420 280.423,124.651 279.930,124.273 279.600 C 122.692 278.222,120.961 276.426,120.400 275.580 C 120.070 275.083,119.395 274.311,118.900 273.866 C 118.026 273.079,117.629 272.124,118.366 272.579 C 118.581 272.712,118.604 272.351,118.421 271.703 C 118.249 271.096,117.950 270.630,117.755 270.667 C 117.560 270.704,117.431 269.355,117.469 267.670 C 117.510 265.824,117.351 264.376,117.069 264.026 C 116.704 263.575,116.711 263.513,117.100 263.747 C 117.415 263.936,117.600 263.816,117.600 263.424 C 117.600 263.081,117.780 262.800,118.000 262.800 C 118.220 262.800,118.400 262.260,118.400 261.600 C 118.400 260.940,118.599 260.400,118.843 260.400 C 119.086 260.400,119.184 260.135,119.059 259.811 C 118.927 259.466,119.404 258.617,120.210 257.762 C 120.967 256.959,121.472 256.116,121.332 255.889 C 121.191 255.662,121.268 255.595,121.502 255.739 C 121.736 255.884,122.382 255.462,122.938 254.801 C 123.494 254.140,124.230 253.600,124.574 253.600 C 124.918 253.600,125.200 253.420,125.200 253.200 C 125.200 252.980,125.605 252.786,126.100 252.768 C 126.595 252.751,126.775 252.646,126.500 252.535 C 126.225 252.424,126.000 252.149,126.000 251.924 C 126.000 251.699,126.248 251.610,126.551 251.726 C 126.854 251.842,127.331 251.727,127.610 251.469 C 128.001 251.108,128.052 251.115,127.835 251.500 C 127.680 251.775,127.724 252.000,127.934 252.000 C 128.143 252.000,128.409 251.752,128.526 251.449 C 128.660 251.099,129.113 250.971,129.771 251.097 C 130.339 251.205,131.074 251.071,131.402 250.798 C 131.816 250.455,132.000 250.440,132.000 250.751 C 132.000 251.521,132.864 251.242,133.084 250.400 C 133.363 249.332,266.800 249.109,266.800 250.176 M267.400 283.200 C 267.236 283.465,244.402 283.567,199.876 283.502 L 132.600 283.403 199.800 283.200 C 236.760 283.088,267.146 282.952,267.324 282.898 C 267.502 282.844,267.536 282.980,267.400 283.200 " stroke="none" fill="#3c4cb6" fill-rule="evenodd"></path><path id="path2" d="" stroke="none" fill="#3c54bc" fill-rule="evenodd"></path><path id="path3" d="" stroke="none" fill="#4054b4" fill-rule="evenodd"></path><path id="path4" d="" stroke="none" fill="#4054b4" fill-rule="evenodd"></path></g></svg>